SplineFontDB: 3.0
FontName: DEV-MauryaBoldItalic
FullName: DEV Maurya Bold Italic
FamilyName: DEV Maurya
Weight: Bold
Copyright: Copyright (c) 2009-2015, NLCI (http://www.nlci.in/fonts/)
Version: 1.0 Fri Sep 29 16:01:16 1995
ItalicAngle: 12
UnderlinePosition: -290
UnderlineWidth: 20
Ascent: 800
Descent: 200
InvalidEm: 0
LayerCount: 2
Layer: 0 0 "Back" 1
Layer: 1 0 "Fore" 0
XUID: [1021 557 2061649428 252724]
FSType: 0
OS2Version: 0
OS2_WeightWidthSlopeOnly: 0
OS2_UseTypoMetrics: 1
CreationTime: 1258090188
ModificationTime: 1433224094
PfmFamily: 81
TTFWeight: 700
TTFWidth: 5
LineGap: 0
VLineGap: 0
Panose: 5 0 0 0 0 0 0 0 0 0
OS2TypoAscent: 44
OS2TypoAOffset: 1
OS2TypoDescent: -184
OS2TypoDOffset: 1
OS2TypoLinegap: 0
OS2WinAscent: -336
OS2WinAOffset: 1
OS2WinDescent: -153
OS2WinDOffset: 1
HheadAscent: -336
HheadAOffset: 1
HheadDescent: 153
HheadDOffset: 1
OS2SubXSize: 700
OS2SubYSize: 650
OS2SubXOff: 0
OS2SubYOff: 143
OS2SupXSize: 700
OS2SupYSize: 650
OS2SupXOff: 0
OS2SupYOff: 453
OS2StrikeYSize: 50
OS2StrikeYPos: 259
OS2Vendor: 'Alts'
OS2UnicodeRanges: 00000000.00000000.00000000.00000000
Lookup: 1 0 0 "Wide I-matra" { "Wide I-matra-1"  } []
Lookup: 1 0 0 "'nukt' Nukta Forms in Devanagari lookup 6" { "'locl' Local Forms in Devanagari lookup 6-1"  } ['nukt' ('deva' <'NEP ' > ) ]
Lookup: 4 0 0 "'akhn' Akhand in Devanagari lookup 0" { "'akhn' Akhand in Devanagari lookup 0 subtable"  } ['akhn' ('deva' <'HIN ' 'NEP ' 'dflt' > ) ]
Lookup: 4 0 0 "'rphf' Reph Form in Devanagari lookup 1" { "'rphf' Reph Form in Devanagari lookup 1 subtable"  } ['rphf' ('deva' <'HIN ' 'NEP ' 'dflt' > ) ]
Lookup: 4 0 0 "'blwf' Below Base Forms in Devanagari lookup 2" { "'blwf' Below Base Forms in Devanagari lookup 2 subtable"  } ['blwf' ('deva' <'HIN ' 'NEP ' 'dflt' > ) ]
Lookup: 4 8 0 "'half' Half Forms in Devanagari lookup 3" { "'half' Half Forms in Devanagari lookup 3 subtable"  } ['half' ('deva' <'HIN ' 'NEP ' 'dflt' > ) ]

StartChar: .notdef
Encoding: 65536 -1 0
Width: 1024
Flags: HW
LayerCount: 2
Back
Fore
SplineSet
64 0 m 1
 64 1383 l 1
 960 1383 l 1
 960 0 l 1
 64 0 l 1
896 64 m 1
 896 1319 l 1
 128 1319 l 1
 128 64 l 1
 896 64 l 1
EndSplineSet
EndChar

StartChar: quotedbl
Encoding: 34 34 3
Width: 385
VWidth: 1024
GlyphClass: 2
Flags: HW
LayerCount: 2
Back
Fore
SplineSet
230.5 685 m 0
 230.5 681.666992188 228.666992188 674 225 662 c 128
 221.333007812 650 216.583007812 635.666992188 210.75 619 c 128
 204.916992188 602.333007812 198.416992188 584.25 191.25 564.75 c 128
 184.083007812 545.25 177.166992188 526.5 170.5 508.5 c 128
 163.833007812 490.5 157.75 474.166992188 152.25 459.5 c 128
 146.75 444.833007812 142.833007812 434 140.5 427 c 1
 102.5 427 l 1
 109.5 666.5 l 2
 109.833007812 675.833007812 112.166992188 684.416992188 116.5 692.25 c 128
 120.833007812 700.083007812 126.333007812 706.833007812 133 712.5 c 128
 139.666992188 718.166992188 147.166992188 722.666992188 155.5 726 c 128
 163.833007812 729.333007812 172.333007812 731 181 731 c 0
 196 731 208 727.333007812 217 720 c 128
 226 712.666992188 230.5 701 230.5 685 c 0
431 685 m 0
 431 681.666992188 429.166992188 674 425.5 662 c 128
 421.833007812 650 417.083007812 635.666992188 411.25 619 c 128
 405.416992188 602.333007812 398.916992188 584.25 391.75 564.75 c 128
 384.583007812 545.25 377.666992188 526.5 371 508.5 c 128
 364.333007812 490.5 358.333007812 474.166992188 353 459.5 c 128
 347.666992188 444.833007812 343.666992188 434 341 427 c 1
 303 427 l 1
 311.5 666.5 l 2
 311.833007812 675.833007812 314 684.416992188 318 692.25 c 128
 322 700.083007812 327.333007812 706.833007812 334 712.5 c 128
 340.666992188 718.166992188 348.166992188 722.666992188 356.5 726 c 128
 364.833007812 729.333007812 373.333007812 731 382 731 c 0
 397 731 408.916992188 727.333007812 417.75 720 c 128
 426.583007812 712.666992188 431 701 431 685 c 0
EndSplineSet
EndChar

StartChar: numbersign
Encoding: 35 35 4
Width: 759
VWidth: 1024
GlyphClass: 2
Flags: HW
LayerCount: 2
Back
Fore
SplineSet
339 424 m 1
 294 289 l 1
 421 289 l 1
 468 424 l 1
 339 424 l 1
539.5 424 m 1
 495.5 289 l 1
 654.5 289 l 1
 654.5 224.5 l 1
 473 224.5 l 1
 395.5 -24.5 l 1
 324.5 -7 l 1
 400.5 224.5 l 1
 272.5 224.5 l 1
 192.5 -24.5 l 1
 124 -6 l 1
 200.5 224.5 l 1
 63.5 224.5 l 1
 63.5 289 l 1
 221 289 l 1
 265 424 l 1
 113.5 424 l 1
 113.5 491.5 l 1
 286.5 491.5 l 1
 365.5 727 l 1
 434 708.5 l 1
 358.5 491.5 l 1
 491.5 491.5 l 1
 567.5 727 l 1
 638 707.5 l 1
 561 491.5 l 1
 695.5 491.5 l 1
 695.5 424 l 1
 539.5 424 l 1
EndSplineSet
EndChar

StartChar: dollar
Encoding: 36 36 5
Width: 612
VWidth: 1024
GlyphClass: 2
Flags: HW
LayerCount: 2
Back
Fore
SplineSet
566.5 483.5 m 1
 495.5 483.5 l 1
 497.5 591 l 1
 498.166992188 595 497.666992188 597.75 496 599.25 c 128
 494.333007812 600.75 492.166992188 602 489.5 603 c 0
 484.5 605.333007812 478 607.583007812 470 609.75 c 128
 462 611.916992188 454 613.916992188 446 615.75 c 128
 438 617.583007812 430.5 619 423.5 620 c 128
 416.5 621 411.5 621.5 408.5 621.5 c 1
 366.5 410.5 l 1
 377.166992188 407.5 389.666992188 403.75 404 399.25 c 128
 418.333007812 394.75 433 389.083007812 448 382.25 c 128
 463 375.416992188 477.583007812 367.083007812 491.75 357.25 c 128
 505.916992188 347.416992188 517.916992188 335.583007812 527.75 321.75 c 128
 537.583007812 307.916992188 544.583007812 291.833007812 548.75 273.5 c 128
 552.916992188 255.166992188 552.666992188 234 548 210 c 0
 542.333007812 180.666992188 531.75 154.166992188 516.25 130.5 c 128
 500.75 106.833007812 481.5 86.1669921875 458.5 68.5 c 128
 435.5 50.8330078125 409.25 36.3330078125 379.75 25 c 128
 350.25 13.6669921875 318.833007812 5.6669921875 285.5 1 c 1
 265 -104.5 l 1
 205 -104.5 l 1
 225.5 0 l 1
 201.5 1 177.666992188 3 154 6 c 0
 133.333007812 8.6669921875 111.25 12.1669921875 87.75 16.5 c 128
 64.25 20.8330078125 42.1669921875 26.6669921875 21.5 34 c 1
 56.5 211 l 1
 130 211 l 1
 127 100.5 l 1
 127 93.5 l 2
 127 92.1669921875 127.25 91.1669921875 127.75 90.5 c 128
 128.25 89.8330078125 129 89.25 130 88.75 c 128
 131 88.25 132.666992188 87.3330078125 135 86 c 0
 144.666992188 80.3330078125 155.416992188 76.0830078125 167.25 73.25 c 128
 179.083007812 70.4169921875 190.333007812 68.1669921875 201 66.5 c 0
 213 64.8330078125 225.166992188 63.8330078125 237.5 63.5 c 1
 281.5 289 l 1
 269.5 292.666992188 256.5 297 242.5 302 c 128
 228.5 307 214.666992188 313 201 320 c 128
 187.333007812 327 174.5 335.416992188 162.5 345.25 c 128
 150.5 355.083007812 140.416992188 366.75 132.25 380.25 c 128
 124.083007812 393.75 118.5 409.416992188 115.5 427.25 c 128
 112.5 445.083007812 113.333007812 465.5 118 488.5 c 1
 122.333007812 511.833007812 129.25 532.5 138.75 550.5 c 128
 148.25 568.5 159.083007812 584.333007812 171.25 598 c 128
 183.416992188 611.666992188 196.583007812 623.25 210.75 632.75 c 128
 224.916992188 642.25 239 650.166992188 253 656.5 c 0
 286 671.5 321.833007812 680.666992188 360.5 684 c 1
 376 760 l 1
 436 760 l 1
 421 684 l 1
 442 684 463.083007812 682.416992188 484.25 679.25 c 128
 505.416992188 676.083007812 524.666992188 672.666992188 542 669 c 0
 562 664.666992188 581.333007812 659.833007812 600 654.5 c 1
 566.5 483.5 l 1
410.5 173 m 0
 413.833007812 190 413.583007812 204.333007812 409.75 216 c 128
 405.916992188 227.666992188 400.166992188 237.333007812 392.5 245 c 128
 384.833007812 252.666992188 376.166992188 258.75 366.5 263.25 c 128
 356.833007812 267.75 348 271.166992188 340 273.5 c 1
 299 66.5 l 1
 316.333007812 68.8330078125 332.5 74.1669921875 347.5 82.5 c 0
 353.833007812 85.8330078125 360.25 90.1669921875 366.75 95.5 c 128
 373.25 100.833007812 379.333007812 107.083007812 385 114.25 c 128
 390.666992188 121.416992188 395.666992188 129.833007812 400 139.5 c 128
 404.333007812 149.166992188 407.833007812 160.333007812 410.5 173 c 0
347 618.5 m 1
 333 616.5 319.833007812 612 307.5 605 c 0
 296.833007812 598.666992188 286.5 589.333007812 276.5 577 c 128
 266.5 564.666992188 259.333007812 547.5 255 525.5 c 0
 253 515.166992188 252.166992188 505.75 252.5 497.25 c 128
 252.833007812 488.75 254.166992188 481.166992188 256.5 474.5 c 128
 258.833007812 467.833007812 261.666992188 462 265 457 c 128
 268.333007812 452 272 447.666992188 276 444 c 0
 285 435.333007812 296 429 309 425 c 1
 347 618.5 l 1
EndSplineSet
EndChar

StartChar: percent
Encoding: 37 37 6
Width: 921
VWidth: 1024
GlyphClass: 2
Flags: HW
LayerCount: 2
Back
Fore
SplineSet
327.5 582.5 m 0
 327.5 589.833007812 327 597.833007812 326 606.5 c 128
 325 615.166992188 323 623.083007812 320 630.25 c 128
 317 637.416992188 312.666992188 643.416992188 307 648.25 c 128
 301.333007812 653.083007812 293.833007812 655.5 284.5 655.5 c 0
 270.5 655.5 258 650.75 247 641.25 c 128
 236 631.75 226.25 619.416992188 217.75 604.25 c 128
 209.25 589.083007812 202.083007812 572.083007812 196.25 553.25 c 128
 190.416992188 534.416992188 185.583007812 515.75 181.75 497.25 c 128
 177.916992188 478.75 175.166992188 461.333007812 173.5 445 c 128
 171.833007812 428.666992188 171 415.5 171 405.5 c 0
 171 397.166992188 171.5 388.166992188 172.5 378.5 c 128
 173.5 368.833007812 175.75 359.833007812 179.25 351.5 c 128
 182.75 343.166992188 187.583007812 336.25 193.75 330.75 c 128
 199.916992188 325.25 208.333007812 322.5 219 322.5 c 0
 232 322.5 243.75 327.583007812 254.25 337.75 c 128
 264.75 347.916992188 274.083007812 361.083007812 282.25 377.25 c 128
 290.416992188 393.416992188 297.333007812 411.416992188 303 431.25 c 128
 308.666992188 451.083007812 313.333007812 470.583007812 317 489.75 c 128
 320.666992188 508.916992188 323.333007812 526.833007812 325 543.5 c 128
 326.666992188 560.166992188 327.5 573.166992188 327.5 582.5 c 0
774 292 m 0
 774 299 773.5 306.666992188 772.5 315 c 128
 771.5 323.333007812 769.5 331.083007812 766.5 338.25 c 128
 763.5 345.416992188 759.166992188 351.416992188 753.5 356.25 c 128
 747.833007812 361.083007812 740.333007812 363.5 731 363.5 c 0
 717 363.5 704.583007812 358.666992188 693.75 349 c 128
 682.916992188 339.333007812 673.333007812 326.916992188 665 311.75 c 128
 656.666992188 296.583007812 649.583007812 279.5 643.75 260.5 c 128
 637.916992188 241.5 633.083007812 222.666992188 629.25 204 c 128
 625.416992188 185.333007812 622.666992188 167.833007812 621 151.5 c 128
 619.333007812 135.166992188 618.5 121.833007812 618.5 111.5 c 0
 618.5 103.5 619 94.8330078125 620 85.5 c 128
 621 76.1669921875 623.166992188 67.5 626.5 59.5 c 128
 629.833007812 51.5 634.583007812 44.8330078125 640.75 39.5 c 128
 646.916992188 34.1669921875 655.166992188 31.5 665.5 31.5 c 0
 678.833007812 31.5 690.75 36.5830078125 701.25 46.75 c 128
 711.75 56.9169921875 721 70 729 86 c 128
 737 102 743.916992188 119.916992188 749.75 139.75 c 128
 755.583007812 159.583007812 760.25 179.166992188 763.75 198.5 c 128
 767.25 217.833007812 769.833007812 235.833007812 771.5 252.5 c 128
 773.166992188 269.166992188 774 282.333007812 774 292 c 0
434 559 m 0
 434 536.333007812 432 513.666992188 428 491 c 128
 424 468.333007812 417.916992188 446.416992188 409.75 425.25 c 128
 401.583007812 404.083007812 391.333007812 384.333007812 379 366 c 128
 366.666992188 347.666992188 352.25 331.75 335.75 318.25 c 128
 319.25 304.75 300.5 294.083007812 279.5 286.25 c 128
 258.5 278.416992188 235.333007812 274.5 210 274.5 c 0
 162.666992188 274.5 127.25 287.166992188 103.75 312.5 c 128
 80.25 337.833007812 68.5 373.666992188 68.5 420 c 0
 68.5 453.666992188 73.0830078125 487.416992188 82.25 521.25 c 128
 91.4169921875 555.083007812 105.333007812 585.5 124 612.5 c 128
 142.666992188 639.5 166.166992188 661.416992188 194.5 678.25 c 128
 222.833007812 695.083007812 256 703.5 294 703.5 c 0
 340.666992188 703.5 375.666992188 691.083007812 399 666.25 c 128
 422.333007812 641.416992188 434 605.666992188 434 559 c 0
231.5 0 m 1
 157.5 0 l 1
 719 687 l 1
 793.5 687 l 1
 231.5 0 l 1
881.5 267.5 m 0
 881.5 244.833007812 879.5 222.083007812 875.5 199.25 c 128
 871.5 176.416992188 865.416992188 154.416992188 857.25 133.25 c 128
 849.083007812 112.083007812 838.75 92.4169921875 826.25 74.25 c 128
 813.75 56.0830078125 799.166992188 40.25 782.5 26.75 c 128
 765.833007812 13.25 747 2.6669921875 726 -5 c 128
 705 -12.6669921875 681.833007812 -16.5 656.5 -16.5 c 0
 609.5 -16.5 574.5 -4.1669921875 551.5 20.5 c 128
 528.5 45.1669921875 517 80.6669921875 517 127 c 0
 517 149.333007812 519 171.916992188 523 194.75 c 128
 527 217.583007812 533 239.583007812 541 260.75 c 128
 549 281.916992188 559.166992188 301.666992188 571.5 320 c 128
 583.833007812 338.333007812 598.333007812 354.25 615 367.75 c 128
 631.666992188 381.25 650.5 391.916992188 671.5 399.75 c 128
 692.5 407.583007812 715.833007812 411.5 741.5 411.5 c 0
 788.166992188 411.5 823.166992188 399.083007812 846.5 374.25 c 128
 869.833007812 349.416992188 881.5 313.833007812 881.5 267.5 c 0
EndSplineSet
EndChar

StartChar: ampersand
Encoding: 38 38 7
Width: 763
VWidth: 1024
GlyphClass: 2
Flags: HW
LayerCount: 2
Back
Fore
SplineSet
231.5 316.5 m 1
 209.833007812 299.5 193 280.666992188 181 260 c 128
 169 239.333007812 163 216.166992188 163 190.5 c 0
 163 169.5 166.583007812 151.083007812 173.75 135.25 c 128
 180.916992188 119.416992188 189.833007812 106.166992188 200.5 95.5 c 128
 211.166992188 84.8330078125 222.583007812 76.8330078125 234.75 71.5 c 128
 246.916992188 66.1669921875 258.166992188 63.5 268.5 63.5 c 0
 279.166992188 63.5 289 64.5 298 66.5 c 128
 307 68.5 315.916992188 71.5 324.75 75.5 c 128
 333.583007812 79.5 342.833007812 84.6669921875 352.5 91 c 128
 362.166992188 97.3330078125 373 104.833007812 385 113.5 c 1
 231.5 316.5 l 1
418 554 m 0
 418 565 417.25 575.666992188 415.75 586 c 128
 414.25 596.333007812 411.416992188 605.5 407.25 613.5 c 128
 403.083007812 621.5 397.333007812 627.916992188 390 632.75 c 128
 382.666992188 637.583007812 373.166992188 640 361.5 640 c 0
 355.5 640 347.25 638.166992188 336.75 634.5 c 128
 326.25 630.833007812 315.916992188 624.833007812 305.75 616.5 c 128
 295.583007812 608.166992188 286.666992188 597.166992188 279 583.5 c 128
 271.333007812 569.833007812 267.5 553.166992188 267.5 533.5 c 0
 267.5 522.833007812 268.75 512.25 271.25 501.75 c 128
 273.75 491.25 277.083007812 481 281.25 471 c 128
 285.416992188 461 290.333007812 451.333007812 296 442 c 128
 301.666992188 432.666992188 307.5 423.833007812 313.5 415.5 c 1
 329.166992188 422.833007812 343.416992188 431.083007812 356.25 440.25 c 128
 369.083007812 449.416992188 380.083007812 459.583007812 389.25 470.75 c 128
 398.416992188 481.916992188 405.5 494.333007812 410.5 508 c 128
 415.5 521.666992188 418 537 418 554 c 0
654.5 312.5 m 1
 639.833007812 283.166992188 621.75 253 600.25 222 c 128
 578.75 191 555.166992188 162 529.5 135 c 1
 541.833007812 119 553.666992188 105.833007812 565 95.5 c 128
 576.333007812 85.1669921875 588.416992188 77 601.25 71 c 128
 614.083007812 65 628.083007812 60.9169921875 643.25 58.75 c 128
 658.416992188 56.5830078125 675.833007812 55.5 695.5 55.5 c 1
 695.5 2 l 1
 670.833007812 1 651.666992188 0 638 -1 c 128
 624.333007812 -2 612.666992188 -2.6669921875 603 -3 c 1
 577 -5 551.166992188 -4 525.5 0 c 1
 508.5 3.6669921875 492.916992188 9.6669921875 478.75 18 c 128
 464.583007812 26.3330078125 450 38.5 435 54.5 c 1
 421.666992188 45.5 407.416992188 37 392.25 29 c 128
 377.083007812 21 360.5 14 342.5 8 c 128
 324.5 2 305.083007812 -2.75 284.25 -6.25 c 128
 263.416992188 -9.75 240.666992188 -11.5 216 -11.5 c 0
 184 -11.5 155.416992188 -7.25 130.25 1.25 c 128
 105.083007812 9.75 83.75 21.5830078125 66.25 36.75 c 128
 48.75 51.9169921875 35.4169921875 70.0830078125 26.25 91.25 c 128
 17.0830078125 112.416992188 12.5 135.666992188 12.5 161 c 0
 12.5 186 17.0830078125 208.916992188 26.25 229.75 c 128
 35.4169921875 250.583007812 47.8330078125 269.833007812 63.5 287.5 c 128
 79.1669921875 305.166992188 97.6669921875 321.333007812 119 336 c 128
 140.333007812 350.666992188 163.166992188 364.333007812 187.5 377 c 1
 171.833007812 398 158.833007812 418.916992188 148.5 439.75 c 128
 138.166992188 460.583007812 133 483 133 507 c 0
 133 533.333007812 138.666992188 558.25 150 581.75 c 128
 161.333007812 605.25 177.75 625.75 199.25 643.25 c 128
 220.75 660.75 246.833007812 674.666992188 277.5 685 c 128
 308.166992188 695.333007812 343 700.5 382 700.5 c 0
 411 700.5 436.583007812 696.583007812 458.75 688.75 c 128
 480.916992188 680.916992188 499.416992188 670.5 514.25 657.5 c 128
 529.083007812 644.5 540.25 629.666992188 547.75 613 c 128
 555.25 596.333007812 559 579.333007812 559 562 c 0
 559 538 554 516.25 544 496.75 c 128
 534 477.25 519.916992188 459.5 501.75 443.5 c 128
 483.583007812 427.5 461.916992188 413.083007812 436.75 400.25 c 128
 411.583007812 387.416992188 383.833007812 375.833007812 353.5 365.5 c 1
 476 207 l 1
 488.333007812 223 499.333007812 239.333007812 509 256 c 128
 518.666992188 272.666992188 526.833007812 287.666992188 533.5 301 c 0
 534.166992188 302 534.166992188 303.833007812 533.5 306.5 c 128
 532.833007812 309.166992188 532.166992188 310.5 531.5 310.5 c 2
 471 320.5 l 1
 471 376 l 1
 730 376 l 1
 730 320.5 l 1
 654.5 312.5 l 1
EndSplineSet
EndChar

StartChar: quotesingle
Encoding: 39 39 8
Width: 179
VWidth: 1024
GlyphClass: 2
Flags: HW
LayerCount: 2
Back
Fore
SplineSet
230.5 685 m 0
 230.5 679.666992188 228.666992188 670.583007812 225 657.75 c 128
 221.333007812 644.916992188 216.583007812 630.083007812 210.75 613.25 c 128
 204.916992188 596.416992188 198.416992188 578.583007812 191.25 559.75 c 128
 184.083007812 540.916992188 177.166992188 522.916992188 170.5 505.75 c 128
 163.833007812 488.583007812 157.75 473 152.25 459 c 128
 146.75 445 142.833007812 434.333007812 140.5 427 c 1
 102.5 427 l 1
 109.5 666.5 l 2
 109.833007812 675.833007812 112.166992188 684.416992188 116.5 692.25 c 128
 120.833007812 700.083007812 126.333007812 706.833007812 133 712.5 c 128
 139.666992188 718.166992188 147.166992188 722.666992188 155.5 726 c 128
 163.833007812 729.333007812 172.333007812 731 181 731 c 0
 196 731 208 727.333007812 217 720 c 128
 226 712.666992188 230.5 701 230.5 685 c 0
EndSplineSet
EndChar

StartChar: asterisk
Encoding: 42 42 9
Width: 512
VWidth: 1024
GlyphClass: 2
Flags: HW
LayerCount: 2
Back
Fore
SplineSet
274.5 366.5 m 1
 195.5 346 l 1
 192.5 426 l 1
 302 506 l 1
 315.5 493.5 l 1
 274.5 366.5 l 1
297 519 m 1
 164 518 l 1
 120 584.5 l 1
 192.5 614.5 l 1
 302 533.5 l 1
 297 519 l 1
446.5 346 m 1
 367.5 366.5 l 1
 326.5 493.5 l 1
 340 506 l 1
 448.5 426 l 1
 446.5 346 l 1
328.5 546 m 1
 312.5 546 l 1
 270.5 674 l 1
 320.5 735 l 1
 371.5 674 l 1
 328.5 546 l 1
477 518 m 1
 345 519 l 1
 339 534.5 l 1
 447.5 614.5 l 1
 522 584.5 l 1
 477 518 l 1
EndSplineSet
EndChar

StartChar: plus
Encoding: 43 43 10
Width: 1024
VWidth: 1024
GlyphClass: 2
Flags: HW
LayerCount: 2
Back
Fore
SplineSet
543.5 275.5 m 1
 543.5 0 l 1
 480.5 0 l 1
 480.5 275.5 l 1
 205 275.5 l 1
 205 339 l 1
 480.5 339 l 1
 480.5 614.5 l 1
 543.5 614.5 l 1
 543.5 339 l 1
 819 339 l 1
 819 275.5 l 1
 543.5 275.5 l 1
EndSplineSet
EndChar

StartChar: less
Encoding: 60 60 11
Width: 1024
VWidth: 1024
GlyphClass: 2
Flags: HW
LayerCount: 2
Back
Fore
SplineSet
205 275.5 m 1
 205 339 l 1
 819 574.5 l 1
 819 511 l 1
 270.5 307 l 1
 819 103.5 l 1
 819 40 l 1
 205 275.5 l 1
EndSplineSet
EndChar

StartChar: equal
Encoding: 61 61 12
Width: 1024
VWidth: 1024
GlyphClass: 2
Flags: HW
LayerCount: 2
Back
Fore
SplineSet
205 182.5 m 1
 205 246 l 1
 819 246 l 1
 819 182.5 l 1
 205 182.5 l 1
205 368.5 m 1
 205 432 l 1
 819 432 l 1
 819 368.5 l 1
 205 368.5 l 1
EndSplineSet
EndChar

StartChar: greater
Encoding: 62 62 13
Width: 1024
VWidth: 1024
GlyphClass: 2
Flags: HW
LayerCount: 2
Back
Fore
SplineSet
205 40 m 1
 205 103.5 l 1
 753.5 307 l 1
 205 511 l 1
 205 574.5 l 1
 819 339 l 1
 819 275.5 l 1
 205 40 l 1
EndSplineSet
EndChar

StartChar: at
Encoding: 64 64 14
Width: 958
VWidth: 1024
GlyphClass: 2
Flags: HW
LayerCount: 2
Back
Fore
SplineSet
899 377 m 0
 899 343 895.25 311.416992188 887.75 282.25 c 128
 880.25 253.083007812 870.083007812 226.416992188 857.25 202.25 c 128
 844.416992188 178.083007812 829.416992188 156.583007812 812.25 137.75 c 128
 795.083007812 118.916992188 776.666992188 103.083007812 757 90.25 c 128
 737.333007812 77.4169921875 717.083007812 67.6669921875 696.25 61 c 128
 675.416992188 54.3330078125 655 51 635 51 c 0
 619.333007812 51 606.25 53 595.75 57 c 128
 585.25 61 576.583007812 66.25 569.75 72.75 c 128
 562.916992188 79.25 557.75 86.8330078125 554.25 95.5 c 128
 550.75 104.166992188 548.333007812 113.333007812 547 123 c 1
 536.333007812 114 525.5 105.25 514.5 96.75 c 128
 503.5 88.25 492.166992188 80.6669921875 480.5 74 c 128
 468.833007812 67.3330078125 456.833007812 62 444.5 58 c 128
 432.166992188 54 419.5 52 406.5 52 c 0
 383.166992188 52 362.666992188 56.25 345 64.75 c 128
 327.333007812 73.25 312.5 85.0830078125 300.5 100.25 c 128
 288.5 115.416992188 279.416992188 133.333007812 273.25 154 c 128
 267.083007812 174.666992188 264 197.333007812 264 222 c 0
 264 260.333007812 271.083007812 296.416992188 285.25 330.25 c 128
 299.416992188 364.083007812 318.666992188 393.75 343 419.25 c 128
 367.333007812 444.75 395.916992188 464.916992188 428.75 479.75 c 128
 461.583007812 494.583007812 496.5 502 533.5 502 c 0
 541.5 502 549.583007812 501 557.75 499 c 128
 565.916992188 497 574 494.416992188 582 491.25 c 128
 590 488.083007812 597.75 484.666992188 605.25 481 c 128
 612.75 477.333007812 619.833007812 474 626.5 471 c 1
 640 496.5 l 1
 726 496.5 l 1
 721 477.5 l 2
 718.666992188 467.5 715.75 455.166992188 712.25 440.5 c 128
 708.75 425.833007812 704.916992188 409.5 700.75 391.5 c 128
 696.583007812 373.5 692.333007812 355.333007812 688 337 c 0
 678 294 666.833007812 245.833007812 654.5 192.5 c 0
 651.833007812 181.166992188 649.833007812 170.833007812 648.5 161.5 c 128
 647.166992188 152.166992188 647.166992188 144.166992188 648.5 137.5 c 128
 649.833007812 130.833007812 652.75 125.666992188 657.25 122 c 128
 661.75 118.333007812 668.666992188 116.5 678 116.5 c 0
 684.666992188 116.5 692.916992188 119.083007812 702.75 124.25 c 128
 712.583007812 129.416992188 722.75 137 733.25 147 c 128
 743.75 157 754.166992188 169.416992188 764.5 184.25 c 128
 774.833007812 199.083007812 784.083007812 216.083007812 792.25 235.25 c 128
 800.416992188 254.416992188 807.083007812 275.75 812.25 299.25 c 128
 817.416992188 322.75 820 348.333007812 820 376 c 0
 820 408.333007812 816.166992188 437.583007812 808.5 463.75 c 128
 800.833007812 489.916992188 790.5 513.166992188 777.5 533.5 c 128
 764.5 553.833007812 749.083007812 571.416992188 731.25 586.25 c 128
 713.416992188 601.083007812 694.5 613.333007812 674.5 623 c 128
 654.5 632.666992188 633.666992188 639.833007812 612 644.5 c 128
 590.333007812 649.166992188 569 651.5 548 651.5 c 0
 512 651.5 477.583007812 647.083007812 444.75 638.25 c 128
 411.916992188 629.416992188 381.25 616.916992188 352.75 600.75 c 128
 324.25 584.583007812 298.333007812 564.833007812 275 541.5 c 128
 251.666992188 518.166992188 231.666992188 491.916992188 215 462.75 c 128
 198.333007812 433.583007812 185.5 401.916992188 176.5 367.75 c 128
 167.5 333.583007812 163 297.333007812 163 259 c 0
 163 206.333007812 171.166992188 157.916992188 187.5 113.75 c 128
 203.833007812 69.5830078125 227 31.3330078125 257 -1 c 128
 287 -33.3330078125 323.166992188 -58.5 365.5 -76.5 c 128
 407.833007812 -94.5 455 -103.5 507 -103.5 c 0
 534 -103.5 559.666992188 -101.25 584 -96.75 c 128
 608.333007812 -92.25 631.833007812 -86.1669921875 654.5 -78.5 c 128
 677.166992188 -70.8330078125 699.416992188 -61.75 721.25 -51.25 c 128
 743.083007812 -40.75 764.833007812 -29.5 786.5 -17.5 c 1
 808 -68.5 l 1
 785 -80.5 761.166992188 -92.0830078125 736.5 -103.25 c 128
 711.833007812 -114.416992188 686.166992188 -124.25 659.5 -132.75 c 128
 632.833007812 -141.25 604.75 -148.083007812 575.25 -153.25 c 128
 545.75 -158.416992188 514.833007812 -161 482.5 -161 c 0
 442.5 -161 404.333007812 -156.75 368 -148.25 c 128
 331.666992188 -139.75 297.833007812 -127.333007812 266.5 -111 c 128
 235.166992188 -94.6669921875 206.75 -74.8330078125 181.25 -51.5 c 128
 155.75 -28.1669921875 134 -1.5830078125 116 28.25 c 128
 98 58.0830078125 84.0830078125 90.75 74.25 126.25 c 128
 64.4169921875 161.75 59.5 199.833007812 59.5 240.5 c 0
 59.5 290.166992188 65.5 336.166992188 77.5 378.5 c 128
 89.5 420.833007812 106.25 459.166992188 127.75 493.5 c 128
 149.25 527.833007812 174.833007812 558.083007812 204.5 584.25 c 128
 234.166992188 610.416992188 266.583007812 632.333007812 301.75 650 c 128
 336.916992188 667.666992188 374.25 681 413.75 690 c 128
 453.25 699 493.5 703.5 534.5 703.5 c 0
 589.833007812 703.5 640 696.166992188 685 681.5 c 128
 730 666.833007812 768.333007812 645.583007812 800 617.75 c 128
 831.666992188 589.916992188 856.083007812 555.75 873.25 515.25 c 128
 890.416992188 474.75 899 428.666992188 899 377 c 0
583.5 397.5 m 2
 584.5 401.5 584.25 406.583007812 582.75 412.75 c 128
 581.25 418.916992188 578.666992188 424.833007812 575 430.5 c 128
 571.333007812 436.166992188 566.333007812 441.083007812 560 445.25 c 128
 553.666992188 449.416992188 546.166992188 451.5 537.5 451.5 c 0
 516.833007812 451.5 497.416992188 446 479.25 435 c 128
 461.083007812 424 445.166992188 408.75 431.5 389.25 c 128
 417.833007812 369.75 407 346.5 399 319.5 c 128
 391 292.5 387 263.166992188 387 231.5 c 0
 387 212.166992188 388.916992188 195.75 392.75 182.25 c 128
 396.583007812 168.75 401.666992188 157.75 408 149.25 c 128
 414.333007812 140.75 421.333007812 134.583007812 429 130.75 c 128
 436.666992188 126.916992188 444.5 125 452.5 125 c 0
 463.5 125 473.416992188 127.083007812 482.25 131.25 c 128
 491.083007812 135.416992188 499.083007812 140.666992188 506.25 147 c 128
 513.416992188 153.333007812 520 160.166992188 526 167.5 c 128
 532 174.833007812 537.5 181.5 542.5 187.5 c 1
 583.5 397.5 l 2
EndSplineSet
EndChar

StartChar: A
Encoding: 65 65 15
Width: 732
VWidth: 1024
GlyphClass: 2
Flags: HW
LayerCount: 2
Back
Fore
SplineSet
392 516 m 1
 277.5 317.5 l 1
 426 317.5 l 1
 392 516 l 1
400.5 0 m 1
 400.5 51 l 1
 405.833007812 51.6669921875 411.25 52.25 416.75 52.75 c 128
 422.25 53.25 427.333007812 53.8330078125 432 54.5 c 0
 437.333007812 55.1669921875 442.5 55.8330078125 447.5 56.5 c 0
 454.166992188 57.1669921875 459.333007812 58.3330078125 463 60 c 128
 466.666992188 61.6669921875 468 65.5 467 71.5 c 2
 437 259 l 1
 243.5 259 l 1
 142.5 71.5 l 1
 139.166992188 66.5 138.833007812 62.9169921875 141.5 60.75 c 128
 144.166992188 58.5830078125 148.833007812 57.1669921875 155.5 56.5 c 0
 160.833007812 55.8330078125 166.5 55.1669921875 172.5 54.5 c 0
 177.5 53.8330078125 183.166992188 53.25 189.5 52.75 c 128
 195.833007812 52.25 202.333007812 51.6669921875 209 51 c 1
 209 0 l 1
 -54.5 0 l 1
 -54.5 51 l 1
 5 57.5 l 1
 384 703.5 l 1
 505 703.5 l 1
 616.5 72.5 l 2
 617.5 65.8330078125 619.25 61.5830078125 621.75 59.75 c 128
 624.25 57.9169921875 629.333007812 56.5 637 55.5 c 0
 641.666992188 55.1669921875 646.666992188 54.6669921875 652 54 c 0
 656.666992188 53.3330078125 661.75 52.8330078125 667.25 52.5 c 128
 672.75 52.1669921875 678.333007812 51.6669921875 684 51 c 1
 684 0 l 1
 400.5 0 l 1
EndSplineSet
EndChar

StartChar: B
Encoding: 66 66 16
Width: 664
VWidth: 1024
GlyphClass: 2
Flags: HW
LayerCount: 2
Back
Fore
SplineSet
631 553 m 0
 631 528 626.833007812 505.833007812 618.5 486.5 c 128
 610.166992188 467.166992188 598.75 450 584.25 435 c 128
 569.75 420 552.666992188 406.916992188 533 395.75 c 128
 513.333007812 384.583007812 492 374.833007812 469 366.5 c 1
 491.333007812 362.5 511.25 357 528.75 350 c 128
 546.25 343 561.083007812 334.083007812 573.25 323.25 c 128
 585.416992188 312.416992188 594.666992188 299.5 601 284.5 c 128
 607.333007812 269.5 610.5 251.833007812 610.5 231.5 c 0
 610.5 190.833007812 602.833007812 155.833007812 587.5 126.5 c 128
 572.166992188 97.1669921875 550.416992188 73.1669921875 522.25 54.5 c 128
 494.083007812 35.8330078125 460.083007812 22.0830078125 420.25 13.25 c 128
 380.416992188 4.4169921875 335.833007812 0 286.5 0 c 2
 -15.5 0 l 1
 -15.5 51 l 1
 -7.1669921875 51.6669921875 0.8330078125 52.3330078125 8.5 53 c 128
 16.1669921875 53.6669921875 23 54.3330078125 29 55 c 0
 36 55.6669921875 42.6669921875 56.1669921875 49 56.5 c 0
 54.6669921875 56.5 59.0830078125 57.4169921875 62.25 59.25 c 128
 65.4169921875 61.0830078125 67.5 65.5 68.5 72.5 c 1
 175 615.5 l 2
 176 621.166992188 175.083007812 625 172.25 627 c 128
 169.416992188 629 164.833007812 630.333007812 158.5 631 c 0
 152.5 631.333007812 146.166992188 631.833007812 139.5 632.5 c 0
 133.833007812 633.166992188 127.333007812 633.75 120 634.25 c 128
 112.666992188 634.75 105.166992188 635.333007812 97.5 636 c 1
 97.5 687 l 1
 406.5 687 l 2
 449.833007812 687 485.916992188 683.5 514.75 676.5 c 128
 543.583007812 669.5 566.666992188 660 584 648 c 128
 601.333007812 636 613.5 621.833007812 620.5 605.5 c 128
 627.5 589.166992188 631 571.666992188 631 553 c 0
455.5 221 m 0
 455.5 242 451.833007812 259.333007812 444.5 273 c 128
 437.166992188 286.666992188 427.25 297.583007812 414.75 305.75 c 128
 402.25 313.916992188 387.916992188 319.583007812 371.75 322.75 c 128
 355.583007812 325.916992188 338.5 327.5 320.5 327.5 c 0
 302.166992188 327.5 283.333007812 326.5 264 324.5 c 1
 212 57.5 l 1
 219.333007812 56.8330078125 226.666992188 56.5 234 56.5 c 2
 253 56.5 l 2
 283.333007812 56.5 310.916992188 59.9169921875 335.75 66.75 c 128
 360.583007812 73.5830078125 381.833007812 83.9169921875 399.5 97.75 c 128
 417.166992188 111.583007812 430.916992188 128.75 440.75 149.25 c 128
 450.583007812 169.75 455.5 193.666992188 455.5 221 c 0
474 546 m 0
 474 562.333007812 470.75 576.083007812 464.25 587.25 c 128
 457.75 598.416992188 449.083007812 607.333007812 438.25 614 c 128
 427.416992188 620.666992188 414.916992188 625.5 400.75 628.5 c 128
 386.583007812 631.5 371.833007812 633 356.5 633 c 0
 350.833007812 633 345.25 632.833007812 339.75 632.5 c 128
 334.25 632.166992188 329.166992188 632 324.5 632 c 1
 276.5 384 l 1
 282.166992188 383.333007812 287.333007812 383 292 383 c 2
 302 383 l 2
 327.333007812 383 350.583007812 387.083007812 371.75 395.25 c 128
 392.916992188 403.416992188 411.083007812 414.75 426.25 429.25 c 128
 441.416992188 443.75 453.166992188 460.916992188 461.5 480.75 c 128
 469.833007812 500.583007812 474 522.333007812 474 546 c 0
EndSplineSet
EndChar

StartChar: C
Encoding: 67 67 17
Width: 688
VWidth: 1024
GlyphClass: 2
Flags: HW
LayerCount: 2
Back
Fore
SplineSet
671.5 480.5 m 1
 596 480.5 l 1
 597 595 l 1
 597.666992188 599 596.583007812 603.5 593.75 608.5 c 128
 590.916992188 613.5 586.833007812 616.833007812 581.5 618.5 c 1
 578.833007812 619.833007812 573.833007812 621.833007812 566.5 624.5 c 128
 559.166992188 627.166992188 550.916992188 629.666992188 541.75 632 c 128
 532.583007812 634.333007812 523.166992188 636.416992188 513.5 638.25 c 128
 503.833007812 640.083007812 495.166992188 641 487.5 641 c 0
 465.833007812 641 443.666992188 637.166992188 421 629.5 c 128
 398.333007812 621.833007812 376.416992188 610.583007812 355.25 595.75 c 128
 334.083007812 580.916992188 314.083007812 562.666992188 295.25 541 c 128
 276.416992188 519.333007812 260 494.5 246 466.5 c 128
 232 438.5 220.916992188 407.5 212.75 373.5 c 128
 204.583007812 339.5 200.5 302.666992188 200.5 263 c 0
 200.5 224 206.166992188 190.833007812 217.5 163.5 c 128
 228.833007812 136.166992188 243.583007812 113.75 261.75 96.25 c 128
 279.916992188 78.75 300.166992188 66 322.5 58 c 128
 344.833007812 50 367 46 389 46 c 0
 396.333007812 46 404.333007812 46.5 413 47.5 c 128
 421.666992188 48.5 430 49.8330078125 438 51.5 c 128
 446 53.1669921875 453.25 54.8330078125 459.75 56.5 c 128
 466.25 58.1669921875 471 59.8330078125 474 61.5 c 1
 479.333007812 62.1669921875 483.333007812 64.1669921875 486 67.5 c 128
 488.666992188 70.8330078125 490.833007812 74.3330078125 492.5 78 c 2
 541.5 213 l 1
 618.5 213 l 1
 587 27.5 l 1
 574 22.8330078125 559.083007812 17.9169921875 542.25 12.75 c 128
 525.416992188 7.5830078125 507.166992188 2.8330078125 487.5 -1.5 c 128
 467.833007812 -5.8330078125 446.916992188 -9.4169921875 424.75 -12.25 c 128
 402.583007812 -15.0830078125 379.5 -16.5 355.5 -16.5 c 0
 317.166992188 -16.5 282.916992188 -12.5830078125 252.75 -4.75 c 128
 222.583007812 3.0830078125 196.166992188 13.9169921875 173.5 27.75 c 128
 150.833007812 41.5830078125 131.583007812 57.8330078125 115.75 76.5 c 128
 99.9169921875 95.1669921875 87.0830078125 115.333007812 77.25 137 c 128
 67.4169921875 158.666992188 60.25 181.166992188 55.75 204.5 c 128
 51.25 227.833007812 49 251.166992188 49 274.5 c 0
 49 309.5 53.4169921875 344.5 62.25 379.5 c 128
 71.0830078125 414.5 84 447.833007812 101 479.5 c 128
 118 511.166992188 139 540.666992188 164 568 c 128
 189 595.333007812 217.5 619.083007812 249.5 639.25 c 128
 281.5 659.416992188 317 675.166992188 356 686.5 c 128
 395 697.833007812 437.166992188 703.5 482.5 703.5 c 0
 502.166992188 703.5 520.916992188 702.416992188 538.75 700.25 c 128
 556.583007812 698.083007812 574.333007812 695.166992188 592 691.5 c 128
 609.666992188 687.833007812 627.583007812 683.333007812 645.75 678 c 128
 663.916992188 672.666992188 683.166992188 666.833007812 703.5 660.5 c 1
 671.5 480.5 l 1
EndSplineSet
EndChar

StartChar: D
Encoding: 68 68 18
Width: 730
VWidth: 1024
GlyphClass: 2
Flags: HW
LayerCount: 2
Back
Fore
SplineSet
558 433 m 0
 558 461 555 485.166992188 549 505.5 c 128
 543 525.833007812 534.833007812 543.083007812 524.5 557.25 c 128
 514.166992188 571.416992188 501.916992188 582.833007812 487.75 591.5 c 128
 473.583007812 600.166992188 458.333007812 606.916992188 442 611.75 c 128
 425.666992188 616.583007812 408.666992188 619.916992188 391 621.75 c 128
 373.333007812 623.583007812 355.666992188 624.833007812 338 625.5 c 1
 323.5 625.5 l 1
 213 63.5 l 1
 265 63.5 l 1
 295 63.8330078125 323.083007812 68.6669921875 349.25 78 c 128
 375.416992188 87.3330078125 399.333007812 100.25 421 116.75 c 128
 442.666992188 133.25 462 152.916992188 479 175.75 c 128
 496 198.583007812 510.333007812 223.583007812 522 250.75 c 128
 533.666992188 277.916992188 542.583007812 306.916992188 548.75 337.75 c 128
 554.916992188 368.583007812 558 400.333007812 558 433 c 0
711.5 424 m 0
 711.5 363 700.833007812 306.583007812 679.5 254.75 c 128
 658.166992188 202.916992188 627.5 158.166992188 587.5 120.5 c 128
 547.5 82.8330078125 498.75 53.3330078125 441.25 32 c 128
 383.75 10.6669921875 319 0 247 0 c 2
 -15.5 0 l 1
 -15.5 51 l 1
 -7.8330078125 51.6669921875 -0.3330078125 52.3330078125 7 53 c 128
 14.3330078125 53.6669921875 20.8330078125 54.1669921875 26.5 54.5 c 0
 33.1669921875 54.8330078125 39.6669921875 55.1669921875 46 55.5 c 0
 54.3330078125 56.1669921875 59.75 57.4169921875 62.25 59.25 c 128
 64.75 61.0830078125 66.8330078125 65.5 68.5 72.5 c 2
 175 615.5 l 2
 176 621.5 174.75 625.416992188 171.25 627.25 c 128
 167.75 629.083007812 162.833007812 630.333007812 156.5 631 c 0
 150.166992188 631.333007812 143.833007812 631.833007812 137.5 632.5 c 0
 131.833007812 633.166992188 125.5 633.75 118.5 634.25 c 128
 111.5 634.75 104.5 635.333007812 97.5 636 c 1
 97.5 687 l 1
 363.5 687 l 2
 416.5 687 464.416992188 682.166992188 507.25 672.5 c 128
 550.083007812 662.833007812 586.666992188 647.416992188 617 626.25 c 128
 647.333007812 605.083007812 670.666992188 577.833007812 687 544.5 c 128
 703.333007812 511.166992188 711.5 471 711.5 424 c 0
EndSplineSet
EndChar

StartChar: E
Encoding: 69 69 19
Width: 614
VWidth: 1024
GlyphClass: 2
Flags: HW
LayerCount: 2
Back
Fore
SplineSet
605 525.5 m 1
 523.5 525.5 l 1
 523.5 612.5 l 2
 523.5 617.5 520.916992188 620.916992188 515.75 622.75 c 128
 510.583007812 624.583007812 505.166992188 625.5 499.5 625.5 c 2
 323.5 625.5 l 1
 277.5 388 l 1
 393 388 l 2
 398.333007812 388 404.083007812 389.25 410.25 391.75 c 128
 416.416992188 394.25 420.333007812 398.166992188 422 403.5 c 2
 443.5 475 l 1
 518 475 l 1
 471 234.5 l 1
 395.5 234.5 l 1
 405.5 311.5 l 2
 405.833007812 313.5 405.333007812 315.333007812 404 317 c 128
 402.666992188 318.666992188 400.833007812 320.166992188 398.5 321.5 c 128
 396.166992188 322.833007812 393.583007812 323.833007812 390.75 324.5 c 128
 387.916992188 325.166992188 385.333007812 325.5 383 325.5 c 2
 265 325.5 l 1
 214 61.5 l 1
 432 61.5 l 2
 437.333007812 61.5 443.083007812 62.8330078125 449.25 65.5 c 128
 455.416992188 68.1669921875 459.333007812 71.6669921875 461 76 c 2
 493.5 178 l 1
 574.5 178 l 1
 538.5 0 l 1
 -15.5 0 l 1
 -15.5 51 l 1
 -7.8330078125 51.6669921875 -0.25 52.3330078125 7.25 53 c 128
 14.75 53.6669921875 21.3330078125 54.3330078125 27 55 c 0
 33.6669921875 55.6669921875 40 56.1669921875 46 56.5 c 0
 53.6669921875 57.1669921875 59.0830078125 58.3330078125 62.25 60 c 128
 65.4169921875 61.6669921875 67.5 65.8330078125 68.5 72.5 c 2
 175 615.5 l 1
 176.666992188 621.5 175.666992188 625.416992188 172 627.25 c 128
 168.333007812 629.083007812 163.166992188 630.333007812 156.5 631 c 0
 150.5 631.333007812 144.333007812 631.833007812 138 632.5 c 0
 132.333007812 633.166992188 126 633.75 119 634.25 c 128
 112 634.75 105.166992188 635.333007812 98.5 636 c 1
 98.5 687 l 1
 638 687 l 1
 605 525.5 l 1
EndSplineSet
EndChar

StartChar: F
Encoding: 70 70 20
Width: 569
VWidth: 1024
GlyphClass: 2
Flags: HW
LayerCount: 2
Back
Fore
SplineSet
593 514 m 1
 510 514 l 1
 510 612.5 l 2
 510 617.5 507.5 620.916992188 502.5 622.75 c 128
 497.5 624.583007812 492.166992188 625.5 486.5 625.5 c 2
 323.5 625.5 l 1
 275.5 378 l 1
 384 378 l 2
 389 378 394.583007812 379.083007812 400.75 381.25 c 128
 406.916992188 383.416992188 410.833007812 387 412.5 392 c 2
 433 466 l 1
 509 466 l 1
 462 224.5 l 1
 385 224.5 l 1
 396.5 301 l 1
 396.833007812 305.666992188 394.25 309.25 388.75 311.75 c 128
 383.25 314.25 377.833007812 315.5 372.5 315.5 c 2
 263 315.5 l 1
 215 71.5 l 2
 214 65.5 215.333007812 61.6669921875 219 60 c 128
 222.666992188 58.3330078125 227.833007812 57.1669921875 234.5 56.5 c 0
 240.833007812 56.1669921875 247.666992188 55.6669921875 255 55 c 0
 261.333007812 54.3330078125 268.416992188 53.6669921875 276.25 53 c 128
 284.083007812 52.3330078125 292.333007812 51.6669921875 301 51 c 1
 301 0 l 1
 -15.5 0 l 1
 -15.5 51 l 1
 -8.5 51.6669921875 -1.5830078125 52.3330078125 5.25 53 c 128
 12.0830078125 53.6669921875 18.3330078125 54.3330078125 24 55 c 0
 30.3330078125 55.6669921875 36.6669921875 56.1669921875 43 56.5 c 0
 50.6669921875 57.1669921875 56.4169921875 58.3330078125 60.25 60 c 128
 64.0830078125 61.6669921875 66.8330078125 65.8330078125 68.5 72.5 c 1
 175 615.5 l 2
 176 621.5 174.666992188 625.416992188 171 627.25 c 128
 167.333007812 629.083007812 162.166992188 630.333007812 155.5 631 c 0
 149.5 631.333007812 143.333007812 631.833007812 137 632.5 c 0
 131.333007812 633.166992188 125 633.75 118 634.25 c 128
 111 634.75 104.166992188 635.333007812 97.5 636 c 1
 97.5 687 l 1
 626.5 687 l 1
 593 514 l 1
EndSplineSet
EndChar

StartChar: G
Encoding: 71 71 21
Width: 747
VWidth: 1024
GlyphClass: 2
Flags: HW
LayerCount: 2
Back
Fore
SplineSet
664.5 280.5 m 2
 659.833007812 279.833007812 656.583007812 278.25 654.75 275.75 c 128
 652.916992188 273.25 651.333007812 269.666992188 650 265 c 1
 603 26.5 l 1
 588.666992188 22.5 572.166992188 18 553.5 13 c 128
 534.833007812 8 514.833007812 3.3330078125 493.5 -1 c 128
 472.166992188 -5.3330078125 450.25 -9 427.75 -12 c 128
 405.25 -15 383.166992188 -16.5 361.5 -16.5 c 0
 317.833007812 -16.5 279.833007812 -11.8330078125 247.5 -2.5 c 128
 215.166992188 6.8330078125 187.5 19.3330078125 164.5 35 c 128
 141.5 50.6669921875 122.5 68.5830078125 107.5 88.75 c 128
 92.5 108.916992188 80.6669921875 129.833007812 72 151.5 c 128
 63.3330078125 173.166992188 57.3330078125 194.75 54 216.25 c 128
 50.6669921875 237.75 49 257.5 49 275.5 c 0
 49 317.833007812 54.75 357.833007812 66.25 395.5 c 128
 77.75 433.166992188 93.75 467.916992188 114.25 499.75 c 128
 134.75 531.583007812 159.25 560.083007812 187.75 585.25 c 128
 216.25 610.416992188 247.666992188 631.75 282 649.25 c 128
 316.333007812 666.75 353 680.166992188 392 689.5 c 128
 431 698.833007812 471 703.5 512 703.5 c 0
 531.333007812 703.5 549.416992188 702.75 566.25 701.25 c 128
 583.083007812 699.75 599.75 697.416992188 616.25 694.25 c 128
 632.75 691.083007812 649.666992188 687.083007812 667 682.25 c 128
 684.333007812 677.416992188 703.333007812 671.833007812 724 665.5 c 1
 686 479 l 1
 599 479 l 1
 608.5 595 l 2
 609.166992188 601 606.583007812 605.75 600.75 609.25 c 128
 594.916992188 612.75 588.5 615.833007812 581.5 618.5 c 0
 578.166992188 619.5 573.583007812 621.083007812 567.75 623.25 c 128
 561.916992188 625.416992188 555.25 627.583007812 547.75 629.75 c 128
 540.25 631.916992188 532.333007812 633.833007812 524 635.5 c 128
 515.666992188 637.166992188 507.5 638 499.5 638 c 0
 478.5 638 456.666992188 634.166992188 434 626.5 c 128
 411.333007812 618.833007812 389.083007812 607.583007812 367.25 592.75 c 128
 345.416992188 577.916992188 324.666992188 559.583007812 305 537.75 c 128
 285.333007812 515.916992188 268.083007812 491 253.25 463 c 128
 238.416992188 435 226.666992188 404 218 370 c 128
 209.333007812 336 205 299.333007812 205 260 c 0
 205 232.333007812 208.25 207.916992188 214.75 186.75 c 128
 221.25 165.583007812 229.75 147.083007812 240.25 131.25 c 128
 250.75 115.416992188 262.583007812 102.25 275.75 91.75 c 128
 288.916992188 81.25 302.083007812 72.75 315.25 66.25 c 128
 328.416992188 59.75 340.833007812 55.0830078125 352.5 52.25 c 128
 364.166992188 49.4169921875 374 48 382 48 c 0
 388.666992188 48 395.833007812 48.5 403.5 49.5 c 128
 411.166992188 50.5 418.666992188 51.75 426 53.25 c 128
 433.333007812 54.75 440.333007812 56.3330078125 447 58 c 128
 453.666992188 59.6669921875 459.333007812 61.1669921875 464 62.5 c 1
 504 265 l 2
 505 271.333007812 504 275.5 501 277.5 c 128
 498 279.5 492.5 280.833007812 484.5 281.5 c 1
 478.5 281.5 472.333007812 281.833007812 466 282.5 c 0
 460.333007812 282.833007812 454.083007812 283.25 447.25 283.75 c 128
 440.416992188 284.25 433.666992188 284.833007812 427 285.5 c 1
 427 338 l 1
 734 338 l 1
 734 285.5 l 1
 664.5 280.5 l 2
EndSplineSet
EndChar

StartChar: H
Encoding: 72 72 22
Width: 785
VWidth: 1024
GlyphClass: 2
Flags: HW
LayerCount: 2
Back
Fore
SplineSet
763 630 m 2
 756.666992188 629.333007812 752.25 627.75 749.75 625.25 c 128
 747.25 622.75 745.5 619.166992188 744.5 614.5 c 2
 638 71.5 l 2
 637 65.8330078125 638 62.0830078125 641 60.25 c 128
 644 58.4169921875 648.833007812 57.1669921875 655.5 56.5 c 0
 661.5 56.1669921875 667.833007812 55.6669921875 674.5 55 c 0
 680.166992188 54.3330078125 686.583007812 53.6669921875 693.75 53 c 128
 700.916992188 52.3330078125 708.333007812 51.6669921875 716 51 c 1
 716 0 l 1
 405.5 0 l 1
 405.5 51 l 1
 428.5 53 l 2
 436.166992188 53.6669921875 443 54.3330078125 449 55 c 0
 456 55.6669921875 462.666992188 56.1669921875 469 56.5 c 0
 475.333007812 57.1669921875 480.416992188 58.5 484.25 60.5 c 128
 488.083007812 62.5 490.5 66.5 491.5 72.5 c 2
 541.5 328.5 l 1
 265 328.5 l 1
 215 71.5 l 2
 214 65.5 214.666992188 61.6669921875 217 60 c 128
 219.333007812 58.3330078125 224.833007812 57.1669921875 233.5 56.5 c 0
 239.5 56.1669921875 245.833007812 55.6669921875 252.5 55 c 0
 258.166992188 54.3330078125 264.583007812 53.6669921875 271.75 53 c 128
 278.916992188 52.3330078125 286.333007812 51.6669921875 294 51 c 1
 294 0 l 1
 -15.5 0 l 1
 -15.5 51 l 1
 -7.8330078125 51.6669921875 -0.25 52.3330078125 7.25 53 c 128
 14.75 53.6669921875 21.3330078125 54.3330078125 27 55 c 0
 33.6669921875 55.6669921875 40 56.1669921875 46 56.5 c 0
 53.3330078125 57.1669921875 58.6669921875 58.5 62 60.5 c 128
 65.3330078125 62.5 67.5 66.5 68.5 72.5 c 2
 175 615.5 l 2
 176 621.5 174.833007812 625.416992188 171.5 627.25 c 128
 168.166992188 629.083007812 162.833007812 630.333007812 155.5 631 c 0
 149.5 631.333007812 143.333007812 631.833007812 137 632.5 c 0
 131.333007812 633.166992188 125.083007812 633.75 118.25 634.25 c 128
 111.416992188 634.75 104.5 635.333007812 97.5 636 c 1
 97.5 687 l 1
 406.5 687 l 1
 406.5 636 l 1
 398.5 635.333007812 390.75 634.75 383.25 634.25 c 128
 375.75 633.75 369 633.166992188 363 632.5 c 0
 356 631.833007812 349.333007812 631.333007812 343 631 c 0
 336.333007812 630.333007812 331.333007812 628.916992188 328 626.75 c 128
 324.666992188 624.583007812 322.5 620.5 321.5 614.5 c 2
 277.5 390 l 1
 554 390 l 1
 598 615.5 l 2
 599 621.5 597.75 625.583007812 594.25 627.75 c 128
 590.75 629.916992188 584.833007812 631.333007812 576.5 632 c 0
 570.5 632.333007812 564.333007812 632.666992188 558 633 c 0
 552.333007812 633.333007812 546.083007812 633.75 539.25 634.25 c 128
 532.416992188 634.75 525.666992188 635.333007812 519 636 c 1
 519 687 l 1
 828.5 687 l 1
 828.5 636 l 1
 763 630 l 2
EndSplineSet
EndChar

StartChar: I
Encoding: 73 73 23
Width: 364
VWidth: 1024
GlyphClass: 2
Flags: HW
LayerCount: 2
Back
Fore
SplineSet
337 631 m 2
 331.666992188 630.333007812 328 628.583007812 326 625.75 c 128
 324 622.916992188 322.5 619.166992188 321.5 614.5 c 2
 215 71.5 l 2
 214 65.8330078125 214.666992188 62.0830078125 217 60.25 c 128
 219.333007812 58.4169921875 223.833007812 57.1669921875 230.5 56.5 c 0
 236.833007812 56.1669921875 243.5 55.6669921875 250.5 55 c 0
 256.5 54.3330078125 263.333007812 53.6669921875 271 53 c 128
 278.666992188 52.3330078125 286.666992188 51.6669921875 295 51 c 1
 295 0 l 1
 -15.5 0 l 1
 -15.5 51 l 1
 -7.8330078125 51.6669921875 -0.4169921875 52.1669921875 6.75 52.5 c 128
 13.9169921875 52.8330078125 20.3330078125 53.3330078125 26 54 c 0
 32.6669921875 54.6669921875 39 55.1669921875 45 55.5 c 0
 52.6669921875 56.1669921875 58.25 57.4169921875 61.75 59.25 c 128
 65.25 61.0830078125 67.5 65.5 68.5 72.5 c 1
 175 615.5 l 1
 176.666992188 621.5 175.666992188 625.416992188 172 627.25 c 128
 168.333007812 629.083007812 163.166992188 630.333007812 156.5 631 c 0
 150.5 631.333007812 144.333007812 631.833007812 138 632.5 c 0
 132.333007812 633.166992188 126 633.75 119 634.25 c 128
 112 634.75 105.166992188 635.333007812 98.5 636 c 1
 98.5 687 l 1
 407.5 687 l 1
 407.5 636 l 1
 337 631 l 2
EndSplineSet
EndChar

StartChar: J
Encoding: 74 74 24
Width: 522
VWidth: 1024
GlyphClass: 2
Flags: HW
LayerCount: 2
Back
Fore
SplineSet
492.5 630 m 1
 487.833007812 630 484.583007812 628.583007812 482.75 625.75 c 128
 480.916992188 622.916992188 479.333007812 619.166992188 478 614.5 c 1
 412.5 263 l 2
 405.166992188 222.666992188 396.083007812 185.416992188 385.25 151.25 c 128
 374.416992188 117.083007812 359 87.5830078125 339 62.75 c 128
 319 37.9169921875 292.75 18.5 260.25 4.5 c 128
 227.75 -9.5 186.333007812 -16.5 136 -16.5 c 0
 113.333007812 -16.5 93.0830078125 -15 75.25 -12 c 128
 57.4169921875 -9 42 -5.5 29 -1.5 c 128
 16 2.5 5.4169921875 6.4169921875 -2.75 10.25 c 128
 -10.9169921875 14.0830078125 -16.8330078125 16.8330078125 -20.5 18.5 c 1
 14.5 196.5 l 1
 98.5 196.5 l 1
 98.5 67.5 l 2
 98.5 64.8330078125 100.083007812 62.25 103.25 59.75 c 128
 106.416992188 57.25 110.333007812 55.0830078125 115 53.25 c 128
 119.666992188 51.4169921875 124.583007812 49.9169921875 129.75 48.75 c 128
 134.916992188 47.5830078125 139.5 47 143.5 47 c 0
 173.166992188 47 197.5 64.0830078125 216.5 98.25 c 128
 235.5 132.416992188 251.333007812 184.666992188 264 255 c 1
 332 615.5 l 2
 333 621.5 331.833007812 625.416992188 328.5 627.25 c 128
 325.166992188 629.083007812 320.166992188 630.333007812 313.5 631 c 0
 307.166992188 631.333007812 300.666992188 631.833007812 294 632.5 c 0
 288.333007812 633.166992188 281.833007812 633.75 274.5 634.25 c 128
 267.166992188 634.75 260 635.333007812 253 636 c 1
 253 687 l 1
 562 687 l 1
 562 636 l 1
 492.5 630 l 1
EndSplineSet
EndChar

StartChar: K
Encoding: 75 75 25
Width: 715
VWidth: 1024
GlyphClass: 2
Flags: HW
LayerCount: 2
Back
Fore
SplineSet
661.5 627.5 m 1
 397.5 376 l 1
 539.5 105.5 l 2
 545.5 94.1669921875 550.416992188 85 554.25 78 c 128
 558.083007812 71 562 65.4169921875 566 61.25 c 128
 570 57.0830078125 574.5 54.25 579.5 52.75 c 128
 584.5 51.25 591 50.3330078125 599 50 c 0
 601.666992188 50 606.333007812 50.25 613 50.75 c 128
 619.666992188 51.25 626.666992188 51.75 634 52.25 c 128
 641.333007812 52.75 647.916992188 53.25 653.75 53.75 c 128
 659.583007812 54.25 662.833007812 54.5 663.5 54.5 c 1
 663.5 3 l 1
 644.833007812 -2.6669921875 625.333007812 -7.3330078125 605 -11 c 128
 584.666992188 -14.6669921875 565 -16.5 546 -16.5 c 0
 525.333007812 -16.5 507.75 -15 493.25 -12 c 128
 478.75 -9 466.25 -4.25 455.75 2.25 c 128
 445.25 8.75 436.083007812 17.0830078125 428.25 27.25 c 128
 420.416992188 37.4169921875 412.833007812 49.5 405.5 63.5 c 2
 282.5 298 l 1
 259 298 l 1
 214 71.5 l 2
 213 64.8330078125 214.083007812 60.6669921875 217.25 59 c 128
 220.416992188 57.3330078125 224.833007812 56.1669921875 230.5 55.5 c 0
 236.166992188 55.1669921875 242 54.6669921875 248 54 c 0
 253 53.3330078125 258.583007812 52.8330078125 264.75 52.5 c 128
 270.916992188 52.1669921875 277.166992188 51.6669921875 283.5 51 c 1
 283.5 0 l 1
 -16.5 0 l 1
 -16.5 51 l 1
 -9.8330078125 51.6669921875 -2.8330078125 52.1669921875 4.5 52.5 c 128
 11.8330078125 52.8330078125 18.8330078125 53.3330078125 25.5 54 c 0
 33.1669921875 54.6669921875 40.6669921875 55.1669921875 48 55.5 c 0
 53.3330078125 55.5 57.6669921875 56.6669921875 61 59 c 128
 64.3330078125 61.3330078125 66.5 65.8330078125 67.5 72.5 c 2
 175 615.5 l 1
 176.666992188 621.5 176.166992188 625.583007812 173.5 627.75 c 128
 170.833007812 629.916992188 167 631.333007812 162 632 c 1
 156.333007812 632.333007812 150.5 632.666992188 144.5 633 c 0
 139.166992188 633.333007812 133.333007812 633.75 127 634.25 c 128
 120.666992188 634.75 114.166992188 635.333007812 107.5 636 c 1
 107.5 687 l 1
 397.5 687 l 1
 397.5 636 l 1
 390.5 635.333007812 383.583007812 634.75 376.75 634.25 c 128
 369.916992188 633.75 363.833007812 633.333007812 358.5 633 c 0
 352.5 632.666992188 346.666992188 632.333007812 341 632 c 1
 336 631.333007812 331.916992188 629.916992188 328.75 627.75 c 128
 325.583007812 625.583007812 323.166992188 621.166992188 321.5 614.5 c 1
 277.5 392 l 1
 285.5 392 l 1
 516 616.5 l 1
 521.333007812 621.166992188 522.916992188 624.75 520.75 627.25 c 128
 518.583007812 629.75 514 631.333007812 507 632 c 1
 501 632 495 632.333007812 489 633 c 0
 483.666992188 633.333007812 477.833007812 633.75 471.5 634.25 c 128
 465.166992188 634.75 459.166992188 635.333007812 453.5 636 c 1
 453.5 687 l 1
 751.5 687 l 1
 751.5 636 l 1
 661.5 627.5 l 1
EndSplineSet
EndChar

StartChar: L
Encoding: 76 76 26
Width: 573
VWidth: 1024
GlyphClass: 2
Flags: HW
LayerCount: 2
Back
Fore
SplineSet
499.5 0 m 1
 -15.5 0 l 1
 -15.5 51 l 1
 -8.5 51.6669921875 -1.5830078125 52.3330078125 5.25 53 c 128
 12.0830078125 53.6669921875 18.3330078125 54.1669921875 24 54.5 c 2
 43 55.5 l 1
 52.6669921875 56.5 59.0830078125 57.9169921875 62.25 59.75 c 128
 65.4169921875 61.5830078125 67.5 65.8330078125 68.5 72.5 c 2
 175 615.5 l 1
 176.666992188 621.166992188 175.75 625 172.25 627 c 128
 168.75 629 164.166992188 630.333007812 158.5 631 c 1
 152.5 631.333007812 146.166992188 631.833007812 139.5 632.5 c 0
 133.833007812 633.166992188 127.416992188 633.75 120.25 634.25 c 128
 113.083007812 634.75 105.833007812 635.333007812 98.5 636 c 1
 98.5 687 l 1
 407.5 687 l 1
 407.5 636 l 1
 398.833007812 635.333007812 390.583007812 634.75 382.75 634.25 c 128
 374.916992188 633.75 367.833007812 633.166992188 361.5 632.5 c 0
 354.166992188 631.833007812 347.333007812 631.333007812 341 631 c 1
 336.333007812 630.333007812 332.333007812 628.916992188 329 626.75 c 128
 325.666992188 624.583007812 323.166992188 620.5 321.5 614.5 c 1
 213 61.5 l 1
 393 61.5 l 2
 398.333007812 61.5 404.083007812 62.8330078125 410.25 65.5 c 128
 416.416992188 68.1669921875 420.333007812 71.6669921875 422 76 c 2
 464 207 l 1
 540.5 207 l 1
 499.5 0 l 1
EndSplineSet
EndChar

StartChar: M
Encoding: 77 77 27
Width: 925
VWidth: 1024
GlyphClass: 2
Flags: HW
LayerCount: 2
Back
Fore
SplineSet
898 628.5 m 2
 893.333007812 627.833007812 890.083007812 626.5 888.25 624.5 c 128
 886.416992188 622.5 884.833007812 619.166992188 883.5 614.5 c 1
 778 71.5 l 2
 777 65.5 778.166992188 61.6669921875 781.5 60 c 128
 784.833007812 58.3330078125 789.833007812 57.1669921875 796.5 56.5 c 0
 802.5 56.1669921875 808.833007812 55.6669921875 815.5 55 c 0
 821.166992188 54.3330078125 827.5 53.6669921875 834.5 53 c 128
 841.5 52.3330078125 848.666992188 51.6669921875 856 51 c 1
 856 0 l 1
 547 0 l 1
 547 51 l 1
 554.666992188 51.6669921875 562.166992188 52.3330078125 569.5 53 c 128
 576.833007812 53.6669921875 583.5 54.3330078125 589.5 55 c 0
 596.5 55.6669921875 603.166992188 56.1669921875 609.5 56.5 c 0
 615.166992188 56.5 620.083007812 57.6669921875 624.25 60 c 128
 628.416992188 62.3330078125 631 66.5 632 72.5 c 2
 708.5 468 l 1
 442.5 0 l 1
 342 0 l 1
 259 461 l 1
 186.5 71.5 l 1
 184.833007812 65.8330078125 185.583007812 62.0830078125 188.75 60.25 c 128
 191.916992188 58.4169921875 195.833007812 57.1669921875 200.5 56.5 c 1
 206.833007812 56.1669921875 213.333007812 55.6669921875 220 55 c 0
 225.666992188 54.3330078125 232.25 53.6669921875 239.75 53 c 128
 247.25 52.3330078125 255 51.6669921875 263 51 c 1
 263 0 l 1
 -14.5 0 l 1
 -14.5 51 l 1
 -7.5 51.6669921875 -0.6669921875 52.3330078125 6 53 c 128
 12.6669921875 53.6669921875 18.8330078125 54.3330078125 24.5 55 c 0
 30.8330078125 55.6669921875 37 56.1669921875 43 56.5 c 0
 50.3330078125 57.1669921875 56.1669921875 58.3330078125 60.5 60 c 128
 64.8330078125 61.6669921875 67.8330078125 65.8330078125 69.5 72.5 c 1
 175 615.5 l 2
 176 621.5 174.833007812 625.416992188 171.5 627.25 c 128
 168.166992188 629.083007812 163.166992188 630.333007812 156.5 631 c 0
 150.166992188 631.333007812 143.833007812 631.833007812 137.5 632.5 c 0
 131.833007812 633.166992188 125.5 633.75 118.5 634.25 c 128
 111.5 634.75 104.5 635.333007812 97.5 636 c 1
 97.5 687 l 1
 369.5 687 l 1
 369.5 653.5 l 1
 447.5 223 l 1
 688 649 l 1
 688 687 l 1
 967.5 687 l 1
 967.5 636 l 1
 898 628.5 l 2
EndSplineSet
EndChar

StartChar: N
Encoding: 78 78 28
Width: 771
VWidth: 1024
GlyphClass: 2
Flags: HW
LayerCount: 2
Back
Fore
SplineSet
749.5 630 m 1
 739.833007812 628.333007812 734 623.166992188 732 614.5 c 2
 610.5 0 l 1
 496.5 0 l 1
 267.5 476 l 1
 188.5 71.5 l 2
 187.5 65.5 188.5 61.6669921875 191.5 60 c 128
 194.5 58.3330078125 199.666992188 57.1669921875 207 56.5 c 0
 213 56.1669921875 219.166992188 55.6669921875 225.5 55 c 0
 231.166992188 54.3330078125 237.416992188 53.6669921875 244.25 53 c 128
 251.083007812 52.3330078125 258.333007812 51.6669921875 266 51 c 1
 266 0 l 1
 -14.5 0 l 1
 -14.5 51 l 1
 -7.1669921875 51.6669921875 -0.0830078125 52.3330078125 6.75 53 c 128
 13.5830078125 53.6669921875 19.8330078125 54.3330078125 25.5 55 c 0
 31.8330078125 55.6669921875 38 56.1669921875 44 56.5 c 0
 51.3330078125 57.1669921875 57 58.3330078125 61 60 c 128
 65 61.6669921875 67.8330078125 65.8330078125 69.5 72.5 c 1
 175 615.5 l 1
 176.666992188 621.5 175.666992188 625.416992188 172 627.25 c 128
 168.333007812 629.083007812 163.166992188 630.333007812 156.5 631 c 0
 150.5 631.333007812 144.333007812 631.833007812 138 632.5 c 0
 132.333007812 633.166992188 126.083007812 633.75 119.25 634.25 c 128
 112.416992188 634.75 105.5 635.333007812 98.5 636 c 1
 98.5 687 l 1
 339 687 l 1
 339 655.5 l 1
 538.5 238.5 l 1
 613.5 615.5 l 1
 615.166992188 621.5 613.833007812 625.416992188 609.5 627.25 c 128
 605.166992188 629.083007812 600 630.333007812 594 631 c 1
 587.666992188 631.333007812 581.333007812 631.833007812 575 632.5 c 0
 569.333007812 633.166992188 563 633.75 556 634.25 c 128
 549 634.75 542.166992188 635.333007812 535.5 636 c 1
 535.5 687 l 1
 816 687 l 1
 816 636 l 1
 749.5 630 l 1
EndSplineSet
EndChar

StartChar: O
Encoding: 79 79 29
Width: 770
VWidth: 1024
GlyphClass: 2
Flags: HW
LayerCount: 2
Back
Fore
SplineSet
591 427 m 0
 591 461.333007812 586.583007812 491.833007812 577.75 518.5 c 128
 568.916992188 545.166992188 557.416992188 567.666992188 543.25 586 c 128
 529.083007812 604.333007812 513.166992188 618.25 495.5 627.75 c 128
 477.833007812 637.25 460.166992188 642 442.5 642 c 0
 422.166992188 642 402.25 636.833007812 382.75 626.5 c 128
 363.25 616.166992188 344.833007812 602.083007812 327.5 584.25 c 128
 310.166992188 566.416992188 294.166992188 545.25 279.5 520.75 c 128
 264.833007812 496.25 252.25 469.916992188 241.75 441.75 c 128
 231.25 413.583007812 223 384.083007812 217 353.25 c 128
 211 322.416992188 208 291.666992188 208 261 c 0
 208 225.666992188 212.583007812 194.666992188 221.75 168 c 128
 230.916992188 141.333007812 242.666992188 119 257 101 c 128
 271.333007812 83 287.25 69.5 304.75 60.5 c 128
 322.25 51.5 339.5 47 356.5 47 c 0
 376.5 47 396.25 52.25 415.75 62.75 c 128
 435.25 73.25 453.666992188 87.6669921875 471 106 c 128
 488.333007812 124.333007812 504.333007812 145.75 519 170.25 c 128
 533.666992188 194.75 546.333007812 221.083007812 557 249.25 c 128
 567.666992188 277.416992188 576 306.666992188 582 337 c 128
 588 367.333007812 591 397.333007812 591 427 c 0
750.5 427 m 0
 750.5 392 746.833007812 356.75 739.5 321.25 c 128
 732.166992188 285.75 721.083007812 251.583007812 706.25 218.75 c 128
 691.416992188 185.916992188 672.833007812 155.166992188 650.5 126.5 c 128
 628.166992188 97.8330078125 602.166992188 72.9169921875 572.5 51.75 c 128
 542.833007812 30.5830078125 509.333007812 13.9169921875 472 1.75 c 128
 434.666992188 -10.4169921875 393.666992188 -16.5 349 -16.5 c 0
 301.333007812 -16.5 258.916992188 -9.4169921875 221.75 4.75 c 128
 184.583007812 18.9169921875 153.166992188 38.75 127.5 64.25 c 128
 101.833007812 89.75 82.3330078125 119.916992188 69 154.75 c 128
 55.6669921875 189.583007812 49 227.833007812 49 269.5 c 0
 49 304.833007812 53.0830078125 340.166992188 61.25 375.5 c 128
 69.4169921875 410.833007812 81.4169921875 444.583007812 97.25 476.75 c 128
 113.083007812 508.916992188 132.5 538.833007812 155.5 566.5 c 128
 178.5 594.166992188 204.916992188 618.166992188 234.75 638.5 c 128
 264.583007812 658.833007812 297.666992188 674.75 334 686.25 c 128
 370.333007812 697.75 409.5 703.5 451.5 703.5 c 0
 500.833007812 703.5 544.166992188 695.916992188 581.5 680.75 c 128
 618.833007812 665.583007812 650 645.25 675 619.75 c 128
 700 594.25 718.833007812 564.833007812 731.5 531.5 c 128
 744.166992188 498.166992188 750.5 463.333007812 750.5 427 c 0
EndSplineSet
EndChar

StartChar: P
Encoding: 80 80 30
Width: 622
VWidth: 1024
GlyphClass: 2
Flags: HW
LayerCount: 2
Back
Fore
SplineSet
627.5 520 m 0
 627.5 480 619.75 443.666992188 604.25 411 c 128
 588.75 378.333007812 566.5 350.25 537.5 326.75 c 128
 508.5 303.25 473.416992188 285.083007812 432.25 272.25 c 128
 391.083007812 259.416992188 345 253 294 253 c 2
 273 253 l 2
 264.666992188 253 257 253.333007812 250 254 c 1
 213 71.5 l 2
 212 65.5 213 61.6669921875 216 60 c 128
 219 58.3330078125 224.166992188 57.1669921875 231.5 56.5 c 0
 237.5 56.1669921875 243.833007812 55.6669921875 250.5 55 c 0
 256.166992188 54.3330078125 262.583007812 53.6669921875 269.75 53 c 128
 276.916992188 52.3330078125 284.333007812 51.6669921875 292 51 c 1
 292 0 l 1
 -17.5 0 l 1
 -17.5 51 l 1
 -10.1669921875 51.6669921875 -3 52.3330078125 4 53 c 128
 11 53.6669921875 17.3330078125 54.3330078125 23 55 c 0
 29.3330078125 55.6669921875 35.6669921875 56.1669921875 42 56.5 c 0
 48.6669921875 57.1669921875 54 58.3330078125 58 60 c 128
 62 61.6669921875 64.8330078125 65.8330078125 66.5 72.5 c 1
 174 615.5 l 2
 175 621.5 173.583007812 625.416992188 169.75 627.25 c 128
 165.916992188 629.083007812 160.833007812 630.333007812 154.5 631 c 0
 148.5 631.333007812 142.333007812 631.833007812 136 632.5 c 0
 130.333007812 633.166992188 124 633.75 117 634.25 c 128
 110 634.75 103.166992188 635.333007812 96.5 636 c 1
 96.5 687 l 1
 372.5 687 l 2
 420.833007812 687 461.333007812 682.583007812 494 673.75 c 128
 526.666992188 664.916992188 552.916992188 652.916992188 572.75 637.75 c 128
 592.583007812 622.583007812 606.666992188 604.916992188 615 584.75 c 128
 623.333007812 564.583007812 627.5 543 627.5 520 c 0
478 504 m 0
 478 544.333007812 466.5 575.166992188 443.5 596.5 c 128
 420.5 617.833007812 386.333007812 628.5 341 628.5 c 2
 323.5 628.5 l 1
 261 315.5 l 1
 281 314.833007812 302.25 316.583007812 324.75 320.75 c 128
 347.25 324.916992188 369 333.333007812 390 346 c 0
 402.333007812 353.333007812 413.833007812 362 424.5 372 c 128
 435.166992188 382 444.5 393.5 452.5 406.5 c 128
 460.5 419.5 466.75 434.083007812 471.25 450.25 c 128
 475.75 466.416992188 478 484.333007812 478 504 c 0
EndSplineSet
EndChar

StartChar: Q
Encoding: 81 81 31
Width: 770
VWidth: 1024
GlyphClass: 2
Flags: HW
LayerCount: 2
Back
Fore
SplineSet
591 426 m 0
 591 459 586.833007812 488.75 578.5 515.25 c 128
 570.166992188 541.75 559.25 564.333007812 545.75 583 c 128
 532.25 601.666992188 516.916992188 616 499.75 626 c 128
 482.583007812 636 465.166992188 641 447.5 641 c 0
 426.833007812 641 406.5 636.083007812 386.5 626.25 c 128
 366.5 616.416992188 347.5 602.75 329.5 585.25 c 128
 311.5 567.75 294.916992188 547 279.75 523 c 128
 264.583007812 499 251.416992188 472.916992188 240.25 444.75 c 128
 229.083007812 416.583007812 220.416992188 386.833007812 214.25 355.5 c 128
 208.083007812 324.166992188 205 292.333007812 205 260 c 0
 205 227.333007812 209.166992188 197.75 217.5 171.25 c 128
 225.833007812 144.75 236.916992188 122.166992188 250.75 103.5 c 128
 264.583007812 84.8330078125 280.583007812 70.4169921875 298.75 60.25 c 128
 316.916992188 50.0830078125 335.833007812 45 355.5 45 c 256
 375.166992188 45 394.666992188 50.1669921875 414 60.5 c 128
 433.333007812 70.8330078125 451.75 85.0830078125 469.25 103.25 c 128
 486.75 121.416992188 502.916992188 142.75 517.75 167.25 c 128
 532.583007812 191.75 545.416992188 218.166992188 556.25 246.5 c 128
 567.083007812 274.833007812 575.583007812 304.25 581.75 334.75 c 128
 587.916992188 365.25 591 395.666992188 591 426 c 0
782.5 -110.5 m 1
 777.833007812 -112.833007812 768.666992188 -116.916992188 755 -122.75 c 128
 741.333007812 -128.583007812 725.333007812 -134.583007812 707 -140.75 c 128
 688.666992188 -146.916992188 669 -152.333007812 648 -157 c 128
 627 -161.666992188 607 -164 588 -164 c 0
 556.333007812 -164 529.25 -159.916992188 506.75 -151.75 c 128
 484.25 -143.583007812 465 -132.75 449 -119.25 c 128
 433 -105.75 419.583007812 -90.0830078125 408.75 -72.25 c 128
 397.916992188 -54.4169921875 388 -35.8330078125 379 -16.5 c 1
 374.333007812 -17.1669921875 369.25 -17.6669921875 363.75 -18 c 128
 358.25 -18.3330078125 352.333007812 -18.5 346 -18.5 c 0
 301.666992188 -18.5 261.166992188 -11.9169921875 224.5 1.25 c 128
 187.833007812 14.4169921875 156.333007812 33.3330078125 130 58 c 128
 103.666992188 82.6669921875 83.25 112.416992188 68.75 147.25 c 128
 54.25 182.083007812 47 221.333007812 47 265 c 0
 47 299 51.0830078125 333.5 59.25 368.5 c 128
 67.4169921875 403.5 79.5 437.25 95.5 469.75 c 128
 111.5 502.25 131.083007812 532.666992188 154.25 561 c 128
 177.416992188 589.333007812 204 614.083007812 234 635.25 c 128
 264 656.416992188 297.25 673.083007812 333.75 685.25 c 128
 370.25 697.416992188 409.833007812 703.5 452.5 703.5 c 0
 501.166992188 703.5 544 696.166992188 581 681.5 c 128
 618 666.833007812 649 646.833007812 674 621.5 c 128
 699 596.166992188 717.833007812 566.75 730.5 533.25 c 128
 743.166992188 499.75 749.5 464 749.5 426 c 0
 749.5 408 748.416992188 388 746.25 366 c 128
 744.083007812 344 739.916992188 321.083007812 733.75 297.25 c 128
 727.583007812 273.416992188 719.25 249.083007812 708.75 224.25 c 128
 698.25 199.416992188 684.75 175.083007812 668.25 151.25 c 128
 651.75 127.416992188 631.75 104.5 608.25 82.5 c 128
 584.75 60.5 557.166992188 40.5 525.5 22.5 c 1
 535.166992188 5.1669921875 543.666992188 -10.6669921875 551 -25 c 128
 558.333007812 -39.3330078125 566.166992188 -51.5830078125 574.5 -61.75 c 128
 582.833007812 -71.9169921875 592.333007812 -79.8330078125 603 -85.5 c 128
 613.666992188 -91.1669921875 627 -94 643 -94 c 0
 652 -94 661.166992188 -92.9169921875 670.5 -90.75 c 128
 679.833007812 -88.5830078125 690 -85.5 701 -81.5 c 128
 712 -77.5 724.083007812 -72.5 737.25 -66.5 c 128
 750.416992188 -60.5 765.5 -53.6669921875 782.5 -46 c 1
 782.5 -110.5 l 1
EndSplineSet
EndChar

StartChar: R
Encoding: 82 82 32
Width: 699
VWidth: 1024
GlyphClass: 2
Flags: HW
LayerCount: 2
Back
Fore
SplineSet
673 3 m 1
 657.333007812 -3.6669921875 642 -8.5830078125 627 -11.75 c 128
 612 -14.9169921875 595.166992188 -16.5 576.5 -16.5 c 0
 544.833007812 -16.5 518.833007812 -12.8330078125 498.5 -5.5 c 128
 478.166992188 1.8330078125 461.5 12.5830078125 448.5 26.75 c 128
 435.5 40.9169921875 425.333007812 58.3330078125 418 79 c 128
 410.666992188 99.6669921875 404.166992188 123.5 398.5 150.5 c 0
 396.166992188 160.5 393.75 171.083007812 391.25 182.25 c 128
 388.75 193.416992188 385.75 204.5 382.25 215.5 c 128
 378.75 226.5 374.583007812 237 369.75 247 c 128
 364.916992188 257 358.916992188 265.916992188 351.75 273.75 c 128
 344.583007812 281.583007812 336.25 287.75 326.75 292.25 c 128
 317.25 296.75 306 299 293 299 c 0
 288.666992188 299 283.5 298.833007812 277.5 298.5 c 128
 271.5 298.166992188 265.666992188 298 260 298 c 1
 217 71.5 l 2
 216 65.8330078125 216.833007812 62.0830078125 219.5 60.25 c 128
 222.166992188 58.4169921875 226.833007812 57.1669921875 233.5 56.5 c 0
 239.5 55.8330078125 246 55.1669921875 253 54.5 c 0
 258.666992188 53.8330078125 265.333007812 53.25 273 52.75 c 128
 280.666992188 52.25 288.333007812 51.6669921875 296 51 c 1
 296 0 l 1
 -13.5 0 l 1
 -13.5 51 l 1
 -5.8330078125 51.6669921875 1.5830078125 52.1669921875 8.75 52.5 c 128
 15.9169921875 52.8330078125 22.3330078125 53.3330078125 28 54 c 0
 34.6669921875 54.6669921875 41 55.1669921875 47 55.5 c 0
 53.3330078125 56.1669921875 58.4169921875 57.5 62.25 59.5 c 128
 66.0830078125 61.5 68.8330078125 65.8330078125 70.5 72.5 c 1
 175 615.5 l 1
 176.666992188 621.166992188 175.833007812 625 172.5 627 c 128
 169.166992188 629 164.166992188 630.333007812 157.5 631 c 0
 151.166992188 631.333007812 144.833007812 631.833007812 138.5 632.5 c 0
 132.833007812 633.166992188 126.5 633.75 119.5 634.25 c 128
 112.5 634.75 105.5 635.333007812 98.5 636 c 1
 98.5 687 l 1
 394 687 l 2
 428.333007812 687 460.333007812 684.333007812 490 679 c 128
 519.666992188 673.666992188 545.5 664.916992188 567.5 652.75 c 128
 589.5 640.583007812 606.75 624.75 619.25 605.25 c 128
 631.75 585.75 638 561.833007812 638 533.5 c 0
 638 506.5 632.75 482.083007812 622.25 460.25 c 128
 611.75 438.416992188 597.333007812 418.833007812 579 401.5 c 128
 560.666992188 384.166992188 539 369.083007812 514 356.25 c 128
 489 343.416992188 462 332.833007812 433 324.5 c 1
 452.666992188 315.5 468.5 305.583007812 480.5 294.75 c 128
 492.5 283.916992188 502.166992188 271.75 509.5 258.25 c 128
 516.833007812 244.75 522.75 229.916992188 527.25 213.75 c 128
 531.75 197.583007812 536.5 180 541.5 161 c 0
 546.166992188 143 550.75 127.166992188 555.25 113.5 c 128
 559.75 99.8330078125 566.416992188 88.3330078125 575.25 79 c 128
 584.083007812 69.6669921875 596.083007812 62.6669921875 611.25 58 c 128
 626.416992188 53.3330078125 647 51 673 51 c 1
 673 3 l 1
479 518 m 0
 479 534.666992188 476.5 549 471.5 561 c 128
 466.5 573 460.083007812 583.083007812 452.25 591.25 c 128
 444.416992188 599.416992188 435.666992188 606 426 611 c 128
 416.333007812 616 406.666992188 619.75 397 622.25 c 128
 387.333007812 624.75 378.25 626.333007812 369.75 627 c 128
 361.25 627.666992188 354.333007812 627.833007812 349 627.5 c 2
 323.5 625.5 l 1
 273.5 360.5 l 1
 280.5 360.5 l 2
 283.5 360.5 286.333007812 360.666992188 289 361 c 1
 292.333007812 361 295.666992188 361.166992188 299 361.5 c 0
 312 361.833007812 325.5 363.333007812 339.5 366 c 128
 353.5 368.666992188 367.166992188 372.5 380.5 377.5 c 128
 393.833007812 382.5 406.416992188 389 418.25 397 c 128
 430.083007812 405 440.5 414.75 449.5 426.25 c 128
 458.5 437.75 465.666992188 451.083007812 471 466.25 c 128
 476.333007812 481.416992188 479 498.666992188 479 518 c 0
EndSplineSet
EndChar

StartChar: S
Encoding: 83 83 33
Width: 576
VWidth: 1024
GlyphClass: 2
Flags: HW
LayerCount: 2
Back
Fore
SplineSet
534.5 503 m 1
 456.5 503 l 1
 461 609.5 l 2
 461 611.166992188 457.833007812 613.833007812 451.5 617.5 c 128
 445.166992188 621.166992188 437.166992188 624.916992188 427.5 628.75 c 128
 417.833007812 632.583007812 407.416992188 635.916992188 396.25 638.75 c 128
 385.083007812 641.583007812 374.833007812 643 365.5 643 c 0
 352.166992188 643 337.833007812 640 322.5 634 c 128
 307.166992188 628 292.916992188 619.333007812 279.75 608 c 128
 266.583007812 596.666992188 255.583007812 582.833007812 246.75 566.5 c 128
 237.916992188 550.166992188 233.5 531.666992188 233.5 511 c 0
 233.5 493 238.416992188 477.25 248.25 463.75 c 128
 258.083007812 450.25 270.25 438.416992188 284.75 428.25 c 128
 299.25 418.083007812 314.75 409.083007812 331.25 401.25 c 128
 347.75 393.416992188 362.666992188 386.333007812 376 380 c 1
 394.333007812 370.666992188 412.25 360.833007812 429.75 350.5 c 128
 447.25 340.166992188 462.75 328.5 476.25 315.5 c 128
 489.75 302.5 500.583007812 287.583007812 508.75 270.75 c 128
 516.916992188 253.916992188 521 234.333007812 521 212 c 0
 521 196.333007812 518.833007812 179.916992188 514.5 162.75 c 128
 510.166992188 145.583007812 503.166992188 128.5 493.5 111.5 c 128
 483.833007812 94.5 471.166992188 78.25 455.5 62.75 c 128
 439.833007812 47.25 420.583007812 33.6669921875 397.75 22 c 128
 374.916992188 10.3330078125 348.25 1 317.75 -6 c 128
 287.25 -13 252.333007812 -16.5 213 -16.5 c 0
 185 -16.5 158.75 -14.0830078125 134.25 -9.25 c 128
 109.75 -4.4169921875 87.9169921875 1.25 68.75 7.75 c 128
 49.5830078125 14.25 33.6669921875 20.6669921875 21 27 c 128
 8.3330078125 33.3330078125 -0.3330078125 38 -5 41 c 1
 30.5 209 l 1
 118 209 l 1
 106.5 87 l 2
 106.166992188 85 110.666992188 81.75 120 77.25 c 128
 129.333007812 72.75 140.5 68.25 153.5 63.75 c 128
 166.5 59.25 179.916992188 55.3330078125 193.75 52 c 128
 207.583007812 48.6669921875 218.833007812 47 227.5 47 c 0
 242.833007812 47 259 49.9169921875 276 55.75 c 128
 293 61.5830078125 308.583007812 70.4169921875 322.75 82.25 c 128
 336.916992188 94.0830078125 348.583007812 108.916992188 357.75 126.75 c 128
 366.916992188 144.583007812 371.5 165.5 371.5 189.5 c 0
 371.5 206.166992188 366.416992188 221 356.25 234 c 128
 346.083007812 247 333.75 258.583007812 319.25 268.75 c 128
 304.75 278.916992188 289.25 288 272.75 296 c 128
 256.25 304 241.833007812 311.166992188 229.5 317.5 c 0
 211.166992188 326.833007812 193.416992188 336.583007812 176.25 346.75 c 128
 159.083007812 356.916992188 143.833007812 368.25 130.5 380.75 c 128
 117.166992188 393.25 106.416992188 407.333007812 98.25 423 c 128
 90.0830078125 438.666992188 86 456.666992188 86 477 c 0
 86 510 92.5830078125 540.333007812 105.75 568 c 128
 118.916992188 595.666992188 137.916992188 619.5 162.75 639.5 c 128
 187.583007812 659.5 217.75 675.166992188 253.25 686.5 c 128
 288.75 697.833007812 329 703.5 374 703.5 c 0
 397 703.5 418.166992188 702.25 437.5 699.75 c 128
 456.833007812 697.25 474.583007812 694 490.75 690 c 128
 506.916992188 686 521.5 681.583007812 534.5 676.75 c 128
 547.5 671.916992188 559.166992188 667.166992188 569.5 662.5 c 1
 534.5 503 l 1
EndSplineSet
EndChar

StartChar: T
Encoding: 84 84 34
Width: 643
VWidth: 1024
GlyphClass: 2
Flags: HW
LayerCount: 2
Back
Fore
SplineSet
671.5 508 m 1
 592 508 l 1
 597 617.5 l 2
 597.333007812 621.833007812 594.916992188 625.166992188 589.75 627.5 c 128
 584.583007812 629.833007812 579.5 631 574.5 631 c 2
 463 631 l 1
 357.5 71.5 l 2
 356.5 65.5 357.916992188 61.6669921875 361.75 60 c 128
 365.583007812 58.3330078125 370.666992188 57.1669921875 377 56.5 c 0
 383 56.1669921875 389.333007812 55.6669921875 396 55 c 0
 401.666992188 54.3330078125 408 53.6669921875 415 53 c 2
 436 51 l 1
 436 0 l 1
 127 0 l 1
 127 51 l 1
 133.666992188 51.6669921875 140.25 52.1669921875 146.75 52.5 c 128
 153.25 52.8330078125 159.333007812 53.3330078125 165 54 c 0
 171.333007812 54.6669921875 177.5 55.1669921875 183.5 55.5 c 0
 190.5 56.1669921875 196.583007812 57.5 201.75 59.5 c 128
 206.916992188 61.5 210 65.8330078125 211 72.5 c 2
 316.5 631 l 1
 211 631 l 2
 208.666992188 631 206 630.666992188 203 630 c 128
 200 629.333007812 197.083007812 628.333007812 194.25 627 c 128
 191.416992188 625.666992188 188.916992188 624.166992188 186.75 622.5 c 128
 184.583007812 620.833007812 183.166992188 618.833007812 182.5 616.5 c 2
 143.5 508 l 1
 63.5 508 l 1
 98.5 687 l 1
 708.5 687 l 1
 671.5 508 l 1
EndSplineSet
EndChar

StartChar: U
Encoding: 85 85 35
Width: 767
VWidth: 1024
GlyphClass: 2
Flags: HW
LayerCount: 2
Back
Fore
SplineSet
742.5 631 m 2
 737.833007812 630.333007812 734.166992188 628.583007812 731.5 625.75 c 128
 728.833007812 622.916992188 727 619.166992188 726 614.5 c 2
 647 220 l 2
 640 184.333007812 628.916992188 152 613.75 123 c 128
 598.583007812 94 578.583007812 69.1669921875 553.75 48.5 c 128
 528.916992188 27.8330078125 498.833007812 11.8330078125 463.5 0.5 c 128
 428.166992188 -10.8330078125 387 -16.5 340 -16.5 c 0
 302 -16.5 267.833007812 -12.9169921875 237.5 -5.75 c 128
 207.166992188 1.4169921875 181.416992188 12.4169921875 160.25 27.25 c 128
 139.083007812 42.0830078125 122.75 61 111.25 84 c 128
 99.75 107 94 134.333007812 94 166 c 0
 94 175.666992188 95.0830078125 189.916992188 97.25 208.75 c 128
 99.4169921875 227.583007812 102.833007812 248.5 107.5 271.5 c 2
 179 615.5 l 2
 180 621.5 178.666992188 625.416992188 175 627.25 c 128
 171.333007812 629.083007812 165.833007812 630.333007812 158.5 631 c 0
 152.833007812 631.333007812 146.833007812 631.833007812 140.5 632.5 c 0
 134.833007812 633.166992188 128.583007812 633.75 121.75 634.25 c 128
 114.916992188 634.75 108.166992188 635.333007812 101.5 636 c 1
 101.5 687 l 1
 410.5 687 l 1
 410.5 636 l 1
 402.5 635.333007812 394.75 634.75 387.25 634.25 c 128
 379.75 633.75 373 633.166992188 367 632.5 c 0
 360 631.833007812 353.333007812 631.333007812 347 631 c 1
 341 630.333007812 336.166992188 628.916992188 332.5 626.75 c 128
 328.833007812 624.583007812 326.5 620.5 325.5 614.5 c 2
 255 271.5 l 2
 251 251.833007812 248.083007812 234.166992188 246.25 218.5 c 128
 244.416992188 202.833007812 243.5 190.333007812 243.5 181 c 0
 243.5 159.333007812 247 140.833007812 254 125.5 c 128
 261 110.166992188 270.25 97.6669921875 281.75 88 c 128
 293.25 78.3330078125 306.416992188 71.3330078125 321.25 67 c 128
 336.083007812 62.6669921875 351.166992188 60.5 366.5 60.5 c 0
 393.166992188 60.5 416.25 65.4169921875 435.75 75.25 c 128
 455.25 85.0830078125 471.833007812 98.6669921875 485.5 116 c 128
 499.166992188 133.333007812 510.5 154 519.5 178 c 128
 528.5 202 535.833007812 228 541.5 256 c 2
 613.5 615.5 l 2
 614.5 621.5 613.583007812 625.416992188 610.75 627.25 c 128
 607.916992188 629.083007812 602.333007812 630.333007812 594 631 c 0
 587.666992188 631.333007812 581.333007812 631.833007812 575 632.5 c 0
 569.333007812 633.166992188 563 633.75 556 634.25 c 128
 549 634.75 542.166992188 635.333007812 535.5 636 c 1
 535.5 687 l 1
 810 687 l 1
 810 636 l 1
 742.5 631 l 2
EndSplineSet
EndChar

StartChar: V
Encoding: 86 86 36
Width: 701
VWidth: 1024
GlyphClass: 2
Flags: HW
LayerCount: 2
Back
Fore
SplineSet
720 630 m 1
 366.5 -16.5 l 1
 249 -16.5 l 1
 148.5 617.5 l 2
 147.5 624.166992188 144.75 628.416992188 140.25 630.25 c 128
 135.75 632.083007812 130.666992188 633 125 633 c 0
 120.666992188 633 116.166992188 633.166992188 111.5 633.5 c 0
 107.5 633.833007812 103.166992188 634.083007812 98.5 634.25 c 128
 93.8330078125 634.416992188 89.3330078125 634.666992188 85 635 c 1
 85 687 l 1
 360.5 687 l 1
 360.5 635 l 1
 354.833007812 634.666992188 349.416992188 634.416992188 344.25 634.25 c 128
 339.083007812 634.083007812 334.166992188 634 329.5 634 c 2
 314.5 634 l 2
 308.833007812 634 304.083007812 633 300.25 631 c 128
 296.416992188 629 295 624.833007812 296 618.5 c 2
 362.5 191.5 l 1
 590 618.5 l 1
 591.333007812 621.833007812 591.75 624.5 591.25 626.5 c 128
 590.75 628.5 589.666992188 630 588 631 c 128
 586.333007812 632 584.333007812 632.666992188 582 633 c 128
 579.666992188 633.333007812 577.5 633.666992188 575.5 634 c 1
 559 634 l 2
 554 634 548.416992188 634.083007812 542.25 634.25 c 128
 536.083007812 634.416992188 530.166992188 634.666992188 524.5 635 c 1
 524.5 687 l 1
 776 687 l 1
 776 636 l 1
 720 630 l 1
EndSplineSet
EndChar

StartChar: W
Encoding: 87 87 37
Width: 992
VWidth: 1024
GlyphClass: 2
Flags: HW
LayerCount: 2
Back
Fore
SplineSet
1004.5 630 m 1
 696.5 -16.5 l 1
 592 -16.5 l 1
 539.5 453.5 l 1
 316.5 -16.5 l 1
 205 -16.5 l 1
 152.5 617.5 l 2
 151.833007812 624.166992188 149.75 628.25 146.25 629.75 c 128
 142.75 631.25 136.666992188 632.333007812 128 633 c 0
 123.666992188 633 119 633.166992188 114 633.5 c 0
 109.666992188 633.833007812 104.916992188 634.083007812 99.75 634.25 c 128
 94.5830078125 634.416992188 89.6669921875 634.666992188 85 635 c 1
 85 687 l 1
 364.5 687 l 1
 364.5 635 l 1
 358.5 634.666992188 352.583007812 634.416992188 346.75 634.25 c 128
 340.916992188 634.083007812 335.666992188 633.833007812 331 633.5 c 0
 325.333007812 633.166992188 320.166992188 633 315.5 633 c 0
 311.166992188 633 307.166992188 632.166992188 303.5 630.5 c 128
 299.833007812 628.833007812 298.333007812 624.833007812 299 618.5 c 2
 328.5 257 l 1
 534.5 687 l 1
 657.5 687 l 1
 702.5 248 l 1
 875.5 618.5 l 2
 876.833007812 621.833007812 877.333007812 624.5 877 626.5 c 128
 876.666992188 628.5 875.583007812 630 873.75 631 c 128
 871.916992188 632 869.5 632.666992188 866.5 633 c 128
 863.5 633.333007812 860 633.666992188 856 634 c 1
 840.5 634 l 2
 835.833007812 634 830.833007812 634.083007812 825.5 634.25 c 128
 820.166992188 634.416992188 815 634.666992188 810 635 c 1
 810 687 l 1
 1067 687 l 1
 1067 636 l 1
 1004.5 630 l 1
EndSplineSet
EndChar

StartChar: X
Encoding: 88 88 38
Width: 691
VWidth: 1024
GlyphClass: 2
Flags: HW
LayerCount: 2
Back
Fore
SplineSet
674 631 m 2
 666.666992188 630.333007812 661.25 628.583007812 657.75 625.75 c 128
 654.25 622.916992188 651.666992188 620.5 650 618.5 c 2
 426 367.5 l 1
 560 67.5 l 1
 562.666992188 62.5 565.416992188 59.4169921875 568.25 58.25 c 128
 571.083007812 57.0830078125 574.5 56.1669921875 578.5 55.5 c 1
 584.166992188 55.1669921875 590 54.8330078125 596 54.5 c 0
 601.333007812 54.1669921875 607.416992188 53.6669921875 614.25 53 c 128
 621.083007812 52.3330078125 628.333007812 51.6669921875 636 51 c 1
 636 0 l 1
 328.5 0 l 1
 328.5 51 l 1
 335.166992188 51.6669921875 342 52.1669921875 349 52.5 c 128
 356 52.8330078125 362.333007812 53.3330078125 368 54 c 0
 374.333007812 54.6669921875 380.666992188 55.1669921875 387 55.5 c 0
 391 55.8330078125 394.583007812 56.1669921875 397.75 56.5 c 128
 400.916992188 56.8330078125 403.583007812 57.5 405.75 58.5 c 128
 407.916992188 59.5 409.25 60.9169921875 409.75 62.75 c 128
 410.25 64.5830078125 409.833007812 67.1669921875 408.5 70.5 c 2
 329.5 251 l 1
 165 70.5 l 2
 162.333007812 67.8330078125 161.416992188 64.8330078125 162.25 61.5 c 128
 163.083007812 58.1669921875 166.333007812 56.1669921875 172 55.5 c 2
 236.5 51 l 1
 236.5 0 l 1
 -45 0 l 1
 -45 51 l 1
 -40.3330078125 51.6669921875 -35.4169921875 52.1669921875 -30.25 52.5 c 128
 -25.0830078125 52.8330078125 -20.5 53.3330078125 -16.5 54 c 0
 -11.8330078125 54.6669921875 -7.3330078125 55.1669921875 -3 55.5 c 256
 1.3330078125 55.8330078125 5 56.0830078125 8 56.25 c 128
 11 56.4169921875 13.6669921875 56.9169921875 16 57.75 c 128
 18.3330078125 58.5830078125 20.5 59.75 22.5 61.25 c 128
 24.5 62.75 26.8330078125 64.8330078125 29.5 67.5 c 2
 283.5 348 l 1
 161 619.5 l 2
 158.333007812 625.166992188 155.416992188 628.5 152.25 629.5 c 128
 149.083007812 630.5 143.666992188 631.333007812 136 632 c 1
 130.666992188 632 125.166992188 632.333007812 119.5 633 c 0
 114.833007812 633.333007812 109.416992188 633.75 103.25 634.25 c 128
 97.0830078125 634.75 91 635.333007812 85 636 c 1
 85 687 l 1
 394 687 l 1
 394 636 l 1
 385.666992188 635.333007812 377.583007812 634.75 369.75 634.25 c 128
 361.916992188 633.75 354.666992188 633.333007812 348 633 c 0
 340.333007812 632.666992188 333.166992188 632.333007812 326.5 632 c 0
 321.833007812 632 317.666992188 630.916992188 314 628.75 c 128
 310.333007812 626.583007812 309.833007812 622.5 312.5 616.5 c 2
 382 460 l 1
 522 616.5 l 2
 524.666992188 619.166992188 526.333007812 622.083007812 527 625.25 c 128
 527.666992188 628.416992188 524.666992188 630.333007812 518 631 c 2
 463 636 l 1
 463 687 l 1
 737.5 687 l 1
 737.5 636 l 1
 674 631 l 2
EndSplineSet
EndChar

StartChar: Y
Encoding: 89 89 39
Width: 697
VWidth: 1024
GlyphClass: 2
Flags: HW
LayerCount: 2
Back
Fore
SplineSet
705.5 631 m 1
 701.833007812 630.333007812 698.25 628.583007812 694.75 625.75 c 128
 691.25 622.916992188 688.666992188 620.5 687 618.5 c 2
 427 287.5 l 1
 384 71.5 l 1
 382.333007812 65.5 383.166992188 61.6669921875 386.5 60 c 128
 389.833007812 58.3330078125 395.166992188 57.1669921875 402.5 56.5 c 0
 408.5 56.1669921875 414.666992188 55.6669921875 421 55 c 0
 426.666992188 54.3330078125 432.916992188 53.6669921875 439.75 53 c 128
 446.583007812 52.3330078125 453.666992188 51.6669921875 461 51 c 1
 461 0 l 1
 151.5 0 l 1
 151.5 51 l 1
 158.166992188 51.6669921875 165 52.3330078125 172 53 c 128
 179 53.6669921875 185.333007812 54.3330078125 191 55 c 0
 197.333007812 55.6669921875 203.666992188 56.1669921875 210 56.5 c 0
 216.666992188 57.1669921875 222.166992188 58.3330078125 226.5 60 c 128
 230.833007812 61.6669921875 233.833007812 65.8330078125 235.5 72.5 c 2
 277.5 279.5 l 1
 163 619.5 l 2
 161.333007812 625.166992188 158.166992188 628.5 153.5 629.5 c 128
 148.833007812 630.5 143.333007812 631.333007812 137 632 c 1
 132 632 126.5 632.333007812 120.5 633 c 0
 115.5 633.333007812 109.916992188 633.75 103.75 634.25 c 128
 97.5830078125 634.75 91.6669921875 635.333007812 86 636 c 1
 86 687 l 1
 394 687 l 1
 394 636 l 1
 386.333007812 635.333007812 378.75 634.75 371.25 634.25 c 128
 363.75 633.75 357 633.333007812 351 633 c 0
 344 632.333007812 337.333007812 632 331 632 c 0
 325.333007812 632 320.5 630.916992188 316.5 628.75 c 128
 312.5 626.583007812 311.833007812 622.166992188 314.5 615.5 c 1
 385 393 l 1
 554 616.5 l 2
 556 619.166992188 556.333007812 622.25 555 625.75 c 128
 553.666992188 629.25 549.166992188 631.333007812 541.5 632 c 2
 481.5 636 l 1
 481.5 687 l 1
 771 687 l 1
 771 636 l 1
 705.5 631 l 1
EndSplineSet
EndChar

StartChar: Z
Encoding: 90 90 40
Width: 618
VWidth: 1024
GlyphClass: 2
Flags: HW
LayerCount: 2
Back
Fore
SplineSet
643 636 m 1
 166 63.5 l 1
 418 63.5 l 2
 423 63.5 428.583007812 64.9169921875 434.75 67.75 c 128
 440.916992188 70.5830078125 444.833007812 74.3330078125 446.5 79 c 1
 483.5 212 l 1
 569.5 212 l 1
 528.5 0 l 1
 -21.5 0 l 1
 -11.5 50 l 1
 464 623.5 l 1
 251 623.5 l 2
 245.666992188 623.5 239.916992188 622.416992188 233.75 620.25 c 128
 227.583007812 618.083007812 223.666992188 614.5 222 609.5 c 2
 189.5 500.5 l 1
 103.5 500.5 l 1
 140.5 687 l 1
 653.5 687 l 1
 643 636 l 1
EndSplineSet
EndChar

StartChar: bracketleft
Encoding: 91 91 41
Width: 459
VWidth: 1024
GlyphClass: 2
Flags: HW
LayerCount: 2
Back
Fore
SplineSet
497.5 663.5 m 1
 341 663.5 l 1
 193.5 -76 l 1
 351 -76 l 1
 339 -135 l 1
 55.5 -135 l 1
 225.5 725 l 1
 510 725 l 1
 497.5 663.5 l 1
EndSplineSet
EndChar

StartChar: backslash
Encoding: 92 92 42
Width: 506
VWidth: 1024
GlyphClass: 2
Flags: HW
LayerCount: 2
Back
Fore
SplineSet
426 -95 m 1
 0 687 l 1
 80 687 l 1
 506 -95 l 1
 426 -95 l 1
EndSplineSet
EndChar

StartChar: bracketright
Encoding: 93 93 43
Width: 459
VWidth: 1024
GlyphClass: 2
Flags: HW
LayerCount: 2
Back
Fore
SplineSet
242.5 -135 m 1
 -42 -135 l 1
 -29.5 -76 l 1
 128 -76 l 1
 274.5 663.5 l 1
 116.5 663.5 l 1
 129 725 l 1
 412.5 725 l 1
 242.5 -135 l 1
EndSplineSet
EndChar

StartChar: asciicircum
Encoding: 94 94 44
Width: 348
VWidth: 1024
GlyphClass: 2
Flags: HW
LayerCount: 2
Back
Fore
SplineSet
320.5 564 m 1
 252 661.5 l 1
 143.5 564 l 1
 58.5 564 l 1
 207 739.5 l 1
 327.5 739.5 l 1
 406.5 564 l 1
 320.5 564 l 1
EndSplineSet
EndChar

StartChar: underscore
Encoding: 95 95 45
Width: 350
VWidth: 1024
GlyphClass: 2
Flags: HW
LayerCount: 2
Back
Fore
SplineSet
268.5 -170 m 1
 -81.5 -170 l 1
 -65 -87.5 l 1
 285 -87.5 l 1
 268.5 -170 l 1
EndSplineSet
EndChar

StartChar: grave
Encoding: 96 96 46
Width: 434
VWidth: 1024
GlyphClass: 2
Flags: HW
LayerCount: 2
Back
Fore
SplineSet
278.5 564 m 1
 112.5 654.5 l 2
 108.833007812 656.5 105.5 659.25 102.5 662.75 c 128
 99.5 666.25 96.8330078125 670 94.5 674 c 128
 92.1669921875 678 90.3330078125 682.083007812 89 686.25 c 128
 87.6669921875 690.416992188 87 694.166992188 87 697.5 c 0
 87 703.5 88 709.75 90 716.25 c 128
 92 722.75 95.25 728.583007812 99.75 733.75 c 128
 104.25 738.916992188 110.25 743.166992188 117.75 746.5 c 128
 125.25 749.833007812 134.5 751.5 145.5 751.5 c 0
 152.5 751.5 158.666992188 751 164 750 c 128
 169.333007812 749 174.416992188 747.25 179.25 744.75 c 128
 184.083007812 742.25 188.916992188 738.916992188 193.75 734.75 c 128
 198.583007812 730.583007812 204 725.333007812 210 719 c 2
 350 564 l 1
 278.5 564 l 1
EndSplineSet
EndChar

StartChar: a
Encoding: 97 97 47
Width: 581
VWidth: 1024
GlyphClass: 2
Flags: HW
LayerCount: 2
Back
Fore
SplineSet
384 403.5 m 0
 384.333007812 404.833007812 384.25 408.166992188 383.75 413.5 c 128
 383.25 418.833007812 382.25 424.416992188 380.75 430.25 c 128
 379.25 436.083007812 377.416992188 441.25 375.25 445.75 c 128
 373.083007812 450.25 370.5 452.5 367.5 452.5 c 0
 345.5 452.5 325.583007812 448.5 307.75 440.5 c 128
 289.916992188 432.5 273.916992188 421.666992188 259.75 408 c 128
 245.583007812 394.333007812 233.333007812 378.5 223 360.5 c 128
 212.666992188 342.5 204.083007812 323.416992188 197.25 303.25 c 128
 190.416992188 283.083007812 185.333007812 262.5 182 241.5 c 128
 178.666992188 220.5 177 200.333007812 177 181 c 0
 177 167.333007812 177.25 153.666992188 177.75 140 c 128
 178.25 126.333007812 180.25 113.833007812 183.75 102.5 c 128
 187.25 91.1669921875 193.083007812 82 201.25 75 c 128
 209.416992188 68 221.166992188 64.5 236.5 64.5 c 0
 247.5 64.5 257.916992188 67 267.75 72 c 128
 277.583007812 77 286.583007812 82.75 294.75 89.25 c 128
 302.916992188 95.75 310.083007812 102.333007812 316.25 109 c 128
 322.416992188 115.666992188 327.333007812 120.666992188 331 124 c 1
 333.333007812 137.666992188 335.25 148.25 336.75 155.75 c 128
 338.25 163.25 339.583007812 170.416992188 340.75 177.25 c 128
 341.916992188 184.083007812 343.333007812 191.833007812 345 200.5 c 128
 346.666992188 209.166992188 349.083007812 221.583007812 352.25 237.75 c 128
 355.416992188 253.916992188 359.5 275.083007812 364.5 301.25 c 128
 369.5 327.416992188 376 361.5 384 403.5 c 0
578.5 30.5 m 1
 566.833007812 25.8330078125 554.583007812 21 541.75 16 c 128
 528.916992188 11 515.833007812 6.4169921875 502.5 2.25 c 128
 489.166992188 -1.9169921875 475.833007812 -5.4169921875 462.5 -8.25 c 128
 449.166992188 -11.0830078125 436 -12.5 423 -12.5 c 0
 401.333007812 -12.5 383.25 -8.5 368.75 -0.5 c 128
 354.25 7.5 343.666992188 19 337 34 c 1
 328 28 318.333007812 22.1669921875 308 16.5 c 128
 297.666992188 10.8330078125 286.833007812 5.9169921875 275.5 1.75 c 128
 264.166992188 -2.4169921875 252.5 -5.8330078125 240.5 -8.5 c 128
 228.5 -11.1669921875 216.333007812 -12.5 204 -12.5 c 0
 183 -12.5 164.166992188 -9.6669921875 147.5 -4 c 128
 130.833007812 1.6669921875 116.166992188 9.3330078125 103.5 19 c 128
 90.8330078125 28.6669921875 80.0830078125 39.8330078125 71.25 52.5 c 128
 62.4169921875 65.1669921875 55.1669921875 78.4169921875 49.5 92.25 c 128
 43.8330078125 106.083007812 39.6669921875 120.166992188 37 134.5 c 128
 34.3330078125 148.833007812 33 162.333007812 33 175 c 0
 33 200.333007812 35.75 226.25 41.25 252.75 c 128
 46.75 279.25 55.25 305 66.75 330 c 128
 78.25 355 92.6669921875 378.583007812 110 400.75 c 128
 127.333007812 422.916992188 147.833007812 442.25 171.5 458.75 c 128
 195.166992188 475.25 222.083007812 488.25 252.25 497.75 c 128
 282.416992188 507.25 315.833007812 512 352.5 512 c 0
 367.5 512 382.416992188 510 397.25 506 c 128
 412.083007812 502 425.333007812 496.833007812 437 490.5 c 1
 444.5 499.5 l 1
 554 499.5 l 1
 552.333007812 494.5 550.166992188 488.833007812 547.5 482.5 c 128
 544.833007812 476.166992188 542.166992188 470 539.5 464 c 128
 536.833007812 458 534.416992188 452.583007812 532.25 447.75 c 128
 530.083007812 442.916992188 528.833007812 439.333007812 528.5 437 c 2
 462 99.5 l 1
 462 91.8330078125 462.25 85.3330078125 462.75 80 c 128
 463.25 74.6669921875 464.5 70.4169921875 466.5 67.25 c 128
 468.5 64.0830078125 471.333007812 61.8330078125 475 60.5 c 128
 478.666992188 59.1669921875 483.5 58.5 489.5 58.5 c 0
 490.833007812 58.5 495.75 59.5 504.25 61.5 c 128
 512.75 63.5 522.083007812 65.8330078125 532.25 68.5 c 128
 542.416992188 71.1669921875 552 73.5830078125 561 75.75 c 128
 570 77.9169921875 575.833007812 79.3330078125 578.5 80 c 1
 578.5 30.5 l 1
EndSplineSet
EndChar

StartChar: b
Encoding: 98 98 48
Width: 545
VWidth: 1024
GlyphClass: 2
Flags: HW
LayerCount: 2
Back
Fore
SplineSet
370.5 314.5 m 0
 370.5 335.833007812 368.833007812 354.083007812 365.5 369.25 c 128
 362.166992188 384.416992188 357.916992188 396.833007812 352.75 406.5 c 128
 347.583007812 416.166992188 341.916992188 423.166992188 335.75 427.5 c 128
 329.583007812 431.833007812 323.5 434 317.5 434 c 0
 303.166992188 434 287.25 429.5 269.75 420.5 c 128
 252.25 411.5 235.666992188 400.333007812 220 387 c 1
 163 81 l 1
 168.333007812 72.3330078125 176.083007812 64.1669921875 186.25 56.5 c 128
 196.416992188 48.8330078125 209.5 45 225.5 45 c 0
 236.833007812 45 248.25 48.75 259.75 56.25 c 128
 271.25 63.75 282.333007812 73.9169921875 293 86.75 c 128
 303.666992188 99.5830078125 313.75 114.666992188 323.25 132 c 128
 332.75 149.333007812 341 168 348 188 c 128
 355 208 360.5 228.833007812 364.5 250.5 c 128
 368.5 272.166992188 370.5 293.5 370.5 314.5 c 0
513 318.5 m 0
 513 298.166992188 510.833007812 275.833007812 506.5 251.5 c 128
 502.166992188 227.166992188 495 202.75 485 178.25 c 128
 475 153.75 462.083007812 130.083007812 446.25 107.25 c 128
 430.416992188 84.4169921875 411.083007812 64.0830078125 388.25 46.25 c 128
 365.416992188 28.4169921875 338.75 14.1669921875 308.25 3.5 c 128
 277.75 -7.1669921875 243 -12.5 204 -12.5 c 0
 166.666992188 -12.5 132.583007812 -7.9169921875 101.75 1.25 c 128
 70.9169921875 10.4169921875 43.1669921875 23 18.5 39 c 1
 138 677 l 1
 48 685 l 1
 48 722 l 1
 221 754.5 l 1
 291 754.5 l 1
 237.5 479 l 1
 256.166992188 488.666992188 275.25 496.583007812 294.75 502.75 c 128
 314.25 508.916992188 333 512 351 512 c 0
 378.333007812 512 402.166992188 505.916992188 422.5 493.75 c 128
 442.833007812 481.583007812 459.75 466.166992188 473.25 447.5 c 128
 486.75 428.833007812 496.75 408 503.25 385 c 128
 509.75 362 513 339.833007812 513 318.5 c 0
EndSplineSet
EndChar

StartChar: c
Encoding: 99 99 49
Width: 492
VWidth: 1024
GlyphClass: 2
Flags: HW
LayerCount: 2
Back
Fore
SplineSet
461 436 m 0
 461 430 459.5 422.5 456.5 413.5 c 128
 453.5 404.5 448.25 395.833007812 440.75 387.5 c 128
 433.25 379.166992188 423.166992188 372.083007812 410.5 366.25 c 128
 397.833007812 360.416992188 381.833007812 357.5 362.5 357.5 c 1
 306 437 l 1
 286.666992188 432.666992188 270 424.666992188 256 413 c 128
 242 401.333007812 230.166992188 387.666992188 220.5 372 c 128
 210.833007812 356.333007812 202.916992188 339.5 196.75 321.5 c 128
 190.583007812 303.5 185.833007812 286.166992188 182.5 269.5 c 128
 179.166992188 252.833007812 176.916992188 237.75 175.75 224.25 c 128
 174.583007812 210.75 174 200.5 174 193.5 c 0
 174 177.833007812 174.666992188 162.25 176 146.75 c 128
 177.333007812 131.25 180.416992188 117.333007812 185.25 105 c 128
 190.083007812 92.6669921875 197.25 82.6669921875 206.75 75 c 128
 216.25 67.3330078125 229.333007812 63.5 246 63.5 c 0
 258.666992188 63.5 271.5 65.3330078125 284.5 69 c 128
 297.5 72.6669921875 311.583007812 79.5 326.75 89.5 c 128
 341.916992188 99.5 358.583007812 113.25 376.75 130.75 c 128
 394.916992188 148.25 415.5 170.833007812 438.5 198.5 c 1
 438.5 96.5 l 1
 424.5 79.8330078125 409.5 64.8330078125 393.5 51.5 c 128
 377.5 38.1669921875 360.25 26.75 341.75 17.25 c 128
 323.25 7.75 303.416992188 0.4169921875 282.25 -4.75 c 128
 261.083007812 -9.9169921875 238.333007812 -12.5 214 -12.5 c 0
 182.666992188 -12.5 155.666992188 -7.8330078125 133 1.5 c 128
 110.333007812 10.8330078125 91.6669921875 24 77 41 c 128
 62.3330078125 58 51.5 78.5 44.5 102.5 c 128
 37.5 126.5 34 153.166992188 34 182.5 c 0
 34 226.833007812 40.9169921875 268.916992188 54.75 308.75 c 128
 68.5830078125 348.583007812 88.75 383.583007812 115.25 413.75 c 128
 141.75 443.916992188 174.083007812 467.833007812 212.25 485.5 c 128
 250.416992188 503.166992188 294 512 343 512 c 0
 363.333007812 512 380.916992188 509.583007812 395.75 504.75 c 128
 410.583007812 499.916992188 422.833007812 493.75 432.5 486.25 c 128
 442.166992188 478.75 449.333007812 470.583007812 454 461.75 c 128
 458.666992188 452.916992188 461 444.333007812 461 436 c 0
EndSplineSet
EndChar

StartChar: d
Encoding: 100 100 50
Width: 579
VWidth: 1024
GlyphClass: 2
Flags: HW
LayerCount: 2
Back
Fore
SplineSet
385 403.5 m 2
 385.333007812 404.833007812 384.333007812 408.166992188 382 413.5 c 128
 379.666992188 418.833007812 376.5 424.5 372.5 430.5 c 128
 368.5 436.5 363.75 441.833007812 358.25 446.5 c 128
 352.75 451.166992188 347 453.5 341 453.5 c 0
 323 453.5 304.25 446.833007812 284.75 433.5 c 128
 265.25 420.166992188 247.25 401.416992188 230.75 377.25 c 128
 214.25 353.083007812 200.666992188 324.166992188 190 290.5 c 128
 179.333007812 256.833007812 174 219.666992188 174 179 c 0
 174 137.666992188 179 107.583007812 189 88.75 c 128
 199 69.9169921875 213.5 60.5 232.5 60.5 c 0
 241.166992188 60.5 249.916992188 62.6669921875 258.75 67 c 128
 267.583007812 71.3330078125 276.416992188 77.1669921875 285.25 84.5 c 128
 294.083007812 91.8330078125 302.916992188 100.083007812 311.75 109.25 c 128
 320.583007812 118.416992188 329.333007812 128 338 138 c 1
 385 403.5 l 2
466 92 m 2
 464.333007812 83.6669921875 463.916992188 76.75 464.75 71.25 c 128
 465.583007812 65.75 466.916992188 61.4169921875 468.75 58.25 c 128
 470.583007812 55.0830078125 472.833007812 52.9169921875 475.5 51.75 c 128
 478.166992188 50.5830078125 480.5 50 482.5 50 c 0
 489.5 50 497.333007812 51.0830078125 506 53.25 c 128
 514.666992188 55.4169921875 523.416992188 58.0830078125 532.25 61.25 c 128
 541.083007812 64.4169921875 549.416992188 67.75 557.25 71.25 c 128
 565.083007812 74.75 571.833007812 78 577.5 81 c 1
 577.5 30.5 l 1
 568.833007812 25.5 558.333007812 20.4169921875 546 15.25 c 128
 533.666992188 10.0830078125 520.5 5.4169921875 506.5 1.25 c 128
 492.5 -2.9169921875 478.25 -6.25 463.75 -8.75 c 128
 449.25 -11.25 435.333007812 -12.5 422 -12.5 c 0
 396 -12.5 375.5 -8.1669921875 360.5 0.5 c 128
 345.5 9.1669921875 335.166992188 21.3330078125 329.5 37 c 1
 320.5 30 310.75 23.5 300.25 17.5 c 128
 289.75 11.5 278.916992188 6.25 267.75 1.75 c 128
 256.583007812 -2.75 245.333007812 -6.25 234 -8.75 c 128
 222.666992188 -11.25 211.5 -12.5 200.5 -12.5 c 0
 170.833007812 -12.5 145.416992188 -7 124.25 4 c 128
 103.083007812 15 85.75 29.4169921875 72.25 47.25 c 128
 58.75 65.0830078125 48.8330078125 85 42.5 107 c 128
 36.1669921875 129 33 151 33 173 c 0
 33 199 35.8330078125 225.5 41.5 252.5 c 128
 47.1669921875 279.5 55.75 305.5 67.25 330.5 c 128
 78.75 355.5 93.0830078125 379.083007812 110.25 401.25 c 128
 127.416992188 423.416992188 147.5 442.666992188 170.5 459 c 128
 193.5 475.333007812 219.416992188 488.25 248.25 497.75 c 128
 277.083007812 507.25 308.666992188 512 343 512 c 0
 355.666992188 512 367.083007812 510.5 377.25 507.5 c 128
 387.416992188 504.5 395.833007812 501.833007812 402.5 499.5 c 1
 433 677 l 1
 341 685 l 1
 341 722 l 1
 514 754.5 l 1
 583.5 754.5 l 1
 466 92 l 2
EndSplineSet
EndChar

StartChar: e
Encoding: 101 101 51
Width: 491
VWidth: 1024
GlyphClass: 2
Flags: HW
LayerCount: 2
Back
Fore
SplineSet
341 405.5 m 0
 341 411.5 340.583007812 417.416992188 339.75 423.25 c 128
 338.916992188 429.083007812 337.25 434.333007812 334.75 439 c 128
 332.25 443.666992188 328.583007812 447.416992188 323.75 450.25 c 128
 318.916992188 453.083007812 312.666992188 454.5 305 454.5 c 0
 289 454.5 274.75 448.833007812 262.25 437.5 c 128
 249.75 426.166992188 238.666992188 411.75 229 394.25 c 128
 219.333007812 376.75 211 357.583007812 204 336.75 c 128
 197 315.916992188 191.166992188 296.166992188 186.5 277.5 c 1
 204.166992188 281.5 222.166992188 287.5 240.5 295.5 c 128
 258.833007812 303.5 275.416992188 313.083007812 290.25 324.25 c 128
 305.083007812 335.416992188 317.25 347.833007812 326.75 361.5 c 128
 336.25 375.166992188 341 389.833007812 341 405.5 c 0
474 404.5 m 0
 474 386.5 469.916992188 369.833007812 461.75 354.5 c 128
 453.583007812 339.166992188 442.333007812 325.166992188 428 312.5 c 128
 413.666992188 299.833007812 396.916992188 288.416992188 377.75 278.25 c 128
 358.583007812 268.083007812 338.083007812 259.333007812 316.25 252 c 128
 294.416992188 244.666992188 271.75 238.75 248.25 234.25 c 128
 224.75 229.75 201.666992188 226.5 179 224.5 c 1
 178.333007812 218.166992188 177.666992188 211 177 203 c 128
 176.333007812 195 176 188.166992188 176 182.5 c 0
 176 164.833007812 177.333007812 148.5 180 133.5 c 128
 182.666992188 118.5 187 105.5 193 94.5 c 128
 199 83.5 206.916992188 74.9169921875 216.75 68.75 c 128
 226.583007812 62.5830078125 238.666992188 59.5 253 59.5 c 0
 264 59.5 275.166992188 61.6669921875 286.5 66 c 128
 297.833007812 70.3330078125 311 77.5830078125 326 87.75 c 128
 341 97.9169921875 358.5 111.333007812 378.5 128 c 128
 398.5 144.666992188 422.5 165.166992188 450.5 189.5 c 1
 450.5 92 l 1
 440.5 82.3330078125 427.5 71.4169921875 411.5 59.25 c 128
 395.5 47.0830078125 377.333007812 35.6669921875 357 25 c 128
 336.666992188 14.3330078125 314.833007812 5.4169921875 291.5 -1.75 c 128
 268.166992188 -8.9169921875 244 -12.5 219 -12.5 c 0
 196.666992188 -12.5 174.5 -9.6669921875 152.5 -4 c 128
 130.5 1.6669921875 110.75 11.6669921875 93.25 26 c 128
 75.75 40.3330078125 61.5 59.75 50.5 84.25 c 128
 39.5 108.75 34 140 34 178 c 0
 34 204 37.25 230.333007812 43.75 257 c 128
 50.25 283.666992188 59.5 309.333007812 71.5 334 c 128
 83.5 358.666992188 98.1669921875 381.833007812 115.5 403.5 c 128
 132.833007812 425.166992188 152.416992188 444 174.25 460 c 128
 196.083007812 476 220 488.666992188 246 498 c 128
 272 507.333007812 299.5 512 328.5 512 c 0
 353.5 512 375.166992188 507.833007812 393.5 499.5 c 128
 411.833007812 491.166992188 427 481.25 439 469.75 c 128
 451 458.25 459.833007812 446.416992188 465.5 434.25 c 128
 471.166992188 422.083007812 474 412.166992188 474 404.5 c 0
EndSplineSet
EndChar

StartChar: f
Encoding: 102 102 52
Width: 370
VWidth: 1024
GlyphClass: 2
Flags: HW
LayerCount: 2
Back
Fore
SplineSet
493.5 686 m 0
 493.5 678.333007812 492.333007812 670.75 490 663.25 c 128
 487.666992188 655.75 483.25 648.833007812 476.75 642.5 c 128
 470.25 636.166992188 461.25 630.5 449.75 625.5 c 128
 438.25 620.5 423.5 616.833007812 405.5 614.5 c 1
 342 675 l 1
 328 662.666992188 316.75 647.333007812 308.25 629 c 128
 299.75 610.666992188 293 591.75 288 572.25 c 128
 283 552.75 279.333007812 533.916992188 277 515.75 c 128
 274.666992188 497.583007812 272.5 482.333007812 270.5 470 c 1
 395.5 470 l 1
 395.5 409.5 l 1
 260 409.5 l 1
 258.666992188 399.833007812 256.666992188 385.416992188 254 366.25 c 128
 251.333007812 347.083007812 248.25 325.25 244.75 300.75 c 128
 241.25 276.25 237.416992188 250.333007812 233.25 223 c 128
 229.083007812 195.666992188 225 169.333007812 221 144 c 128
 217 118.666992188 213.166992188 95.4169921875 209.5 74.25 c 128
 205.833007812 53.0830078125 202.5 36.5 199.5 24.5 c 0
 195.166992188 6.5 189 -12.4169921875 181 -32.25 c 128
 173 -52.0830078125 163.333007812 -71.5830078125 152 -90.75 c 128
 140.666992188 -109.916992188 127.916992188 -128.166992188 113.75 -145.5 c 128
 99.5830078125 -162.833007812 84.0830078125 -178.083007812 67.25 -191.25 c 128
 50.4169921875 -204.416992188 32.3330078125 -214.916992188 13 -222.75 c 128
 -6.3330078125 -230.583007812 -26.6669921875 -234.5 -48 -234.5 c 0
 -62.6669921875 -234.5 -75.3330078125 -231.916992188 -86 -226.75 c 128
 -96.6669921875 -221.583007812 -105.5 -215.333007812 -112.5 -208 c 128
 -119.5 -200.666992188 -124.666992188 -192.833007812 -128 -184.5 c 128
 -131.333007812 -176.166992188 -133 -169 -133 -163 c 0
 -133 -149.333007812 -128.666992188 -135.666992188 -120 -122 c 128
 -111.333007812 -108.333007812 -100 -96.6669921875 -86 -87 c 1
 6 -145.5 l 1
 14 -134.166992188 21.3330078125 -120.916992188 28 -105.75 c 128
 34.6669921875 -90.5830078125 40.75 -73.9169921875 46.25 -55.75 c 128
 51.75 -37.5830078125 56.9169921875 -18.25 61.75 2.25 c 128
 66.5830078125 22.75 71 43.8330078125 75 65.5 c 0
 83.6669921875 112.833007812 91.4169921875 165.166992188 98.25 222.5 c 128
 105.083007812 279.833007812 113.333007812 341.166992188 123 406.5 c 1
 45 398.5 l 1
 47 446.5 l 1
 135 477 l 1
 138.333007812 494 142.833007812 512.583007812 148.5 532.75 c 128
 154.166992188 552.916992188 161.5 573.333007812 170.5 594 c 128
 179.5 614.666992188 190.166992188 634.583007812 202.5 653.75 c 128
 214.833007812 672.916992188 229.5 690 246.5 705 c 128
 263.5 720 282.916992188 732 304.75 741 c 128
 326.583007812 750 351.333007812 754.5 379 754.5 c 0
 398 754.5 414.583007812 752.166992188 428.75 747.5 c 128
 442.916992188 742.833007812 454.833007812 737.083007812 464.5 730.25 c 128
 474.166992188 723.416992188 481.416992188 716 486.25 708 c 128
 491.083007812 700 493.5 692.666992188 493.5 686 c 0
EndSplineSet
EndChar

StartChar: g
Encoding: 103 103 53
Width: 497
VWidth: 1024
GlyphClass: 2
Flags: HW
LayerCount: 2
Back
Fore
SplineSet
333 -85 m 0
 333 -73.3330078125 329.333007812 -62.3330078125 322 -52 c 128
 314.666992188 -41.6669921875 301.5 -32.1669921875 282.5 -23.5 c 1
 168 26.5 l 1
 156.666992188 22.1669921875 147.166992188 16.8330078125 139.5 10.5 c 128
 131.833007812 4.1669921875 125.583007812 -2.9169921875 120.75 -10.75 c 128
 115.916992188 -18.5830078125 112.5 -27 110.5 -36 c 128
 108.5 -45 107.5 -54.1669921875 107.5 -63.5 c 0
 107.5 -74.5 109.166992188 -86.5830078125 112.5 -99.75 c 128
 115.833007812 -112.916992188 121.583007812 -125.25 129.75 -136.75 c 128
 137.916992188 -148.25 148.916992188 -157.833007812 162.75 -165.5 c 128
 176.583007812 -173.166992188 194 -177 215 -177 c 0
 238.333007812 -177 257.583007812 -173.666992188 272.75 -167 c 128
 287.916992188 -160.333007812 300 -152.25 309 -142.75 c 128
 318 -133.25 324.25 -123.25 327.75 -112.75 c 128
 331.25 -102.25 333 -93 333 -85 c 0
321.5 368.5 m 0
 321.5 380.5 321.333007812 392 321 403 c 128
 320.666992188 414 319.25 423.666992188 316.75 432 c 128
 314.25 440.333007812 310.333007812 446.916992188 305 451.75 c 128
 299.666992188 456.583007812 292.166992188 459 282.5 459 c 0
 276.833007812 459 268.916992188 455 258.75 447 c 128
 248.583007812 439 238.5 427.666992188 228.5 413 c 128
 218.5 398.333007812 209.833007812 380.75 202.5 360.25 c 128
 195.166992188 339.75 191.5 317 191.5 292 c 0
 191.5 280 191.916992188 269.083007812 192.75 259.25 c 128
 193.583007812 249.416992188 195.25 240.916992188 197.75 233.75 c 128
 200.25 226.583007812 204 221 209 217 c 128
 214 213 220.833007812 211 229.5 211 c 0
 246.5 211 260.833007812 216.25 272.5 226.75 c 128
 284.166992188 237.25 293.583007812 250.416992188 300.75 266.25 c 128
 307.916992188 282.083007812 313.166992188 299.166992188 316.5 317.5 c 128
 319.833007812 335.833007812 321.5 352.833007812 321.5 368.5 c 0
451.5 427 m 1
 454.5 419.333007812 457.166992188 409.916992188 459.5 398.75 c 128
 461.833007812 387.583007812 463 375.833007812 463 363.5 c 0
 463 338.166992188 458.083007812 313.5 448.25 289.5 c 128
 438.416992188 265.5 423.916992188 244.166992188 404.75 225.5 c 128
 385.583007812 206.833007812 361.833007812 191.833007812 333.5 180.5 c 128
 305.166992188 169.166992188 272.5 163.333007812 235.5 163 c 1
 231.833007812 153.333007812 229.166992188 143.583007812 227.5 133.75 c 128
 225.833007812 123.916992188 225.5 116.166992188 226.5 110.5 c 1
 362.5 49 l 1
 378.833007812 42 393.666992188 34.9169921875 407 27.75 c 128
 420.333007812 20.5830078125 431.75 12.6669921875 441.25 4 c 128
 450.75 -4.6669921875 458.083007812 -14.5 463.25 -25.5 c 128
 468.416992188 -36.5 471 -49.5 471 -64.5 c 0
 471 -86.1669921875 463.5 -107.166992188 448.5 -127.5 c 128
 433.5 -147.833007812 413.166992188 -165.916992188 387.5 -181.75 c 128
 361.833007812 -197.583007812 331.916992188 -210.333007812 297.75 -220 c 128
 263.583007812 -229.666992188 227.166992188 -234.5 188.5 -234.5 c 0
 147.833007812 -234.5 113.583007812 -229.916992188 85.75 -220.75 c 128
 57.9169921875 -211.583007812 35.25 -199.75 17.75 -185.25 c 128
 0.25 -170.75 -12.3330078125 -154.333007812 -20 -136 c 128
 -27.6669921875 -117.666992188 -31.5 -99.3330078125 -31.5 -81 c 0
 -31.5 -63.6669921875 -28 -47.6669921875 -21 -33 c 128
 -14 -18.3330078125 -4.3330078125 -5 8 7 c 128
 20.3330078125 19 34.8330078125 29.5830078125 51.5 38.75 c 128
 68.1669921875 47.9169921875 86.1669921875 55.8330078125 105.5 62.5 c 1
 104.166992188 70.5 104.25 79.5830078125 105.75 89.75 c 128
 107.25 99.9169921875 109.75 110.25 113.25 120.75 c 128
 116.75 131.25 121.166992188 141.333007812 126.5 151 c 128
 131.833007812 160.666992188 137.833007812 169 144.5 176 c 1
 130.833007812 182.333007812 118.25 189.583007812 106.75 197.75 c 128
 95.25 205.916992188 85.25 215.166992188 76.75 225.5 c 128
 68.25 235.833007812 61.6669921875 247.5 57 260.5 c 128
 52.3330078125 273.5 50 288 50 304 c 256
 50 320 52 336.25 56 352.75 c 128
 60 369.25 66.1669921875 385.166992188 74.5 400.5 c 128
 82.8330078125 415.833007812 93.25 430.25 105.75 443.75 c 128
 118.25 457.25 133.083007812 469.083007812 150.25 479.25 c 128
 167.416992188 489.416992188 186.833007812 497.416992188 208.5 503.25 c 128
 230.166992188 509.083007812 254.166992188 512 280.5 512 c 0
 293.5 512 305.916992188 511.083007812 317.75 509.25 c 128
 329.583007812 507.416992188 340.5 505.083007812 350.5 502.25 c 128
 360.5 499.416992188 369.416992188 496.583007812 377.25 493.75 c 128
 385.083007812 490.916992188 391.5 488.5 396.5 486.5 c 1
 546 486.5 l 1
 546 427 l 1
 451.5 427 l 1
EndSplineSet
EndChar

StartChar: h
Encoding: 104 104 54
Width: 578
VWidth: 1024
GlyphClass: 2
Flags: HW
LayerCount: 2
Back
Fore
SplineSet
576.5 28.5 m 1
 550.833007812 16.1669921875 524.916992188 6.25 498.75 -1.25 c 128
 472.583007812 -8.75 446 -12.5 419 -12.5 c 0
 407 -12.5 394.75 -11.25 382.25 -8.75 c 128
 369.75 -6.25 358.666992188 -2.1669921875 349 3.5 c 128
 339.333007812 9.1669921875 332 16.5830078125 327 25.75 c 128
 322 34.9169921875 320.833007812 46.1669921875 323.5 59.5 c 2
 385 357.5 l 2
 387.666992188 369.833007812 388.25 380.75 386.75 390.25 c 128
 385.25 399.75 382.666992188 407.75 379 414.25 c 128
 375.333007812 420.75 370.833007812 425.666992188 365.5 429 c 128
 360.166992188 432.333007812 355 434 350 434 c 0
 342.333007812 434 333.666992188 432.083007812 324 428.25 c 128
 314.333007812 424.416992188 304.166992188 419.083007812 293.5 412.25 c 128
 282.833007812 405.416992188 271.916992188 397.416992188 260.75 388.25 c 128
 249.583007812 379.083007812 238.833007812 369.166992188 228.5 358.5 c 1
 153.5 0 l 1
 17.5 0 l 1
 158.5 677 l 1
 68.5 685 l 1
 68.5 722 l 1
 241.5 754.5 l 1
 312.5 754.5 l 1
 251 465 l 1
 271.666992188 477.666992188 295.166992188 488.666992188 321.5 498 c 128
 347.833007812 507.333007812 376.166992188 512 406.5 512 c 0
 432.166992188 512 453.5 508.5 470.5 501.5 c 128
 487.5 494.5 500.75 484.666992188 510.25 472 c 128
 519.75 459.333007812 525.583007812 444.083007812 527.75 426.25 c 128
 529.916992188 408.416992188 528.833007812 388.833007812 524.5 367.5 c 2
 467 96.5 l 2
 465.333007812 87.8330078125 465.083007812 80.6669921875 466.25 75 c 128
 467.416992188 69.3330078125 469.333007812 64.6669921875 472 61 c 128
 474.666992188 57.3330078125 477.666992188 54.75 481 53.25 c 128
 484.333007812 51.75 487.5 51 490.5 51 c 0
 505.5 51 519.583007812 53.6669921875 532.75 59 c 128
 545.916992188 64.3330078125 560.166992188 71.3330078125 575.5 80 c 1
 576.5 28.5 l 1
EndSplineSet
EndChar

StartChar: i
Encoding: 105 105 55
Width: 317
VWidth: 1024
GlyphClass: 2
Flags: HW
LayerCount: 2
Back
Fore
SplineSet
315.5 33 m 1
 284.833007812 16.3330078125 255.666992188 4.5830078125 228 -2.25 c 128
 200.333007812 -9.0830078125 171.833007812 -12.5 142.5 -12.5 c 0
 123.833007812 -12.5 108.083007812 -9.3330078125 95.25 -3 c 128
 82.4169921875 3.3330078125 72.3330078125 11.5 65 21.5 c 128
 57.6669921875 31.5 52.8330078125 42.75 50.5 55.25 c 128
 48.1669921875 67.75 48.3330078125 80.3330078125 51 93 c 2
 115.5 433 l 1
 27.5 442.5 l 1
 27.5 478 l 1
 196.5 512 l 1
 268.5 512 l 1
 189.5 101.5 l 2
 188.166992188 95.5 187.333007812 89.6669921875 187 84 c 128
 186.666992188 78.3330078125 187.083007812 73.3330078125 188.25 69 c 128
 189.416992188 64.6669921875 191.666992188 61.1669921875 195 58.5 c 128
 198.333007812 55.8330078125 203 54.5 209 54.5 c 0
 211.666992188 54.5 216.916992188 55.3330078125 224.75 57 c 128
 232.583007812 58.6669921875 241.666992188 61 252 64 c 128
 262.333007812 67 273.083007812 70.6669921875 284.25 75 c 128
 295.416992188 79.3330078125 305.833007812 84 315.5 89 c 1
 315.5 33 l 1
302 679 m 256
 302 668 299.916992188 657.666992188 295.75 648 c 128
 291.583007812 638.333007812 285.833007812 629.833007812 278.5 622.5 c 128
 271.166992188 615.166992188 262.666992188 609.416992188 253 605.25 c 128
 243.333007812 601.083007812 233 599 222 599 c 256
 211 599 200.75 601.083007812 191.25 605.25 c 128
 181.75 609.416992188 173.416992188 615.166992188 166.25 622.5 c 128
 159.083007812 629.833007812 153.5 638.333007812 149.5 648 c 128
 145.5 657.666992188 143.5 668 143.5 679 c 256
 143.5 690 145.5 700.333007812 149.5 710 c 128
 153.5 719.666992188 159.083007812 728 166.25 735 c 128
 173.416992188 742 181.75 747.583007812 191.25 751.75 c 128
 200.75 755.916992188 211 758 222 758 c 256
 233 758 243.333007812 755.916992188 253 751.75 c 128
 262.666992188 747.583007812 271.166992188 742 278.5 735 c 128
 285.833007812 728 291.583007812 719.666992188 295.75 710 c 128
 299.916992188 700.333007812 302 690 302 679 c 256
EndSplineSet
EndChar

StartChar: j
Encoding: 106 106 56
Width: 325
VWidth: 1024
GlyphClass: 2
Flags: HW
LayerCount: 2
Back
Fore
SplineSet
209 86 m 2
 206 68.6669921875 200.916992188 48.75 193.75 26.25 c 128
 186.583007812 3.75 177.583007812 -19.3330078125 166.75 -43 c 128
 155.916992188 -66.6669921875 143.333007812 -90 129 -113 c 128
 114.666992188 -136 98.6669921875 -156.5 81 -174.5 c 128
 63.3330078125 -192.5 44.1669921875 -207 23.5 -218 c 128
 2.8330078125 -229 -19.3330078125 -234.5 -43 -234.5 c 0
 -55 -234.5 -66.4169921875 -233 -77.25 -230 c 128
 -88.0830078125 -227 -97.5 -222.833007812 -105.5 -217.5 c 128
 -113.5 -212.166992188 -119.916992188 -205.916992188 -124.75 -198.75 c 128
 -129.583007812 -191.583007812 -132 -183.666992188 -132 -175 c 0
 -132 -168.666992188 -130.916992188 -162.916992188 -128.75 -157.75 c 128
 -126.583007812 -152.583007812 -123.583007812 -147.833007812 -119.75 -143.5 c 128
 -115.916992188 -139.166992188 -111.5 -135.083007812 -106.5 -131.25 c 128
 -101.5 -127.416992188 -96 -123.666992188 -90 -120 c 1
 7 -145.5 l 1
 11.6669921875 -138.166992188 16.4169921875 -129.166992188 21.25 -118.5 c 128
 26.0830078125 -107.833007812 30.75 -96.25 35.25 -83.75 c 128
 39.75 -71.25 43.8330078125 -58.3330078125 47.5 -45 c 128
 51.1669921875 -31.6669921875 54.1669921875 -18.6669921875 56.5 -6 c 2
 132 432 l 1
 44 441.5 l 1
 44 478 l 1
 214 512 l 1
 281.5 512 l 1
 209 86 l 2
318.5 679 m 256
 318.5 668 316.333007812 657.666992188 312 648 c 128
 307.666992188 638.333007812 301.833007812 629.833007812 294.5 622.5 c 128
 287.166992188 615.166992188 278.583007812 609.416992188 268.75 605.25 c 128
 258.916992188 601.083007812 248.5 599 237.5 599 c 256
 226.5 599 216.166992188 601.083007812 206.5 605.25 c 128
 196.833007812 609.416992188 188.5 615.166992188 181.5 622.5 c 128
 174.5 629.833007812 168.916992188 638.333007812 164.75 648 c 128
 160.583007812 657.666992188 158.5 668 158.5 679 c 256
 158.5 690 160.583007812 700.333007812 164.75 710 c 128
 168.916992188 719.666992188 174.5 728 181.5 735 c 128
 188.5 742 196.833007812 747.583007812 206.5 751.75 c 128
 216.166992188 755.916992188 226.5 758 237.5 758 c 256
 248.5 758 258.916992188 755.916992188 268.75 751.75 c 128
 278.583007812 747.583007812 287.166992188 742 294.5 735 c 128
 301.833007812 728 307.666992188 719.666992188 312 710 c 128
 316.333007812 700.333007812 318.5 690 318.5 679 c 256
EndSplineSet
EndChar

StartChar: k
Encoding: 107 107 57
Width: 563
VWidth: 1024
GlyphClass: 2
Flags: HW
LayerCount: 2
Back
Fore
SplineSet
551 26.5 m 1
 542.333007812 22.1669921875 532 17.6669921875 520 13 c 128
 508 8.3330078125 495.333007812 4.1669921875 482 0.5 c 128
 468.666992188 -3.1669921875 455.166992188 -6.25 441.5 -8.75 c 128
 427.833007812 -11.25 415.166992188 -12.5 403.5 -12.5 c 0
 394.166992188 -12.5 384.666992188 -10.8330078125 375 -7.5 c 128
 365.333007812 -4.1669921875 356 0.1669921875 347 5.5 c 128
 338 10.8330078125 329.75 16.8330078125 322.25 23.5 c 128
 314.75 30.1669921875 308.666992188 37 304 44 c 0
 298.333007812 52.6669921875 291.583007812 64.6669921875 283.75 80 c 128
 275.916992188 95.3330078125 267.833007812 111.75 259.5 129.25 c 128
 251.166992188 146.75 242.916992188 164.333007812 234.75 182 c 128
 226.583007812 199.666992188 219.333007812 215.5 213 229.5 c 1
 191.5 210 l 1
 148.5 0 l 1
 12.5 0 l 1
 149.5 677 l 1
 59.5 685 l 1
 59.5 722 l 1
 232.5 754.5 l 1
 302 754.5 l 1
 216 334 l 1
 331 451.5 l 1
 352 473.5 371.833007812 489.083007812 390.5 498.25 c 128
 409.166992188 507.416992188 428.5 512 448.5 512 c 0
 460.833007812 512 472.333007812 510.25 483 506.75 c 128
 493.666992188 503.25 502.916992188 498.583007812 510.75 492.75 c 128
 518.583007812 486.916992188 524.666992188 480.5 529 473.5 c 128
 533.333007812 466.5 535.5 459.5 535.5 452.5 c 0
 535.5 446.5 534.75 439.166992188 533.25 430.5 c 128
 531.75 421.833007812 528.166992188 412.916992188 522.5 403.75 c 128
 516.833007812 394.583007812 508.333007812 385.583007812 497 376.75 c 128
 485.666992188 367.916992188 470.166992188 360.166992188 450.5 353.5 c 1
 409.5 420 l 1
 401.5 413 392.833007812 405.083007812 383.5 396.25 c 128
 374.166992188 387.416992188 364.916992188 378.583007812 355.75 369.75 c 128
 346.583007812 360.916992188 337.75 352.416992188 329.25 344.25 c 128
 320.75 336.083007812 313.333007812 329.166992188 307 323.5 c 1
 311.666992188 314.833007812 316.75 303.833007812 322.25 290.5 c 128
 327.75 277.166992188 333.583007812 262.833007812 339.75 247.5 c 128
 345.916992188 232.166992188 352.416992188 216.5 359.25 200.5 c 128
 366.083007812 184.5 373.333007812 169.5 381 155.5 c 0
 388.333007812 142.166992188 395.333007812 129.333007812 402 117 c 128
 408.666992188 104.666992188 415.333007812 93.6669921875 422 84 c 128
 428.666992188 74.3330078125 435.666992188 66.5830078125 443 60.75 c 128
 450.333007812 54.9169921875 458.333007812 52 467 52 c 0
 467.666992188 52 474.583007812 53.9169921875 487.75 57.75 c 128
 500.916992188 61.5830078125 522 69.3330078125 551 81 c 1
 551 26.5 l 1
EndSplineSet
EndChar

StartChar: l
Encoding: 108 108 58
Width: 313
VWidth: 1024
GlyphClass: 2
Flags: HW
LayerCount: 2
Back
Fore
SplineSet
311.5 29.5 m 1
 286.5 16.8330078125 259.583007812 6.6669921875 230.75 -1 c 128
 201.916992188 -8.6669921875 174.166992188 -12.5 147.5 -12.5 c 0
 113.5 -12.5 87.0830078125 -5.4169921875 68.25 8.75 c 128
 49.4169921875 22.9169921875 40 41.8330078125 40 65.5 c 0
 40 71.1669921875 40.25 77.0830078125 40.75 83.25 c 128
 41.25 89.4169921875 42.3330078125 95.8330078125 44 102.5 c 1
 155.5 677 l 1
 65.5 685 l 1
 65.5 722 l 1
 238.5 754.5 l 1
 306 754.5 l 1
 180 104.5 l 2
 179 98.5 178.583007812 92.5830078125 178.75 86.75 c 128
 178.916992188 80.9169921875 180 75.5830078125 182 70.75 c 128
 184 65.9169921875 187 62 191 59 c 128
 195 56 200.333007812 54.5 207 54.5 c 0
 215 54.5 228.333007812 56.9169921875 247 61.75 c 128
 265.666992188 66.5830078125 287.166992188 74.3330078125 311.5 85 c 1
 311.5 29.5 l 1
EndSplineSet
EndChar

StartChar: m
Encoding: 109 109 59
Width: 846
VWidth: 1024
GlyphClass: 2
Flags: HW
LayerCount: 2
Back
Fore
SplineSet
843 29.5 m 1
 817 16.1669921875 791.916992188 5.8330078125 767.75 -1.5 c 128
 743.583007812 -8.8330078125 718.333007812 -12.5 692 -12.5 c 0
 676.333007812 -12.5 661.75 -10.9169921875 648.25 -7.75 c 128
 634.75 -4.5830078125 623.166992188 0.25 613.5 6.75 c 128
 603.833007812 13.25 596.666992188 21.1669921875 592 30.5 c 128
 587.333007812 39.8330078125 586.333007812 50.8330078125 589 63.5 c 2
 645 336 l 1
 658.666992188 400 652.166992188 432 625.5 432 c 0
 610.5 432 596.416992188 428.75 583.25 422.25 c 128
 570.083007812 415.75 558.416992188 408 548.25 399 c 128
 538.083007812 390 529.333007812 380.833007812 522 371.5 c 128
 514.666992188 362.166992188 509.333007812 354.666992188 506 349 c 1
 432 0 l 1
 297 0 l 1
 367.5 337 l 2
 369.5 347 371.416992188 357.583007812 373.25 368.75 c 128
 375.083007812 379.916992188 375.583007812 390.166992188 374.75 399.5 c 128
 373.916992188 408.833007812 371.166992188 416.583007812 366.5 422.75 c 128
 361.833007812 428.916992188 354 432 343 432 c 0
 332.333007812 432 321.5 429.083007812 310.5 423.25 c 128
 299.5 417.416992188 289 410.166992188 279 401.5 c 128
 269 392.833007812 259.583007812 383.583007812 250.75 373.75 c 128
 241.916992188 363.916992188 234.166992188 355 227.5 347 c 1
 154.5 0 l 1
 18.5 0 l 1
 108.5 435 l 1
 22.5 443.5 l 1
 22.5 478 l 1
 191.5 512 l 1
 262 512 l 1
 250 453.5 l 1
 274.666992188 470.5 300 484.5 326 495.5 c 128
 352 506.5 376.833007812 512 400.5 512 c 0
 414.5 512 427.083007812 510 438.25 506 c 128
 449.416992188 502 459.333007812 496.75 468 490.25 c 128
 476.666992188 483.75 484 476.333007812 490 468 c 128
 496 459.666992188 501 451.166992188 505 442.5 c 1
 518.333007812 452.5 532.5 461.75 547.5 470.25 c 128
 562.5 478.75 577.666992188 486.083007812 593 492.25 c 128
 608.333007812 498.416992188 623.5 503.25 638.5 506.75 c 128
 653.5 510.25 667.666992188 512 681 512 c 0
 699 512 715.666992188 508.833007812 731 502.5 c 128
 746.333007812 496.166992188 759.166992188 487.166992188 769.5 475.5 c 128
 779.833007812 463.833007812 787 449.75 791 433.25 c 128
 795 416.75 794.833007812 398.333007812 790.5 378 c 2
 732 102.5 l 2
 729 87.8330078125 729.333007812 75.5830078125 733 65.75 c 128
 736.666992188 55.9169921875 745 51 758 51 c 0
 761.333007812 51 766.333007812 51.6669921875 773 53 c 128
 779.666992188 54.3330078125 787 56.1669921875 795 58.5 c 128
 803 60.8330078125 811.166992188 63.5830078125 819.5 66.75 c 128
 827.833007812 69.9169921875 835.666992188 73.3330078125 843 77 c 1
 843 29.5 l 1
EndSplineSet
EndChar

StartChar: n
Encoding: 110 110 60
Width: 592
VWidth: 1024
GlyphClass: 2
Flags: HW
LayerCount: 2
Back
Fore
SplineSet
588 23.5 m 1
 579 19.1669921875 567.833007812 14.8330078125 554.5 10.5 c 128
 541.166992188 6.1669921875 527.083007812 2.3330078125 512.25 -1 c 128
 497.416992188 -4.3330078125 482.583007812 -7.0830078125 467.75 -9.25 c 128
 452.916992188 -11.4169921875 439.666992188 -12.5 428 -12.5 c 0
 416.666992188 -12.5 404.416992188 -11.6669921875 391.25 -10 c 128
 378.083007812 -8.3330078125 366.083007812 -5.1669921875 355.25 -0.5 c 128
 344.416992188 4.1669921875 335.916992188 10.6669921875 329.75 19 c 128
 323.583007812 27.3330078125 321.833007812 38.3330078125 324.5 52 c 2
 387 364.5 l 2
 389.666992188 376.833007812 390.916992188 387.25 390.75 395.75 c 128
 390.583007812 404.25 389.25 411.166992188 386.75 416.5 c 128
 384.25 421.833007812 380.916992188 425.583007812 376.75 427.75 c 128
 372.583007812 429.916992188 367.833007812 431 362.5 431 c 0
 354.5 431 345.333007812 428.666992188 335 424 c 128
 324.666992188 419.333007812 313.75 413.166992188 302.25 405.5 c 128
 290.75 397.833007812 279.083007812 388.916992188 267.25 378.75 c 128
 255.416992188 368.583007812 244.166992188 358 233.5 347 c 1
 161 0 l 1
 24.5 0 l 1
 114.5 435 l 1
 28.5 443.5 l 1
 28.5 478 l 1
 196.5 512 l 1
 267.5 512 l 1
 255 452.5 l 1
 267.333007812 460.833007812 280.416992188 468.666992188 294.25 476 c 128
 308.083007812 483.333007812 322.083007812 489.666992188 336.25 495 c 128
 350.416992188 500.333007812 364.583007812 504.5 378.75 507.5 c 128
 392.916992188 510.5 406.666992188 512 420 512 c 0
 445.333007812 512 466.25 509.083007812 482.75 503.25 c 128
 499.25 497.416992188 511.75 488.833007812 520.25 477.5 c 128
 528.75 466.166992188 533.75 452.166992188 535.25 435.5 c 128
 536.75 418.833007812 535.5 399.666992188 531.5 378 c 2
 476 90 l 2
 474.333007812 81.6669921875 474.25 74.9169921875 475.75 69.75 c 128
 477.25 64.5830078125 479.416992188 60.5 482.25 57.5 c 128
 485.083007812 54.5 488.166992188 52.5 491.5 51.5 c 128
 494.833007812 50.5 497.833007812 50 500.5 50 c 0
 511.166992188 50 524.166992188 52.0830078125 539.5 56.25 c 128
 554.833007812 60.4169921875 570.166992188 65.8330078125 585.5 72.5 c 1
 588 23.5 l 1
EndSplineSet
EndChar

StartChar: o
Encoding: 111 111 61
Width: 566
VWidth: 1024
GlyphClass: 2
Flags: HW
LayerCount: 2
Back
Fore
SplineSet
387 314.5 m 0
 387 339.5 384.5 361 379.5 379 c 128
 374.5 397 368.416992188 411.833007812 361.25 423.5 c 128
 354.083007812 435.166992188 346.416992188 443.75 338.25 449.25 c 128
 330.083007812 454.75 322.833007812 457.5 316.5 457.5 c 0
 306.166992188 457.5 295.583007812 454.083007812 284.75 447.25 c 128
 273.916992188 440.416992188 263.416992188 430.916992188 253.25 418.75 c 128
 243.083007812 406.583007812 233.5 392.083007812 224.5 375.25 c 128
 215.5 358.416992188 207.583007812 340.083007812 200.75 320.25 c 128
 193.916992188 300.416992188 188.583007812 279.416992188 184.75 257.25 c 128
 180.916992188 235.083007812 179 212.5 179 189.5 c 0
 179 163.166992188 181.583007812 140.75 186.75 122.25 c 128
 191.916992188 103.75 198.25 88.75 205.75 77.25 c 128
 213.25 65.75 221 57.3330078125 229 52 c 128
 237 46.6669921875 244 44 250 44 c 0
 268 44 285.25 52.1669921875 301.75 68.5 c 128
 318.25 84.8330078125 332.833007812 106 345.5 132 c 128
 358.166992188 158 368.25 187 375.75 219 c 128
 383.25 251 387 282.833007812 387 314.5 c 0
534.5 310.5 m 0
 534.5 283.5 531.5 256.833007812 525.5 230.5 c 128
 519.5 204.166992188 510.666992188 179.083007812 499 155.25 c 128
 487.333007812 131.416992188 473 109.25 456 88.75 c 128
 439 68.25 419.5 50.5 397.5 35.5 c 128
 375.5 20.5 351.083007812 8.75 324.25 0.25 c 128
 297.416992188 -8.25 268.5 -12.5 237.5 -12.5 c 0
 202.5 -12.5 172.166992188 -7.5 146.5 2.5 c 128
 120.833007812 12.5 99.5830078125 26.25 82.75 43.75 c 128
 65.9169921875 61.25 53.4169921875 82.0830078125 45.25 106.25 c 128
 37.0830078125 130.416992188 33 156.833007812 33 185.5 c 0
 33 212.166992188 35.9169921875 238.75 41.75 265.25 c 128
 47.5830078125 291.75 56.0830078125 317.166992188 67.25 341.5 c 128
 78.4169921875 365.833007812 92.3330078125 388.333007812 109 409 c 128
 125.666992188 429.666992188 144.916992188 447.666992188 166.75 463 c 128
 188.583007812 478.333007812 212.916992188 490.333007812 239.75 499 c 128
 266.583007812 507.666992188 295.833007812 512 327.5 512 c 0
 358.833007812 512 387.25 507.75 412.75 499.25 c 128
 438.25 490.75 460 478.083007812 478 461.25 c 128
 496 444.416992188 509.916992188 423.416992188 519.75 398.25 c 128
 529.583007812 373.083007812 534.5 343.833007812 534.5 310.5 c 0
EndSplineSet
EndChar

StartChar: p
Encoding: 112 112 62
Width: 554
VWidth: 1024
GlyphClass: 2
Flags: HW
LayerCount: 2
Back
Fore
SplineSet
378 314.5 m 0
 378 328.833007812 377.333007812 343.416992188 376 358.25 c 128
 374.666992188 373.083007812 371.833007812 386.583007812 367.5 398.75 c 128
 363.166992188 410.916992188 356.916992188 420.916992188 348.75 428.75 c 128
 340.583007812 436.583007812 329.833007812 440.5 316.5 440.5 c 0
 309.166992188 440.5 301.25 438.5 292.75 434.5 c 128
 284.25 430.5 275.75 425.583007812 267.25 419.75 c 128
 258.75 413.916992188 250.75 407.833007812 243.25 401.5 c 128
 235.75 395.166992188 229.5 389.666992188 224.5 385 c 1
 162 69.5 l 1
 166 66.8330078125 170.666992188 63.9169921875 176 60.75 c 128
 181.333007812 57.5830078125 186.833007812 54.6669921875 192.5 52 c 128
 198.166992188 49.3330078125 203.75 47 209.25 45 c 128
 214.75 43 219.833007812 42 224.5 42 c 0
 238.833007812 42 252.583007812 45.9169921875 265.75 53.75 c 128
 278.916992188 61.5830078125 291.166992188 72.3330078125 302.5 86 c 128
 313.833007812 99.6669921875 324.166992188 115.416992188 333.5 133.25 c 128
 342.833007812 151.083007812 350.75 170.166992188 357.25 190.5 c 128
 363.75 210.833007812 368.833007812 231.583007812 372.5 252.75 c 128
 376.166992188 273.916992188 378 294.5 378 314.5 c 0
521 318.5 m 0
 521 291.166992188 517.666992188 264 511 237 c 128
 504.333007812 210 494.75 184.25 482.25 159.75 c 128
 469.75 135.25 454.333007812 112.5 436 91.5 c 128
 417.666992188 70.5 396.833007812 52.3330078125 373.5 37 c 128
 350.166992188 21.6669921875 324.333007812 9.5830078125 296 0.75 c 128
 267.666992188 -8.0830078125 237.333007812 -12.5 205 -12.5 c 0
 192.333007812 -12.5 181.25 -11.5830078125 171.75 -9.75 c 128
 162.25 -7.9169921875 154.166992188 -6 147.5 -4 c 1
 116.5 -155.5 l 2
 115.5 -160.166992188 116.416992188 -164.083007812 119.25 -167.25 c 128
 122.083007812 -170.416992188 126.333007812 -172 132 -172 c 1
 136.666992188 -172.333007812 142.5 -172.833007812 149.5 -173.5 c 0
 155.5 -174.166992188 162.916992188 -174.833007812 171.75 -175.5 c 128
 180.583007812 -176.166992188 191 -177 203 -178 c 1
 203 -224.5 l 1
 -98.5 -224.5 l 1
 -98.5 -178 l 1
 -93.1669921875 -177.333007812 -86.9169921875 -176.833007812 -79.75 -176.5 c 128
 -72.5830078125 -176.166992188 -65.8330078125 -175.666992188 -59.5 -175 c 0
 -52.1669921875 -174.333007812 -44.6669921875 -173.666992188 -37 -173 c 0
 -31.6669921875 -172.333007812 -27.6669921875 -170.416992188 -25 -167.25 c 128
 -22.3330078125 -164.083007812 -20.5 -160.166992188 -19.5 -155.5 c 2
 96.5 434 l 1
 11.5 443.5 l 1
 11.5 478 l 1
 180 512 l 1
 249 512 l 1
 241.5 474 l 1
 246.833007812 477 253.75 480.666992188 262.25 485 c 128
 270.75 489.333007812 280.333007812 493.5 291 497.5 c 128
 301.666992188 501.5 313.166992188 504.916992188 325.5 507.75 c 128
 337.833007812 510.583007812 350.833007812 512 364.5 512 c 0
 391.5 512 414.833007812 506.25 434.5 494.75 c 128
 454.166992188 483.25 470.416992188 468.333007812 483.25 450 c 128
 496.083007812 431.666992188 505.583007812 411 511.75 388 c 128
 517.916992188 365 521 341.833007812 521 318.5 c 0
EndSplineSet
EndChar

StartChar: q
Encoding: 113 113 63
Width: 583
VWidth: 1024
GlyphClass: 2
Flags: HW
LayerCount: 2
Back
Fore
SplineSet
392 399.5 m 2
 393 402.833007812 392.5 407.666992188 390.5 414 c 128
 388.5 420.333007812 385.833007812 426.583007812 382.5 432.75 c 128
 379.166992188 438.916992188 375.416992188 444.25 371.25 448.75 c 128
 367.083007812 453.25 363.166992188 455.5 359.5 455.5 c 0
 337.833007812 455.5 316 448.75 294 435.25 c 128
 272 421.75 252.166992188 402.916992188 234.5 378.75 c 128
 216.833007812 354.583007812 202.5 325.5 191.5 291.5 c 128
 180.5 257.5 175 220 175 179 c 0
 175 160.666992188 176 144 178 129 c 128
 180 114 183.333007812 101.25 188 90.75 c 128
 192.666992188 80.25 199.083007812 72.0830078125 207.25 66.25 c 128
 215.416992188 60.4169921875 225.833007812 57.5 238.5 57.5 c 0
 248.833007812 57.5 258.416992188 59.5 267.25 63.5 c 128
 276.083007812 67.5 284.416992188 72.5 292.25 78.5 c 128
 300.083007812 84.5 307.583007812 91 314.75 98 c 128
 321.916992188 105 329 111.666992188 336 118 c 1
 392 399.5 l 2
418 -155.5 m 1
 416.666992188 -160.166992188 416.75 -164.083007812 418.25 -167.25 c 128
 419.75 -170.416992188 423.333007812 -172 429 -172 c 0
 434.666992188 -172.333007812 441.166992188 -172.833007812 448.5 -173.5 c 0
 454.833007812 -174.166992188 462.583007812 -174.833007812 471.75 -175.5 c 128
 480.916992188 -176.166992188 491.333007812 -177 503 -178 c 1
 503 -224.5 l 1
 201.5 -224.5 l 1
 201.5 -178 l 1
 206.166992188 -177.666992188 212 -177.166992188 219 -176.5 c 128
 226 -175.833007812 232.833007812 -175.166992188 239.5 -174.5 c 0
 247.5 -173.5 255.666992188 -172.666992188 264 -172 c 0
 273.666992188 -171 279.5 -165.5 281.5 -155.5 c 2
 317.5 22.5 l 1
 296.833007812 10.8330078125 276.333007812 1.75 256 -4.75 c 128
 235.666992188 -11.25 216.166992188 -14.5 197.5 -14.5 c 0
 170.166992188 -14.5 146.333007812 -10.1669921875 126 -1.5 c 128
 105.666992188 7.1669921875 88.75 19.6669921875 75.25 36 c 128
 61.75 52.3330078125 51.6669921875 72.25 45 95.75 c 128
 38.3330078125 119.25 35 145.666992188 35 175 c 0
 35 200.666992188 38 226.75 44 253.25 c 128
 50 279.75 59 305.5 71 330.5 c 128
 83 355.5 97.75 379 115.25 401 c 128
 132.75 423 153.083007812 442.25 176.25 458.75 c 128
 199.416992188 475.25 225.166992188 488.25 253.5 497.75 c 128
 281.833007812 507.25 312.666992188 512 346 512 c 0
 363 512 379.166992188 510.25 394.5 506.75 c 128
 409.833007812 503.25 423.333007812 498.833007812 435 493.5 c 1
 451.5 512 l 1
 551 512 l 1
 418 -155.5 l 1
EndSplineSet
EndChar

StartChar: r
Encoding: 114 114 64
Width: 429
VWidth: 1024
GlyphClass: 2
Flags: HW
LayerCount: 2
Back
Fore
SplineSet
467 439.5 m 0
 467 415.833007812 459.5 398.083007812 444.5 386.25 c 128
 429.5 374.416992188 404.5 368.5 369.5 368.5 c 1
 342 424 l 1
 326 416 310.75 406.416992188 296.25 395.25 c 128
 281.75 384.083007812 268.833007812 371.833007812 257.5 358.5 c 128
 246.166992188 345.166992188 236.5 331 228.5 316 c 128
 220.5 301 215 285.833007812 212 270.5 c 2
 154.5 0 l 1
 18.5 0 l 1
 108.5 433 l 1
 22.5 442.5 l 1
 22.5 478 l 1
 192.5 512 l 1
 263 512 l 1
 250 443.5 l 1
 259 452.833007812 268.916992188 461.666992188 279.75 470 c 128
 290.583007812 478.333007812 302 485.666992188 314 492 c 128
 326 498.333007812 338.333007812 503.25 351 506.75 c 128
 363.666992188 510.25 376.333007812 512 389 512 c 0
 402.333007812 512 413.916992188 509.583007812 423.75 504.75 c 128
 433.583007812 499.916992188 441.666992188 493.916992188 448 486.75 c 128
 454.333007812 479.583007812 459.083007812 471.75 462.25 463.25 c 128
 465.416992188 454.75 467 446.833007812 467 439.5 c 0
EndSplineSet
EndChar

StartChar: s
Encoding: 115 115 65
Width: 425
VWidth: 1024
GlyphClass: 2
Flags: HW
LayerCount: 2
Back
Fore
SplineSet
403.5 433 m 0
 403.5 410 397 393 384 382 c 128
 371 371 348.833007812 364.5 317.5 362.5 c 1
 265 451.5 l 1
 262.666992188 452.166992188 260.166992188 452.833007812 257.5 453.5 c 0
 255.166992188 454.166992188 252.333007812 454.666992188 249 455 c 128
 245.666992188 455.333007812 242.166992188 455.5 238.5 455.5 c 0
 228.166992188 455.5 220.166992188 453.416992188 214.5 449.25 c 128
 208.833007812 445.083007812 204.583007812 439.833007812 201.75 433.5 c 128
 198.916992188 427.166992188 197.166992188 420.25 196.5 412.75 c 128
 195.833007812 405.25 195.5 398.333007812 195.5 392 c 0
 195.5 381.333007812 198.166992188 371 203.5 361 c 128
 208.833007812 351 215.833007812 341.25 224.5 331.75 c 128
 233.166992188 322.25 242.916992188 312.916992188 253.75 303.75 c 128
 264.583007812 294.583007812 275.5 285.833007812 286.5 277.5 c 0
 298.166992188 268.5 309.416992188 259.25 320.25 249.75 c 128
 331.083007812 240.25 340.75 230.25 349.25 219.75 c 128
 357.75 209.25 364.5 198.333007812 369.5 187 c 128
 374.5 175.666992188 377 163.833007812 377 151.5 c 0
 377 131.833007812 372.333007812 112.166992188 363 92.5 c 128
 353.666992188 72.8330078125 339.5 55.25 320.5 39.75 c 128
 301.5 24.25 277.666992188 11.6669921875 249 2 c 128
 220.333007812 -7.6669921875 186.833007812 -12.5 148.5 -12.5 c 0
 121.5 -12.5 98.25 -9.75 78.75 -4.25 c 128
 59.25 1.25 43.1669921875 8.5830078125 30.5 17.75 c 128
 17.8330078125 26.9169921875 8.4169921875 37.3330078125 2.25 49 c 128
 -3.9169921875 60.6669921875 -7 72.6669921875 -7 85 c 0
 -7 94 -5.3330078125 102.666992188 -2 111 c 128
 1.3330078125 119.333007812 5.75 126.75 11.25 133.25 c 128
 16.75 139.75 22.8330078125 144.916992188 29.5 148.75 c 128
 36.1669921875 152.583007812 43 154.5 50 154.5 c 0
 65 154.5 77.6669921875 152.25 88 147.75 c 128
 98.3330078125 143.25 106.833007812 137.333007812 113.5 130 c 1
 95 69.5 l 1
 98.6669921875 64.5 103.833007812 60 110.5 56 c 128
 117.166992188 52 124.416992188 48.6669921875 132.25 46 c 128
 140.083007812 43.3330078125 148.083007812 41.3330078125 156.25 40 c 128
 164.416992188 38.6669921875 172 38 179 38 c 0
 199.666992188 38 215.083007812 45.0830078125 225.25 59.25 c 128
 235.416992188 73.4169921875 240.5 92.5 240.5 116.5 c 0
 240.5 126.833007812 238.5 136.583007812 234.5 145.75 c 128
 230.5 154.916992188 224.833007812 163.833007812 217.5 172.5 c 128
 210.166992188 181.166992188 201.333007812 189.75 191 198.25 c 128
 180.666992188 206.75 169.166992188 215.833007812 156.5 225.5 c 0
 145.833007812 233.5 135.416992188 242.333007812 125.25 252 c 128
 115.083007812 261.666992188 106 271.916992188 98 282.75 c 128
 90 293.583007812 83.5830078125 305 78.75 317 c 128
 73.9169921875 329 71.5 341.5 71.5 354.5 c 0
 71.5 378.5 77.1669921875 400.166992188 88.5 419.5 c 128
 99.8330078125 438.833007812 115 455.416992188 134 469.25 c 128
 153 483.083007812 175 493.666992188 200 501 c 128
 225 508.333007812 251.166992188 512 278.5 512 c 0
 299.833007812 512 318.333007812 509.083007812 334 503.25 c 128
 349.666992188 497.416992188 362.666992188 490.416992188 373 482.25 c 128
 383.333007812 474.083007812 391 465.416992188 396 456.25 c 128
 401 447.083007812 403.5 439.333007812 403.5 433 c 0
EndSplineSet
EndChar

StartChar: t
Encoding: 116 116 66
Width: 352
VWidth: 1024
GlyphClass: 2
Flags: HW
LayerCount: 2
Back
Fore
SplineSet
250 428 m 1
 185.5 111.5 l 1
 181.833007812 95.5 183.583007812 82.6669921875 190.75 73 c 128
 197.916992188 63.3330078125 209.5 58.5 225.5 58.5 c 0
 233.5 58.5 243.083007812 59.8330078125 254.25 62.5 c 128
 265.416992188 65.1669921875 277 68.3330078125 289 72 c 128
 301 75.6669921875 312.666992188 79.5830078125 324 83.75 c 128
 335.333007812 87.9169921875 345.166992188 91.3330078125 353.5 94 c 1
 353.5 38 l 1
 347.833007812 35.3330078125 337.833007812 31.25 323.5 25.75 c 128
 309.166992188 20.25 292.833007812 14.6669921875 274.5 9 c 128
 256.166992188 3.3330078125 237.166992188 -1.6669921875 217.5 -6 c 128
 197.833007812 -10.3330078125 180 -12.5 164 -12.5 c 0
 144.333007812 -12.5 127.166992188 -10.1669921875 112.5 -5.5 c 128
 97.8330078125 -0.8330078125 85.6669921875 5.5830078125 76 13.75 c 128
 66.3330078125 21.9169921875 59.0830078125 31.6669921875 54.25 43 c 128
 49.4169921875 54.3330078125 47 66.6669921875 47 80 c 0
 47 86.6669921875 47.25 93.3330078125 47.75 100 c 128
 48.25 106.666992188 49.3330078125 113.666992188 51 121 c 2
 113.5 426 l 1
 40 418 l 1
 40 460 l 1
 127 494.5 l 1
 179 600 l 1
 281.5 600 l 1
 260 484.5 l 1
 402.5 484.5 l 1
 402.5 428 l 1
 250 428 l 1
EndSplineSet
EndChar

StartChar: u
Encoding: 117 117 67
Width: 588
VWidth: 1024
GlyphClass: 2
Flags: HW
LayerCount: 2
Back
Fore
SplineSet
585.5 28.5 m 1
 578.5 24.8330078125 568.916992188 20.5830078125 556.75 15.75 c 128
 544.583007812 10.9169921875 531.083007812 6.4169921875 516.25 2.25 c 128
 501.416992188 -1.9169921875 486 -5.4169921875 470 -8.25 c 128
 454 -11.0830078125 438.666992188 -12.5 424 -12.5 c 0
 406.333007812 -12.5 392 -10.6669921875 381 -7 c 128
 370 -3.3330078125 361.416992188 1.0830078125 355.25 6.25 c 128
 349.083007812 11.4169921875 344.666992188 16.75 342 22.25 c 128
 339.333007812 27.75 337.666992188 32.3330078125 337 36 c 1
 314.333007812 20.3330078125 289.833007812 8.3330078125 263.5 0 c 128
 237.166992188 -8.3330078125 207.333007812 -12.5 174 -12.5 c 0
 148.666992188 -12.5 127.25 -8.1669921875 109.75 0.5 c 128
 92.25 9.1669921875 78.4169921875 20 68.25 33 c 128
 58.0830078125 46 51.4169921875 60.25 48.25 75.75 c 128
 45.0830078125 91.25 45 106 48 120 c 2
 114.5 434 l 1
 28.5 443.5 l 1
 28.5 478 l 1
 197.5 512 l 1
 268.5 512 l 1
 184.5 120 l 2
 182.833007812 112 182.416992188 104.333007812 183.25 97 c 128
 184.083007812 89.6669921875 186 83.25 189 77.75 c 128
 192 72.25 196 67.8330078125 201 64.5 c 128
 206 61.1669921875 211.666992188 59.5 218 59.5 c 0
 229.333007812 59.5 240.416992188 61.0830078125 251.25 64.25 c 128
 262.083007812 67.4169921875 272.583007812 71.8330078125 282.75 77.5 c 128
 292.916992188 83.1669921875 302.833007812 89.6669921875 312.5 97 c 128
 322.166992188 104.333007812 331.666992188 112.333007812 341 121 c 1
 421 499.5 l 1
 557 499.5 l 1
 473 102.5 l 2
 469 83.5 469.75 69.8330078125 475.25 61.5 c 128
 480.75 53.1669921875 488.833007812 49 499.5 49 c 0
 502.166992188 49 505.25 49.4169921875 508.75 50.25 c 128
 512.25 51.0830078125 517.083007812 52.75 523.25 55.25 c 128
 529.416992188 57.75 537.416992188 61.4169921875 547.25 66.25 c 128
 557.083007812 71.0830078125 569.833007812 77.6669921875 585.5 86 c 1
 585.5 28.5 l 1
EndSplineSet
EndChar

StartChar: v
Encoding: 118 118 68
Width: 521
VWidth: 1024
GlyphClass: 2
Flags: HW
LayerCount: 2
Back
Fore
SplineSet
526.5 446.5 m 0
 526.5 437.833007812 525.666992188 429.5 524 421.5 c 128
 522.333007812 413.5 520.333007812 406.166992188 518 399.5 c 128
 515.666992188 392.833007812 513.166992188 386.916992188 510.5 381.75 c 128
 507.833007812 376.583007812 505.666992188 372.5 504 369.5 c 0
 481 327.5 456.333007812 287.416992188 430 249.25 c 128
 403.666992188 211.083007812 377.583007812 175.666992188 351.75 143 c 128
 325.916992188 110.333007812 301.5 80.8330078125 278.5 54.5 c 128
 255.5 28.1669921875 235.666992188 5.8330078125 219 -12.5 c 1
 119 -12.5 l 1
 127.666992188 5.1669921875 133.916992188 20.5830078125 137.75 33.75 c 128
 141.583007812 46.9169921875 143.166992188 59.1669921875 142.5 70.5 c 0
 142.5 71.5 142.166992188 76.5830078125 141.5 85.75 c 128
 140.833007812 94.9169921875 139.916992188 106.666992188 138.75 121 c 128
 137.583007812 135.333007812 136.166992188 151.75 134.5 170.25 c 128
 132.833007812 188.75 131 207.833007812 129 227.5 c 128
 127 247.166992188 124.833007812 267 122.5 287 c 128
 120.166992188 307 117.75 325.583007812 115.25 342.75 c 128
 112.75 359.916992188 110.166992188 375.25 107.5 388.75 c 128
 104.833007812 402.25 102.166992188 412.333007812 99.5 419 c 0
 97.8330078125 422.666992188 96.4169921875 425.666992188 95.25 428 c 128
 94.0830078125 430.333007812 92.6669921875 432.083007812 91 433.25 c 128
 89.3330078125 434.416992188 87.1669921875 435.166992188 84.5 435.5 c 128
 81.8330078125 435.833007812 78.1669921875 436 73.5 436 c 0
 66.5 436.333007812 59.1669921875 436.833007812 51.5 437.5 c 0
 44.8330078125 437.833007812 37.25 438.166992188 28.75 438.5 c 128
 20.25 438.833007812 11.6669921875 439.166992188 3 439.5 c 1
 3 476 l 1
 125 512 l 1
 160.333007812 511.333007812 187.583007812 504.833007812 206.75 492.5 c 128
 225.916992188 480.166992188 236.833007812 461 239.5 435 c 2
 267.5 171 l 1
 279.833007812 188 291.916992188 204.083007812 303.75 219.25 c 128
 315.583007812 234.416992188 326.666992188 249.416992188 337 264.25 c 128
 347.333007812 279.083007812 356.916992188 294 365.75 309 c 128
 374.583007812 324 382.333007812 339.5 389 355.5 c 1
 360.5 485.5 l 1
 369.166992188 493.833007812 380.833007812 500.333007812 395.5 505 c 128
 410.166992188 509.666992188 425.5 512 441.5 512 c 0
 453.5 512 464.666992188 510.5 475 507.5 c 128
 485.333007812 504.5 494.333007812 500.083007812 502 494.25 c 128
 509.666992188 488.416992188 515.666992188 481.5 520 473.5 c 128
 524.333007812 465.5 526.5 456.5 526.5 446.5 c 0
EndSplineSet
EndChar

StartChar: w
Encoding: 119 119 69
Width: 769
VWidth: 1024
GlyphClass: 2
Flags: HW
LayerCount: 2
Back
Fore
SplineSet
773 447.5 m 0
 773 433.166992188 769.333007812 416.083007812 762 396.25 c 128
 754.666992188 376.416992188 744.916992188 355 732.75 332 c 128
 720.583007812 309 706.666992188 285.083007812 691 260.25 c 128
 675.333007812 235.416992188 659.083007812 210.833007812 642.25 186.5 c 128
 625.416992188 162.166992188 608.75 138.916992188 592.25 116.75 c 128
 575.75 94.5830078125 560.666992188 74.5 547 56.5 c 128
 533.333007812 38.5 521.666992188 23.5 512 11.5 c 128
 502.333007812 -0.5 495.833007812 -8.5 492.5 -12.5 c 1
 391 -12.5 l 1
 370.5 280.5 l 1
 357.166992188 254.166992188 343.333007812 227.583007812 329 200.75 c 128
 314.666992188 173.916992188 300.25 147.833007812 285.75 122.5 c 128
 271.25 97.1669921875 257.083007812 73 243.25 50 c 128
 229.416992188 27 216.333007812 6.1669921875 204 -12.5 c 1
 98.5 -12.5 l 1
 109.5 15.5 l 1
 82 434 l 1
 4 442.5 l 1
 4 475 l 1
 141.5 512 l 1
 215 499.5 l 1
 234.5 190.5 l 1
 246.166992188 213.166992188 258 236.833007812 270 261.5 c 128
 282 286.166992188 293.916992188 311.083007812 305.75 336.25 c 128
 317.583007812 361.416992188 329.25 386.75 340.75 412.25 c 128
 352.25 437.75 363.333007812 462.833007812 374 487.5 c 1
 490.5 499.5 l 1
 515 139.5 l 1
 526.666992188 156.5 539.25 174.75 552.75 194.25 c 128
 566.25 213.75 579.583007812 233.583007812 592.75 253.75 c 128
 605.916992188 273.916992188 618.333007812 294.166992188 630 314.5 c 128
 641.666992188 334.833007812 651.833007812 354.166992188 660.5 372.5 c 1
 621.5 481.5 l 1
 622.833007812 483.5 625.25 486.25 628.75 489.75 c 128
 632.25 493.25 636.75 496.583007812 642.25 499.75 c 128
 647.75 502.916992188 654.416992188 505.75 662.25 508.25 c 128
 670.083007812 510.75 679.333007812 512 690 512 c 0
 704 512 716.166992188 509.5 726.5 504.5 c 128
 736.833007812 499.5 745.416992188 493.5 752.25 486.5 c 128
 759.083007812 479.5 764.25 472.333007812 767.75 465 c 128
 771.25 457.666992188 773 451.833007812 773 447.5 c 0
EndSplineSet
EndChar

StartChar: x
Encoding: 120 120 70
Width: 590
VWidth: 1024
GlyphClass: 2
Flags: HW
LayerCount: 2
Back
Fore
SplineSet
600 447.5 m 0
 600 440.833007812 599.5 433 598.5 424 c 128
 597.5 415 594.75 406.5 590.25 398.5 c 128
 585.75 390.5 578.666992188 383.666992188 569 378 c 128
 559.333007812 372.333007812 545.833007812 369.5 528.5 369.5 c 1
 483.5 423 l 1
 475.166992188 417 465.5 408.833007812 454.5 398.5 c 128
 443.5 388.166992188 432.25 376.083007812 420.75 362.25 c 128
 409.25 348.416992188 398.166992188 333.083007812 387.5 316.25 c 128
 376.833007812 299.416992188 367.5 281.333007812 359.5 262 c 1
 361.166992188 256 363.833007812 247.583007812 367.5 236.75 c 128
 371.166992188 225.916992188 375.25 214.166992188 379.75 201.5 c 128
 384.25 188.833007812 389 176 394 163 c 128
 399 150 403.833007812 138.333007812 408.5 128 c 256
 413.166992188 117.666992188 417.25 107.916992188 420.75 98.75 c 128
 424.25 89.5830078125 427.833007812 81.5 431.5 74.5 c 128
 435.166992188 67.5 439.166992188 62 443.5 58 c 128
 447.833007812 54 453 52 459 52 c 0
 461.666992188 52 465.25 52.1669921875 469.75 52.5 c 128
 474.25 52.8330078125 479.666992188 54 486 56 c 128
 492.333007812 58 499.833007812 61.0830078125 508.5 65.25 c 128
 517.166992188 69.4169921875 527.166992188 75.3330078125 538.5 83 c 1
 538.5 23.5 l 1
 526.833007812 16.5 515.333007812 10.75 504 6.25 c 128
 492.666992188 1.75 481.166992188 -1.9169921875 469.5 -4.75 c 128
 457.833007812 -7.5830078125 445.583007812 -9.5830078125 432.75 -10.75 c 128
 419.916992188 -11.9169921875 406 -12.5 391 -12.5 c 0
 374.333007812 -12.5 359 -6.9169921875 345 4.25 c 128
 331 15.4169921875 318.333007812 29.5 307 46.5 c 128
 295.666992188 63.5 285.833007812 82 277.5 102 c 128
 269.166992188 122 262.333007812 140.833007812 257 158.5 c 1
 254.333007812 154.166992188 250.166992188 147 244.5 137 c 128
 238.833007812 127 231.75 115.666992188 223.25 103 c 128
 214.75 90.3330078125 205.166992188 77.1669921875 194.5 63.5 c 128
 183.833007812 49.8330078125 172.166992188 37.4169921875 159.5 26.25 c 128
 146.833007812 15.0830078125 133.5 5.8330078125 119.5 -1.5 c 128
 105.5 -8.8330078125 91 -12.5 76 -12.5 c 0
 64 -12.5 52.3330078125 -11.1669921875 41 -8.5 c 128
 29.6669921875 -5.8330078125 19.5830078125 -1.9169921875 10.75 3.25 c 128
 1.9169921875 8.4169921875 -5.1669921875 14.8330078125 -10.5 22.5 c 128
 -15.8330078125 30.1669921875 -18.5 39 -18.5 49 c 0
 -18.5 57 -17.5 65.6669921875 -15.5 75 c 128
 -13.5 84.3330078125 -9.4169921875 93 -3.25 101 c 128
 2.9169921875 109 11.8330078125 115.666992188 23.5 121 c 128
 35.1669921875 126.333007812 50.5 129 69.5 129 c 1
 108.5 68.5 l 1
 117.5 76.1669921875 127.333007812 85.6669921875 138 97 c 128
 148.666992188 108.333007812 159.5 121.25 170.5 135.75 c 128
 181.5 150.25 192.083007812 166.166992188 202.25 183.5 c 128
 212.416992188 200.833007812 221.5 219.5 229.5 239.5 c 1
 227.833007812 246.166992188 225.25 255.416992188 221.75 267.25 c 128
 218.25 279.083007812 214.166992188 291.833007812 209.5 305.5 c 128
 204.833007812 319.166992188 199.916992188 333.166992188 194.75 347.5 c 128
 189.583007812 361.833007812 184.5 374.833007812 179.5 386.5 c 128
 174.5 398.166992188 169.916992188 407.75 165.75 415.25 c 128
 161.583007812 422.75 158.166992188 426.666992188 155.5 427 c 2
 54.5 439.5 l 1
 54.5 471 l 1
 58.5 472.666992188 64.5830078125 474.833007812 72.75 477.5 c 128
 80.9169921875 480.166992188 90 483 100 486 c 128
 110 489 120.333007812 492 131 495 c 128
 141.666992188 498 151.666992188 500.75 161 503.25 c 128
 170.333007812 505.75 178.5 507.833007812 185.5 509.5 c 128
 192.5 511.166992188 197.166992188 512 199.5 512 c 0
 215.5 512 229.75 508.166992188 242.25 500.5 c 128
 254.75 492.833007812 266.083007812 481.916992188 276.25 467.75 c 128
 286.416992188 453.583007812 295.666992188 436.5 304 416.5 c 128
 312.333007812 396.5 320.166992188 374 327.5 349 c 1
 339.5 367 352.666992188 385.583007812 367 404.75 c 128
 381.333007812 423.916992188 396.583007812 441.5 412.75 457.5 c 128
 428.916992188 473.5 445.666992188 486.583007812 463 496.75 c 128
 480.333007812 506.916992188 498 512 516 512 c 0
 526.333007812 512 536.583007812 510.416992188 546.75 507.25 c 128
 556.916992188 504.083007812 565.916992188 499.666992188 573.75 494 c 128
 581.583007812 488.333007812 587.916992188 481.5 592.75 473.5 c 128
 597.583007812 465.5 600 456.833007812 600 447.5 c 0
EndSplineSet
EndChar

StartChar: y
Encoding: 121 121 71
Width: 556
VWidth: 1024
GlyphClass: 2
Flags: HW
LayerCount: 2
Back
Fore
SplineSet
532.5 422 m 1
 528.5 418 522.666992188 410.75 515 400.25 c 128
 507.333007812 389.75 499.416992188 377.916992188 491.25 364.75 c 128
 483.083007812 351.583007812 475.083007812 338 467.25 324 c 128
 459.416992188 310 453.166992188 297.833007812 448.5 287.5 c 0
 441.166992188 271.166992188 432.416992188 251.416992188 422.25 228.25 c 128
 412.083007812 205.083007812 400.75 180.166992188 388.25 153.5 c 128
 375.75 126.833007812 362.25 99.0830078125 347.75 70.25 c 128
 333.25 41.4169921875 318 13.1669921875 302 -14.5 c 0
 285 -44.1669921875 266.75 -72.3330078125 247.25 -99 c 128
 227.75 -125.666992188 206.666992188 -149 184 -169 c 128
 161.333007812 -189 136.833007812 -204.916992188 110.5 -216.75 c 128
 84.1669921875 -228.583007812 55.5 -234.5 24.5 -234.5 c 0
 3.8330078125 -234.5 -13.4169921875 -231.833007812 -27.25 -226.5 c 128
 -41.0830078125 -221.166992188 -52.1669921875 -214.5 -60.5 -206.5 c 128
 -68.8330078125 -198.5 -74.6669921875 -190 -78 -181 c 128
 -81.3330078125 -172 -83 -163.833007812 -83 -156.5 c 0
 -83 -148.166992188 -81.6669921875 -139.166992188 -79 -129.5 c 128
 -76.3330078125 -119.833007812 -71.75 -110.75 -65.25 -102.25 c 128
 -58.75 -93.75 -50.25 -86.6669921875 -39.75 -81 c 128
 -29.25 -75.3330078125 -16 -72.1669921875 0 -71.5 c 1
 44 -149.5 l 1
 90.3330078125 -139.5 141.833007812 -82.5 198.5 21.5 c 1
 197.833007812 25.5 196.166992188 34.3330078125 193.5 48 c 128
 190.833007812 61.6669921875 187.583007812 78.3330078125 183.75 98 c 128
 179.916992188 117.666992188 175.583007812 139.416992188 170.75 163.25 c 128
 165.916992188 187.083007812 160.833007812 211.166992188 155.5 235.5 c 0
 150.5 258.833007812 145.833007812 282.333007812 141.5 306 c 128
 137.166992188 329.666992188 133.166992188 351 129.5 370 c 128
 125.833007812 389 122.5 404.416992188 119.5 416.25 c 128
 116.5 428.083007812 113.833007812 434 111.5 434 c 2
 3 442.5 l 1
 3 474 l 1
 7 475.333007812 12.8330078125 477.25 20.5 479.75 c 128
 28.1669921875 482.25 36.8330078125 484.916992188 46.5 487.75 c 128
 56.1669921875 490.583007812 66.1669921875 493.416992188 76.5 496.25 c 128
 86.8330078125 499.083007812 96.75 501.666992188 106.25 504 c 128
 115.75 506.333007812 124.25 508.25 131.75 509.75 c 128
 139.25 511.25 144.833007812 512 148.5 512 c 0
 159.833007812 512 170.25 511.25 179.75 509.75 c 128
 189.25 508.25 198.083007812 504.25 206.25 497.75 c 128
 214.416992188 491.25 222.083007812 481.25 229.25 467.75 c 128
 236.416992188 454.25 243.666992188 435.5 251 411.5 c 0
 254.333007812 399.833007812 258 386.083007812 262 370.25 c 128
 266 354.416992188 270 337.416992188 274 319.25 c 128
 278 301.083007812 282.166992188 282.166992188 286.5 262.5 c 128
 290.833007812 242.833007812 295 223 299 203 c 1
 439.5 512 l 1
 488.5 512 l 1
 585.5 481.5 l 1
 585.5 454.5 l 1
 532.5 422 l 1
EndSplineSet
EndChar

StartChar: z
Encoding: 122 122 72
Width: 503
VWidth: 1024
GlyphClass: 2
Flags: HW
LayerCount: 2
Back
Fore
SplineSet
172 94 m 1
 236.5 107.5 l 1
 254.833007812 97.8330078125 270 90 282 84 c 128
 294 78 305.833007812 75 317.5 75 c 0
 321.166992188 75 326.166992188 75.8330078125 332.5 77.5 c 128
 338.833007812 79.1669921875 345.416992188 81.3330078125 352.25 84 c 128
 359.083007812 86.6669921875 365.333007812 89.75 371 93.25 c 128
 376.666992188 96.75 380.666992188 100.5 383 104.5 c 1
 321.5 170 l 1
 323.166992188 172.333007812 326.666992188 175.75 332 180.25 c 128
 337.333007812 184.75 343.666992188 189.083007812 351 193.25 c 128
 358.333007812 197.416992188 366.25 201.083007812 374.75 204.25 c 128
 383.25 207.416992188 391.833007812 209 400.5 209 c 0
 411.5 209 421 206.333007812 429 201 c 128
 437 195.666992188 443.583007812 189.166992188 448.75 181.5 c 128
 453.916992188 173.833007812 457.75 165.583007812 460.25 156.75 c 128
 462.75 147.916992188 464 140 464 133 c 0
 464 116.666992188 459.25 99.9169921875 449.75 82.75 c 128
 440.25 65.5830078125 427.333007812 50 411 36 c 128
 394.666992188 22 375.833007812 10.5830078125 354.5 1.75 c 128
 333.166992188 -7.0830078125 310.5 -11.5 286.5 -11.5 c 0
 269.166992188 -11.5 252.75 -9.25 237.25 -4.75 c 128
 221.75 -0.25 207.833007812 4.6669921875 195.5 10 c 128
 183.166992188 15.3330078125 172.75 20.25 164.25 24.75 c 128
 155.75 29.25 149.833007812 31.5 146.5 31.5 c 0
 141.833007812 31.5 137.583007812 31.25 133.75 30.75 c 128
 129.916992188 30.25 127 28.5 125 25.5 c 2
 87 -40 l 1
 -16.5 16.5 l 1
 321.5 405.5 l 1
 257 392 l 1
 239 401.666992188 224.083007812 409.583007812 212.25 415.75 c 128
 200.416992188 421.916992188 188.666992188 425 177 425 c 0
 173.333007812 425 168.333007812 424.166992188 162 422.5 c 128
 155.666992188 420.833007812 149.166992188 418.583007812 142.5 415.75 c 128
 135.833007812 412.916992188 129.583007812 409.75 123.75 406.25 c 128
 117.916992188 402.75 113.833007812 399.166992188 111.5 395.5 c 1
 172 331 l 1
 170.333007812 328 167 324.25 162 319.75 c 128
 157 315.25 150.833007812 310.916992188 143.5 306.75 c 128
 136.166992188 302.583007812 128.166992188 298.916992188 119.5 295.75 c 128
 110.833007812 292.583007812 102.333007812 291 94 291 c 0
 83 291 73.5 293.666992188 65.5 299 c 128
 57.5 304.333007812 50.9169921875 310.833007812 45.75 318.5 c 128
 40.5830078125 326.166992188 36.75 334.333007812 34.25 343 c 128
 31.75 351.666992188 30.5 359.5 30.5 366.5 c 0
 30.5 382.833007812 35.25 399.583007812 44.75 416.75 c 128
 54.25 433.916992188 67.1669921875 449.583007812 83.5 463.75 c 128
 99.8330078125 477.916992188 118.666992188 489.5 140 498.5 c 128
 161.333007812 507.5 184 512 208 512 c 0
 225.333007812 512 241.75 509.666992188 257.25 505 c 128
 272.75 500.333007812 286.666992188 495.25 299 489.75 c 128
 311.333007812 484.25 321.75 479.25 330.25 474.75 c 128
 338.75 470.25 344.666992188 468 348 468 c 0
 352.666992188 468 356.75 468.333007812 360.25 469 c 128
 363.75 469.666992188 366.833007812 471.333007812 369.5 474 c 1
 397.5 538.5 l 1
 510 481.5 l 1
 172 94 l 1
EndSplineSet
EndChar

StartChar: braceleft
Encoding: 123 123 73
Width: 507
VWidth: 1024
GlyphClass: 2
Flags: HW
LayerCount: 2
Back
Fore
SplineSet
511 666.5 m 1
 498.333007812 666.5 485.833007812 665.666992188 473.5 664 c 0
 462.833007812 662.333007812 451.583007812 659.666992188 439.75 656 c 128
 427.916992188 652.333007812 417.166992188 646.666992188 407.5 639 c 0
 395.5 629 386.166992188 616.583007812 379.5 601.75 c 128
 372.833007812 586.916992188 367.416992188 570.75 363.25 553.25 c 128
 359.083007812 535.75 355.333007812 517.5 352 498.5 c 128
 348.666992188 479.5 344.166992188 460.75 338.5 442.25 c 128
 332.833007812 423.75 325.25 406 315.75 389 c 128
 306.25 372 293.166992188 357 276.5 344 c 0
 263.5 333.666992188 250.583007812 325.5 237.75 319.5 c 128
 224.916992188 313.5 213.166992188 309 202.5 306 c 128
 191.833007812 303 182.5 301 174.5 300 c 0
 168.833007812 299.333007812 164.5 299 161.5 299 c 1
 164.5 298.666992188 168.666992188 298.166992188 174 297.5 c 0
 181.333007812 296.5 189.75 294.416992188 199.25 291.25 c 128
 208.75 288.083007812 218.75 283.5 229.25 277.5 c 128
 239.75 271.5 249.333007812 263.333007812 258 253 c 0
 269.333007812 239.666992188 276.416992188 224.583007812 279.25 207.75 c 128
 282.083007812 190.916992188 282.75 173.25 281.25 154.75 c 128
 279.75 136.25 276.833007812 117.583007812 272.5 98.75 c 128
 268.166992188 79.9169921875 264.75 61.8330078125 262.25 44.5 c 128
 259.75 27.1669921875 258.916992188 11.0830078125 259.75 -3.75 c 128
 260.583007812 -18.5830078125 265.166992188 -31 273.5 -41 c 0
 279.833007812 -48.6669921875 288.166992188 -54.3330078125 298.5 -58 c 128
 308.833007812 -61.6669921875 318.833007812 -64.3330078125 328.5 -66 c 0
 339.833007812 -67.6669921875 351.833007812 -68.5 364.5 -68.5 c 1
 353.5 -125 l 1
 333.5 -125 l 2
 324.5 -125 314 -124.75 302 -124.25 c 128
 290 -123.75 277.083007812 -122.75 263.25 -121.25 c 128
 249.416992188 -119.75 236 -117.416992188 223 -114.25 c 128
 210 -111.083007812 197.916992188 -107 186.75 -102 c 128
 175.583007812 -97 166.5 -90.6669921875 159.5 -83 c 0
 146.833007812 -69.3330078125 138.833007812 -53.1669921875 135.5 -34.5 c 128
 132.166992188 -15.8330078125 131.416992188 3.75 133.25 24.25 c 128
 135.083007812 44.75 138.416992188 65.5830078125 143.25 86.75 c 128
 148.083007812 107.916992188 152.25 128.166992188 155.75 147.5 c 128
 159.25 166.833007812 160.916992188 184.5 160.75 200.5 c 128
 160.583007812 216.5 156.5 229.5 148.5 239.5 c 256
 140.5 249.5 130.416992188 256.583007812 118.25 260.75 c 128
 106.083007812 264.916992188 94.3330078125 267.666992188 83 269 c 0
 69.6669921875 270.333007812 56 270.166992188 42 268.5 c 1
 53 329.5 l 1
 67 327.5 80.8330078125 327.166992188 94.5 328.5 c 0
 106.166992188 329.5 118.916992188 332.083007812 132.75 336.25 c 128
 146.583007812 340.416992188 159.333007812 347.5 171 357.5 c 0
 183 367.5 192.25 380.583007812 198.75 396.75 c 128
 205.25 412.916992188 210.583007812 430.666992188 214.75 450 c 128
 218.916992188 469.333007812 222.916992188 489.666992188 226.75 511 c 128
 230.583007812 532.333007812 235.666992188 553.25 242 573.75 c 128
 248.333007812 594.25 256.916992188 613.833007812 267.75 632.5 c 128
 278.583007812 651.166992188 293.166992188 667.333007812 311.5 681 c 0
 321.5 688.666992188 333.083007812 695 346.25 700 c 128
 359.416992188 705 373.083007812 709.083007812 387.25 712.25 c 128
 401.416992188 715.416992188 415.666992188 717.75 430 719.25 c 128
 444.333007812 720.75 457.583007812 721.75 469.75 722.25 c 128
 481.916992188 722.75 492.5 723 501.5 723 c 2
 521 723 l 1
 511 666.5 l 1
EndSplineSet
EndChar

StartChar: bar
Encoding: 124 124 74
Width: 407
VWidth: 1024
GlyphClass: 2
Flags: HW
LayerCount: 2
Back
Fore
SplineSet
160 -264 m 1
 160 815 l 1
 247.5 815 l 1
 247.5 -264 l 1
 160 -264 l 1
EndSplineSet
EndChar

StartChar: braceright
Encoding: 125 125 75
Width: 507
VWidth: 1024
GlyphClass: 2
Flags: HW
LayerCount: 2
Back
Fore
SplineSet
465 268.5 m 1
 451 270.166992188 437.166992188 270.333007812 423.5 269 c 0
 411.5 267.666992188 398.583007812 264.916992188 384.75 260.75 c 128
 370.916992188 256.583007812 358 249.5 346 239.5 c 0
 334 229.166992188 324.833007812 216 318.5 200 c 128
 312.166992188 184 306.916992188 166.333007812 302.75 147 c 128
 298.583007812 127.666992188 294.666992188 107.416992188 291 86.25 c 128
 287.333007812 65.0830078125 282.333007812 44.25 276 23.75 c 128
 269.666992188 3.25 261.25 -16.25 250.75 -34.75 c 128
 240.25 -53.25 226 -69.3330078125 208 -83 c 0
 198 -90.6669921875 186.333007812 -97 173 -102 c 128
 159.666992188 -107 145.833007812 -111.083007812 131.5 -114.25 c 128
 117.166992188 -117.416992188 102.833007812 -119.75 88.5 -121.25 c 128
 74.1669921875 -122.75 60.9169921875 -123.75 48.75 -124.25 c 128
 36.5830078125 -124.75 25.8330078125 -125 16.5 -125 c 2
 -3 -125 l 1
 8 -68.5 l 1
 20.3330078125 -68.5 32.6669921875 -67.6669921875 45 -66 c 0
 55.6669921875 -64.3330078125 66.8330078125 -61.6669921875 78.5 -58 c 128
 90.1669921875 -54.3330078125 100.833007812 -48.6669921875 110.5 -41 c 0
 122.5 -31 131.833007812 -18.6669921875 138.5 -4 c 128
 145.166992188 10.6669921875 150.583007812 26.6669921875 154.75 44 c 128
 158.916992188 61.3330078125 162.583007812 79.4169921875 165.75 98.25 c 128
 168.916992188 117.083007812 173.333007812 135.75 179 154.25 c 128
 184.666992188 172.75 192.166992188 190.5 201.5 207.5 c 128
 210.833007812 224.5 223.833007812 239.666992188 240.5 253 c 0
 252.833007812 263 265.333007812 271 278 277 c 128
 290.666992188 283 302.416992188 287.583007812 313.25 290.75 c 128
 324.083007812 293.916992188 333.5 296 341.5 297 c 128
 349.5 298 355.166992188 298.666992188 358.5 299 c 1
 356.166992188 299 351.333007812 299.333007812 344 300 c 128
 336.666992188 300.666992188 328.166992188 302.5 318.5 305.5 c 128
 308.833007812 308.5 298.75 313 288.25 319 c 128
 277.75 325 268 333.333007812 259 344 c 0
 247.666992188 357.333007812 240.583007812 372.5 237.75 389.5 c 128
 234.916992188 406.5 234.333007812 424.25 236 442.75 c 128
 237.666992188 461.25 240.583007812 480 244.75 499 c 128
 248.916992188 518 252.333007812 536.25 255 553.75 c 128
 257.666992188 571.25 258.666992188 587.333007812 258 602 c 128
 257.333007812 616.666992188 252.833007812 629 244.5 639 c 0
 238.166992188 646.666992188 229.916992188 652.333007812 219.75 656 c 128
 209.583007812 659.666992188 199.666992188 662.333007812 190 664 c 0
 178.666992188 665.666992188 166.5 666.5 153.5 666.5 c 1
 165 723 l 1
 184.5 723 l 2
 193.833007812 723 204.5 722.75 216.5 722.25 c 128
 228.5 721.75 241.333007812 720.75 255 719.25 c 128
 268.666992188 717.75 282.083007812 715.416992188 295.25 712.25 c 128
 308.416992188 709.083007812 320.583007812 705 331.75 700 c 128
 342.916992188 695 352.166992188 688.666992188 359.5 681 c 0
 372.166992188 667 380.083007812 650.75 383.25 632.25 c 128
 386.416992188 613.75 387 594.25 385 573.75 c 128
 383 553.25 379.583007812 532.333007812 374.75 511 c 128
 369.916992188 489.666992188 365.75 469.333007812 362.25 450 c 128
 358.75 430.666992188 357.083007812 412.916992188 357.25 396.75 c 128
 357.416992188 380.583007812 361.5 367.5 369.5 357.5 c 256
 377.5 347.5 387.5 340.416992188 399.5 336.25 c 128
 411.5 332.083007812 423.166992188 329.5 434.5 328.5 c 0
 447.833007812 327.166992188 461.666992188 327.5 476 329.5 c 1
 465 268.5 l 1
EndSplineSet
EndChar

StartChar: asciitilde
Encoding: 126 126 76
Width: 853
VWidth: 1024
GlyphClass: 2
Flags: HW
LayerCount: 2
Back
Fore
SplineSet
765 307 m 1
 744.333007812 292.333007812 725.083007812 280 707.25 270 c 128
 689.416992188 260 672.583007812 252 656.75 246 c 128
 640.916992188 240 625.666992188 235.75 611 233.25 c 128
 596.333007812 230.75 581.833007812 229.5 567.5 229.5 c 0
 542.5 229.5 518.25 233.083007812 494.75 240.25 c 128
 471.25 247.416992188 447.916992188 255.25 424.75 263.75 c 128
 401.583007812 272.25 378.166992188 280.083007812 354.5 287.25 c 128
 330.833007812 294.416992188 306.5 298 281.5 298 c 0
 257.833007812 298 230.333007812 290.75 199 276.25 c 128
 167.666992188 261.75 130.666992188 238.333007812 88 206 c 1
 88 303 l 1
 126.666992188 332.333007812 162.666992188 352.833007812 196 364.5 c 128
 229.333007812 376.166992188 259.833007812 382 287.5 382 c 0
 306.833007812 382 325.666992188 379.916992188 344 375.75 c 128
 362.333007812 371.583007812 380.416992188 366.5 398.25 360.5 c 128
 416.083007812 354.5 433.833007812 348.083007812 451.5 341.25 c 128
 469.166992188 334.416992188 487 328.5 505 323.5 c 0
 515.666992188 320.5 526.333007812 318.083007812 537 316.25 c 128
 547.666992188 314.416992188 558.166992188 313.5 568.5 313.5 c 0
 579.5 313.5 591.333007812 314.833007812 604 317.5 c 128
 616.666992188 320.166992188 630.916992188 324.916992188 646.75 331.75 c 128
 662.583007812 338.583007812 680.166992188 347.916992188 699.5 359.75 c 128
 718.833007812 371.583007812 740.666992188 386.5 765 404.5 c 1
 765 307 l 1
EndSplineSet
EndChar

StartChar: exclam
Encoding: 33 33 83
Width: 389
VWidth: 1024
GlyphClass: 2
Flags: HW
LayerCount: 2
Back
Fore
SplineSet
246 66.5 m 256
 246 55.1669921875 243.75 44.6669921875 239.25 35 c 128
 234.75 25.3330078125 228.666992188 17 221 10 c 128
 213.333007812 3 204.416992188 -2.5 194.25 -6.5 c 128
 184.083007812 -10.5 173.333007812 -12.5 162 -12.5 c 0
 151 -12.5 140.833007812 -10.25 131.5 -5.75 c 128
 122.166992188 -1.25 114 4.8330078125 107 12.5 c 128
 100 20.1669921875 94.5830078125 29 90.75 39 c 128
 86.9169921875 49 85 59.5 85 70.5 c 0
 85 81.8330078125 87 92.4169921875 91 102.25 c 128
 95 112.083007812 100.5 120.75 107.5 128.25 c 128
 114.5 135.75 122.75 141.666992188 132.25 146 c 128
 141.75 150.333007812 152 152.5 163 152.5 c 0
 175.333007812 152.5 186.583007812 150.166992188 196.75 145.5 c 128
 206.916992188 140.833007812 215.666992188 134.583007812 223 126.75 c 128
 230.333007812 118.916992188 236 109.75 240 99.25 c 128
 244 88.75 246 77.8330078125 246 66.5 c 256
347 631 m 1
 329.666992188 578 312.666992188 526.166992188 296 475.5 c 0
 289 453.833007812 281.583007812 431.333007812 273.75 408 c 128
 265.916992188 384.666992188 258.25 361.5 250.75 338.5 c 128
 243.25 315.5 235.916992188 293.25 228.75 271.75 c 128
 221.583007812 250.25 215 230.666992188 209 213 c 1
 153.5 213 l 1
 177 607 l 1
 177 621.333007812 179.833007812 634.416992188 185.5 646.25 c 128
 191.166992188 658.083007812 198.666992188 668.25 208 676.75 c 128
 217.333007812 685.25 228.083007812 691.833007812 240.25 696.5 c 128
 252.416992188 701.166992188 264.833007812 703.5 277.5 703.5 c 0
 302.5 703.5 320.333007812 697.666992188 331 686 c 128
 341.666992188 674.333007812 347 656 347 631 c 1
EndSplineSet
EndChar

StartChar: quoteleft
Encoding: 8216 8216 84
Width: 237
GlyphClass: 2
Flags: HW
LayerCount: 2
Back
Fore
SplineSet
385 809 m 1
 336.416 781.539 285.92 735.138 273 677 c 1
 334 617 l 1
 228 540 l 1
 157 615 l 1
 193.246 675.032 241.898 731.977 343 842 c 1
 385 809 l 1
EndSplineSet
EndChar

StartChar: u25CC
Encoding: 9676 9676 85
Width: 747
GlyphClass: 2
Flags: HW
LayerCount: 2
Back
Fore
SplineSet
968 596 m 1
 88 596 l 1
 104 680 l 1
 984 680 l 1
 968 596 l 1
731 440 m 1
 735.667 415.333 724 393.667 696 375 c 1
 686.667 370.333 675.667 368 663 368 c 0
 641 368 626.333 373.333 619 384 c 1
 615.653 409.1 646.75 442.474 665 454 c 1
 674.333 458.667 683.667 461 693 461 c 0
 714.333 461 727 454 731 440 c 1
628 547 m 0
 631.27 547 660 545.325 660 509 c 0
 660 498.333 656 486.333 648 473 c 1
 633.071 455.582 582.744 438.946 569 442 c 1
 564.333 449.333 562 458 562 468 c 0
 562 529.241 606.9 547 628 547 c 0
741 296 m 1
 731.978 274.574 707.163 251 680 251 c 0
 656.601 251 625.536 271.648 627 298 c 1
 632.97 317.103 669.049 342 698 342 c 0
 722.814 342 745.464 327.248 741 296 c 1
553 524 m 1
 547.802 499.309 513.4 465 487 465 c 0
 459.321 465 436.541 524.038 474 559 c 128
 484 568.333 495.333 573 508 573 c 0
 536.408 573 557.034 550.891 553 524 c 1
681 186 m 0
 681 167.469 666.662 138 619 138 c 0
 584.6 138 576 164.679 576 187 c 0
 576 218.2 607.5 226 635 226 c 0
 672.901 226 681 204.248 681 186 c 0
377 542 m 0
 410.6 542 419 518.9 419 500 c 0
 419 477.74 403.929 453.674 387 444 c 0
 384.333 442.667 379.333 442 372 442 c 0
 348 442 331 451 321 469 c 1
 315.643 493.107 332.593 542 377 542 c 0
478 90 m 0
 478 114.699 488.897 151 519 151 c 0
 548.451 151 589.009 127.126 569.5 84 c 128
 553.431 48.4789 527.598 52 522 52 c 0
 502.144 52 478 59.6 478 90 c 0
323 407 m 0
 323 381.2 307.08 364 267 364 c 0
 236.199 364 220 377.644 220 404 c 0
 220 435.8 247.575 457 279 457 c 0
 287 457 296.333 454 307 448 c 128
 317.667 442 323 428.333 323 407 c 0
454 65 m 1
 448.703 39.8414 415 13 389 13 c 0
 353.343 13 335.371 66.3112 385 108 c 0
 395.667 117.333 404.667 122 412 122 c 0
 436.555 122 456.704 87.9878 454 65 c 1
223 341 m 0
 262.755 341 302.291 299.988 246 264.5 c 128
 230.667 254.833 215.333 250 200 250 c 0
 179.973 250 156.831 264.61 163 297 c 1
 170.333 326.333 190.333 341 223 341 c 0
237 231 m 0
 309.746 231 274.439 161.331 234 144 c 1
 226.667 139.333 218.333 137 209 137 c 0
 189.667 137 175 144.667 165 160 c 1
 157.667 186.667 170.333 207.333 203 222 c 1
 210.333 228 221.667 231 237 231 c 0
339 121 m 0
 339 90.3 325 53 269 53 c 0
 261 53 255.333 53.6667 252 55 c 1
 242.667 63 238 73 238 85 c 256
 238 126.929 285.812 152 315 152 c 0
 329.4 152 339 144.441 339 121 c 0
EndSplineSet
EndChar

StartChar: u0950
Encoding: 2384 2384 86
Width: 992
GlyphClass: 2
Flags: HW
LayerCount: 2
Back
Fore
SplineSet
803 939 m 1
 705 860 l 1
 645 935 l 1
 737 1012 l 1
 803 939 l 1
683 806 m 0
 813.717 806 894.819 930.154 904 973 c 1
 962 893 l 1
 942.564 865.79 853.6 725 691 725 c 0
 631.667 725 576.667 753.333 526 810 c 0
 488.667 850.667 467.667 882.667 463 906 c 1
 517 945 l 1
 511.667 921.667 520.667 895.333 544 866 c 0
 574.667 826 621 806 683 806 c 0
866 660 m 0
 949.958 660 1032 559.37 1032 447 c 0
 1032 433 1029.33 417 1024 399 c 1
 1006.67 315 976.333 253 933 213 c 0
 895 179 849.667 162 797 162 c 0
 744.495 162 683 259.779 683 283 c 1
 733 325 l 1
 731.667 315.667 731 308.667 731 304 c 0
 731 279.864 740.442 242.185 793 239 c 1
 893.787 239 953 479.582 953 505 c 0
 953 536.2 933.4 557 881 557 c 0
 845.667 557 787 500.667 705 388 c 0
 667 335.333 622.333 309 571 309 c 0
 565.667 309 553.667 313.667 535 323 c 1
 546.154 294.496 559 252.635 559 214 c 0
 559 120.876 490.691 23 372 23 c 0
 291.333 23 227 84.3333 179 207 c 0
 141.667 301 125.333 364.667 130 398 c 1
 202 434 l 1
 194 421.333 190 398.667 190 366 c 0
 190 242.931 246.943 128 351 128 c 0
 399.338 128 460.516 155.389 474 213 c 1
 476.667 229.667 478 245.333 478 260 c 0
 478 315.642 459.908 360.299 446 378 c 1
 330 352 l 1
 302 437 l 1
 323 453 l 1
 335 441 373.667 446.667 439 470 c 0
 475 482.667 495.667 500.667 501 524 c 1
 502.333 536.667 503 545.667 503 551 c 0
 503 596.231 469.682 607 420 607 c 0
 380.273 607 335.669 593.898 291 575 c 1
 268 570 l 1
 242 654 l 1
 254.104 662.803 351.992 692 412 692 c 0
 509.031 692 566 622.802 566 536 c 0
 566 441.025 513.185 414.407 492 403 c 1
 510.013 389.491 519.576 383 537 383 c 0
 585 383 637.833 429.167 695.5 521.5 c 128
 753.167 613.833 810 660 866 660 c 0
EndSplineSet
EndChar

StartChar: u093D
Encoding: 2365 2365 87
Width: 667
GlyphClass: 2
Flags: HW
LayerCount: 2
Back
Fore
SplineSet
198 562 m 0
 198 631.433 265.782 672 312 672 c 2
 660 672 l 1
 641 579 l 1
 342 579 l 2
 310.552 579 295 575.691 295 534 c 0
 295 502.667 323 468.333 379 431 c 2
 535 329 l 1
 591.667 282.333 620 233 620 181 c 2
 620 148 l 1
 597.409 23.7499 479.648 -51 343 -51 c 0
 287 -51 224.333 -27 155 21 c 0
 131.667 36.3333 102.333 60.3333 67 93 c 1
 103 126 l 1
 105.333 93.3444 196.029 12 315 12 c 0
 478.2 12 519 122.184 519 206 c 0
 519 260.667 491.667 310.333 437 355 c 1
 282 454 l 2
 226 490.667 198 526.667 198 562 c 0
EndSplineSet
EndChar

StartChar: u0903
Encoding: 2307 2307 88
Width: 324
GlyphClass: 2
Flags: HW
LayerCount: 2
Back
Fore
SplineSet
520 597 m 1
 88 597 l 1
 104 679 l 1
 536 679 l 1
 520 597 l 1
350 399 m 1
 244 313 l 1
 170 409 l 1
 281 487 l 1
 350 399 l 1
296 149 m 1
 190 66 l 1
 119 156 l 1
 228 237 l 1
 296 149 l 1
EndSplineSet
EndChar

StartChar: quoteright
Encoding: 8217 8217 89
Width: 277
GlyphClass: 2
Flags: HW
LayerCount: 2
Back
Fore
SplineSet
454 768 m 1
 400.715 688.073 343.342 623.059 269 545 c 1
 230 573 l 1
 271.794 602.159 324.314 651.889 339 709 c 1
 278 770 l 1
 384 851 l 1
 454 768 l 1
EndSplineSet
EndChar

StartChar: parenleft
Encoding: 40 40 90
Width: 434
VWidth: 1024
GlyphClass: 2
Flags: HW
LayerCount: 2
Back
Fore
SplineSet
472 679 m 1
 446 675.666992188 422.25 667.25 400.75 653.75 c 128
 379.25 640.25 359.583007812 623.166992188 341.75 602.5 c 128
 323.916992188 581.833007812 307.916992188 558.166992188 293.75 531.5 c 128
 279.583007812 504.833007812 267.166992188 476.583007812 256.5 446.75 c 128
 245.833007812 416.916992188 236.666992188 386.333007812 229 355 c 128
 221.333007812 323.666992188 215.083007812 292.75 210.25 262.25 c 128
 205.416992188 231.75 201.916992188 202.583007812 199.75 174.75 c 128
 197.583007812 146.916992188 196.5 121.833007812 196.5 99.5 c 256
 196.5 77.1669921875 198.166992188 55.3330078125 201.5 34 c 128
 204.833007812 12.6669921875 211.083007812 -6.6669921875 220.25 -24 c 128
 229.416992188 -41.3330078125 242.083007812 -55.8330078125 258.25 -67.5 c 128
 274.416992188 -79.1669921875 295.166992188 -86.6669921875 320.5 -90 c 1
 309 -145.5 l 1
 266 -144.5 229.5 -136.416992188 199.5 -121.25 c 128
 169.5 -106.083007812 145.083007812 -85.75 126.25 -60.25 c 128
 107.416992188 -34.75 93.75 -4.9169921875 85.25 29.25 c 128
 76.75 63.4169921875 72.5 100.166992188 72.5 139.5 c 0
 72.5 180.166992188 76 222.833007812 83 267.5 c 128
 90 312.166992188 100.666992188 356.333007812 115 400 c 128
 129.333007812 443.666992188 147.583007812 485.333007812 169.75 525 c 128
 191.916992188 564.666992188 218.166992188 599.75 248.5 630.25 c 128
 278.833007812 660.75 313.583007812 685.333007812 352.75 704 c 128
 391.916992188 722.666992188 435.5 732.666992188 483.5 734 c 1
 472 679 l 1
EndSplineSet
EndChar

StartChar: parenright
Encoding: 41 41 91
Width: 434
VWidth: 1024
GlyphClass: 2
Flags: HW
LayerCount: 2
Back
Fore
SplineSet
361.5 449.5 m 0
 361.5 409.166992188 358.083007812 366.666992188 351.25 322 c 128
 344.416992188 277.333007812 333.75 233.166992188 319.25 189.5 c 128
 304.75 145.833007812 286.5 104.083007812 264.5 64.25 c 128
 242.5 24.4169921875 216.25 -10.8330078125 185.75 -41.5 c 128
 155.25 -72.1669921875 120.5 -96.8330078125 81.5 -115.5 c 128
 42.5 -134.166992188 -1 -144.166992188 -49 -145.5 c 1
 -39 -90 l 1
 -13 -86.6669921875 10.8330078125 -78.25 32.5 -64.75 c 128
 54.1669921875 -51.25 73.8330078125 -34.0830078125 91.5 -13.25 c 128
 109.166992188 7.5830078125 125.083007812 31.4169921875 139.25 58.25 c 128
 153.416992188 85.0830078125 165.916992188 113.416992188 176.75 143.25 c 128
 187.583007812 173.083007812 196.833007812 203.75 204.5 235.25 c 128
 212.166992188 266.75 218.416992188 297.666992188 223.25 328 c 128
 228.083007812 358.333007812 231.666992188 387.416992188 234 415.25 c 128
 236.333007812 443.083007812 237.5 468.166992188 237.5 490.5 c 256
 237.5 512.833007812 235.833007812 534.583007812 232.5 555.75 c 128
 229.166992188 576.916992188 222.916992188 596.083007812 213.75 613.25 c 128
 204.583007812 630.416992188 191.916992188 644.833007812 175.75 656.5 c 128
 159.583007812 668.166992188 138.833007812 675.666992188 113.5 679 c 1
 125 734 l 1
 167.666992188 732.666992188 204 724.5 234 709.5 c 128
 264 694.5 288.416992188 674.333007812 307.25 649 c 128
 326.083007812 623.666992188 339.833007812 593.916992188 348.5 559.75 c 128
 357.166992188 525.583007812 361.5 488.833007812 361.5 449.5 c 0
EndSplineSet
EndChar

StartChar: u0964
Encoding: 2404 2404 92
Width: 732
GlyphClass: 2
Flags: HW
LayerCount: 2
Back
Fore
SplineSet
475 -49 m 1
 385 23 l 1
 548 797 l 1
 639 725 l 1
 475 -49 l 1
EndSplineSet
EndChar

StartChar: u0905
Encoding: 2309 2309 112
Width: 812
GlyphClass: 2
Flags: HW
LayerCount: 2
Back
Fore
SplineSet
506 413 m 1
 524.205 380.491 563.6 360 602 360 c 0
 653.017 360 683.861 375.949 721 398 c 1
 763 596 l 1
 642 596 l 1
 621 678 l 1
 1043 678 l 1
 1024 597 l 1
 868 597 l 1
 731 -49 l 1
 640 25 l 1
 696 292 l 1
 669.48 285.021 650.637 285 617 285 c 1
 592.333 287.667 569.333 297.333 548 314 c 1
 550.667 298.667 552 280.333 552 259 c 0
 552 82.6516 417.169 39 329 39 c 0
 149 39 104 297.971 104 411 c 0
 104 421 104.333 426.333 105 427 c 2
 183 453 l 1
 163.667 433.667 154 394.667 154 336 c 0
 154 216.107 209.364 131 318 131 c 0
 420 131 488 217.613 488 313 c 0
 488 349.788 476.6 378.4 467 388 c 1
 428.394 372.558 384.2 359 329 359 c 1
 287 454 l 1
 331.667 457.333 365.667 461.667 389 467 c 0
 459.667 485.667 499 517.333 507 562 c 1
 516.105 602.062 484.089 610 440 610 c 0
 381.81 610 306.47 573.635 282 548 c 1
 252 648 l 1
 273.599 668.159 380.8 692 413 692 c 0
 493.979 692 583 632.4 583 543 c 0
 583 508.927 576.957 471.435 506 413 c 1
EndSplineSet
EndChar

StartChar: comma
Encoding: 44 44 113
Width: 328
VWidth: 1024
GlyphClass: 2
Flags: HW
LayerCount: 2
Back
Fore
SplineSet
205 86 m 0
 205 66 201.25 45.8330078125 193.75 25.5 c 128
 186.25 5.1669921875 176 -14.6669921875 163 -34 c 128
 150 -53.3330078125 134.916992188 -71.5830078125 117.75 -88.75 c 128
 100.583007812 -105.916992188 82.3330078125 -121 63 -134 c 128
 43.6669921875 -147 23.75 -157.583007812 3.25 -165.75 c 128
 -17.25 -173.916992188 -37.1669921875 -178.666992188 -56.5 -180 c 1
 -47 -130 l 1
 -28 -127.333007812 -10.0830078125 -122.333007812 6.75 -115 c 128
 23.5830078125 -107.666992188 38.6669921875 -98.25 52 -86.75 c 128
 65.3330078125 -75.25 76.5 -61.6669921875 85.5 -46 c 128
 94.5 -30.3330078125 100.5 -12.6669921875 103.5 7 c 1
 41 7 l 1
 34.3330078125 13.3330078125 29.25 20.6669921875 25.75 29 c 128
 22.25 37.3330078125 20.5 46.1669921875 20.5 55.5 c 0
 20.5 69.1669921875 23.4169921875 82.25 29.25 94.75 c 128
 35.0830078125 107.25 42.8330078125 118.25 52.5 127.75 c 128
 62.1669921875 137.25 73.3330078125 144.75 86 150.25 c 128
 98.6669921875 155.75 112 158.5 126 158.5 c 0
 149 158.5 167.916992188 152.583007812 182.75 140.75 c 128
 197.583007812 128.916992188 205 110.666992188 205 86 c 0
EndSplineSet
EndChar

StartChar: hyphen
Encoding: 45 45 114
Width: 356
VWidth: 1024
GlyphClass: 2
Flags: HW
LayerCount: 2
Back
Fore
SplineSet
299 192.5 m 1
 30.5 192.5 l 1
 52 301 l 1
 320.5 301 l 1
 299 192.5 l 1
EndSplineSet
EndChar

StartChar: period
Encoding: 46 46 115
Width: 325
VWidth: 1024
GlyphClass: 2
Flags: HW
LayerCount: 2
Back
Fore
SplineSet
195.5 72.5 m 0
 195.5 60.8330078125 193.25 49.8330078125 188.75 39.5 c 128
 184.25 29.1669921875 178.166992188 20.1669921875 170.5 12.5 c 128
 162.833007812 4.8330078125 153.833007812 -1.25 143.5 -5.75 c 128
 133.166992188 -10.25 122.166992188 -12.5 110.5 -12.5 c 256
 98.8330078125 -12.5 87.75 -10.25 77.25 -5.75 c 128
 66.75 -1.25 57.5830078125 4.8330078125 49.75 12.5 c 128
 41.9169921875 20.1669921875 35.75 29.1669921875 31.25 39.5 c 128
 26.75 49.8330078125 24.5 60.8330078125 24.5 72.5 c 0
 24.5 84.5 26.75 95.6669921875 31.25 106 c 128
 35.75 116.333007812 41.9169921875 125.416992188 49.75 133.25 c 128
 57.5830078125 141.083007812 66.75 147.25 77.25 151.75 c 128
 87.75 156.25 98.8330078125 158.5 110.5 158.5 c 256
 122.166992188 158.5 133.166992188 156.25 143.5 151.75 c 128
 153.833007812 147.25 162.833007812 141.083007812 170.5 133.25 c 128
 178.166992188 125.416992188 184.25 116.333007812 188.75 106 c 128
 193.25 95.6669921875 195.5 84.5 195.5 72.5 c 0
EndSplineSet
EndChar

StartChar: slash
Encoding: 47 47 116
Width: 513
VWidth: 1024
GlyphClass: 2
Flags: HW
LayerCount: 2
Back
Fore
SplineSet
80 -95 m 1
 0 -95 l 1
 432 687 l 1
 513 687 l 1
 80 -95 l 1
EndSplineSet
EndChar

StartChar: u0966
Encoding: 2406 2406 117
Width: 667
GlyphClass: 2
Flags: HW
LayerCount: 2
Back
Fore
SplineSet
662 379 m 0
 662 361.8 658 344.6 658 336 c 1
 630.744 206.211 498.536 96 351 96 c 0
 223.483 96 153 182.145 153 292 c 2
 153 322 l 1
 162.772 358.643 170.655 430.268 265.5 501 c 128
 324.5 545 388.333 567 457 567 c 1
 455 556 l 1
 457 567 l 1
 578.21 567 662 490.17 662 379 c 0
222 258 m 0
 222 199.839 257.704 181 346 181 c 0
 429.525 181 582 257.022 582 413 c 0
 582 461.903 559.946 482 458 482 c 1
 459 491 l 1
 458 482 l 1
 379.495 482 245.317 389.504 229 312 c 0
 224.333 288.667 222 270.667 222 258 c 0
EndSplineSet
EndChar

StartChar: u0967
Encoding: 2407 2407 118
Width: 667
GlyphClass: 2
Flags: HW
LayerCount: 2
Back
Fore
SplineSet
332 203 m 1
 398.637 135.306 522 12.5821 522 -66 c 0
 522 -73.3333 522.333 -78.3333 523 -81 c 1
 517.667 -105 500.667 -129 472 -153 c 1
 388 -90 l 1
 416 -72.6667 430.333 -59.6667 431 -51 c 1
 439.962 -6.19228 335.153 123.77 226 223 c 1
 279.519 262.054 361.7 337.7 393 369 c 1
 310.333 420.333 269 473.333 269 528 c 0
 269 592.919 351.142 691 444 691 c 0
 537.513 691 593 600.366 593 531 c 0
 593 514.015 597.776 465.776 489 357 c 1
 332 203 l 1
430 414 m 1
 440.278 425.618 500.739 499.249 508 541 c 0
 509.333 551.667 510 559.333 510 564 c 0
 510 600 492 618 456 618 c 0
 424.141 618 368.704 574.67 357 522 c 0
 349.667 490.667 374 454.667 430 414 c 1
EndSplineSet
EndChar

StartChar: u0968
Encoding: 2408 2408 119
Width: 667
GlyphClass: 2
Flags: HW
LayerCount: 2
Back
Fore
SplineSet
616 461 m 0
 616 382.81 555.526 256.367 393 203 c 1
 537 -54 l 1
 452 -100 l 1
 346 203 l 1
 369 208 l 2
 355.902 206.129 340.509 206 327 206 c 0
 261.249 206 195 219.279 195 270 c 0
 195 311.365 234.675 369 290 369 c 0
 322.8 369 350.859 354.793 372 311 c 1
 425.047 311 554 363.733 554 483 c 0
 554 558.829 477.185 589 391 589 c 0
 326.6 589 274.69 566.73 230 538 c 1
 184 633 l 1
 249.758 662.995 317.2 682 406 682 c 0
 465.333 682 516 657.333 558 608 c 0
 596.667 562.667 616 513.667 616 461 c 0
EndSplineSet
EndChar

StartChar: u0969
Encoding: 2409 2409 120
Width: 667
GlyphClass: 2
Flags: HW
LayerCount: 2
Back
Fore
SplineSet
570 209 m 0
 570 165.31 527.429 66.4583 376 28 c 1
 527 -144 l 1
 450 -183 l 1
 323 19 l 1
 231.5 19 162 32.6 162 87 c 0
 162 135.531 200 192 257 192 c 0
 305.6 192 331.86 156.015 338 129 c 1
 382.759 133.591 500 167.776 500 244 c 0
 500 278.974 474.465 333.993 457 346 c 1
 428 346 355.5 325 312 325 c 1
 282 417 l 1
 307 425 l 1
 315 424.333 321.667 424 327 424 c 0
 372.333 424 415.333 429.333 456 440 c 0
 515.333 456.667 549.667 481 559 513 c 0
 560.333 520.333 561 529.333 561 540 c 0
 561 572.4 549.945 594 457 594 c 2
 425 594 l 2
 359.8 594 278.646 565.774 262 563 c 1
 250 659 l 1
 298 677.667 349.333 687 404 687 c 0
 491.484 687 620 657.8 620 541 c 0
 620 503.739 605.573 434.283 515 367 c 1
 537.753 323.888 570 257.935 570 209 c 0
EndSplineSet
EndChar

StartChar: u096A
Encoding: 2410 2410 121
Width: 667
GlyphClass: 2
Flags: HW
LayerCount: 2
Back
Fore
SplineSet
626 675 m 1
 665.958 646.28 697 607.8 697 563 c 0
 697 555.667 696.333 546.667 695 536 c 1
 684.298 491.855 565.032 398.571 490 352 c 1
 522.527 325.281 570 273.4 570 221 c 0
 570 173.288 512.062 44 371 44 c 0
 295.577 44 226 109.567 226 192 c 0
 226 239.502 234.791 256.771 272.5 298 c 128
 297.5 325.333 332.667 353.333 378 382 c 1
 372.886 387.014 231.968 521.28 244 578 c 0
 249.333 602.667 263 625.667 285 647 c 1
 309.667 666.333 323.667 677.667 327 681 c 1
 402 623 l 1
 323.642 591.233 290.781 564.948 341 495 c 0
 363 464.333 391 436.667 425 412 c 1
 477.454 438.936 602.93 527.719 608 548 c 128
 610.667 558.667 612 566.667 612 572 c 130
 612 582 l 2
 612 597.333 608.5 609.333 601.5 618 c 130
 584 640 l 1
 626 675 l 1
345 105 m 0
 431.479 105 491 187.673 491 256 c 0
 491 293.333 474 317.667 440 329 c 1
 422.599 326.68 311.657 245.912 300 192 c 0
 298.667 184.667 298 174.667 298 162 c 0
 298 124 313.667 105 345 105 c 0
EndSplineSet
EndChar

StartChar: u096B
Encoding: 2411 2411 122
Width: 667
GlyphClass: 2
Flags: HW
LayerCount: 2
Back
Fore
SplineSet
385 230 m 1
 283.879 230 235 328.729 235 439 c 0
 235 514.432 248.244 546.54 278 604 c 1
 346 718 l 1
 446 654 l 1
 413.971 638.682 333.391 535.243 320.5 473.5 c 128
 314.167 443.167 311 417 311 395 c 0
 311 345 334.667 320 382 320 c 0
 413.6 320 453.746 337.373 461 341 c 1
 468.333 367 483 393 505 419 c 0
 533.667 454.333 562.667 472 592 472 c 0
 620.667 472 635 460.333 635 437 c 0
 635 425 631.833 404.833 625.5 376.5 c 128
 613.31 321.966 527.976 263.325 470 244 c 1
 371 29 l 1
 555 -75 l 1
 509 -136 l 1
 343 -20 l 1
 324.347 -38.6531 296.292 -55 258 -55 c 256
 211.9 -55 197 -22.6 197 -1 c 0
 197 28.375 216.15 70 275 70 c 0
 289.79 70 302.644 66.839 318 63 c 1
 410 231 l 1
 385 230 l 1
EndSplineSet
EndChar

StartChar: u096C
Encoding: 2412 2412 123
Width: 667
GlyphClass: 2
Flags: HW
LayerCount: 2
Back
Fore
SplineSet
591 176 m 0
 591 120.8 553.214 68.5142 496 38 c 1
 600 -149 l 1
 525 -193 l 1
 455 15 l 1
 436.319 11.8865 417.4 9 408 9 c 0
 356 9 307.667 31.3333 263 76 c 128
 218.333 120.667 196 173.333 196 234 c 0
 196 310.498 235.395 391.148 307 418 c 1
 276.95 445.904 235 495.4 235 547 c 0
 235 609.944 294.345 677 367 677 c 2
 627 677 l 1
 650 586 l 1
 380 586 l 2
 331.2 586 319 531.677 319 504 c 0
 319 478.9 330.6 434 348 434 c 2
 546 434 l 1
 575 342 l 1
 391 342 l 2
 339.685 342 268 297.113 268 193 c 0
 268 129 309.3 113 385 113 c 0
 475.55 113 414.35 237 513 237 c 0
 573.351 237 591 212.6 591 176 c 0
EndSplineSet
EndChar

StartChar: u096D
Encoding: 2413 2413 124
Width: 585
GlyphClass: 2
Flags: HW
LayerCount: 2
Back
Fore
SplineSet
656 383 m 0
 656 256.397 557.965 -13 326 -13 c 0
 167.278 -13 97 83.2336 97 250 c 0
 97 389.6 143.687 524.949 172 599 c 1
 240 599 l 1
 211.793 570.793 189.031 534.125 178 490 c 1
 165.216 452.714 142 372.4 142 294 c 0
 142 182.512 183.4 78 349 78 c 0
 400.333 78 443.667 93.6667 479 125 c 0
 499 143.667 517.333 168.667 534 200 c 1
 437.996 223.743 334 283.863 334 392 c 0
 334 493.69 409.64 569 504 569 c 0
 625.6 569 656 456.509 656 383 c 0
509 489 m 0
 455 489 419 428.945 419 364 c 0
 419 268 520.538 247.113 554 244 c 1
 585.306 296.176 598 349.812 598 395 c 0
 598 441.743 580.2 489 509 489 c 0
EndSplineSet
EndChar

StartChar: u096E
Encoding: 2414 2414 125
Width: 667
GlyphClass: 2
Flags: HW
LayerCount: 2
Back
Fore
SplineSet
434 142 m 0
 542.4 142 629 124.8 629 56 c 0
 629 51.3333 628.333 46.6667 627 42 c 0
 619.878 -13.5534 594.275 -24.2002 542 -57 c 1
 503 1 l 1
 546.191 9.09837 566.331 17.6438 569 39 c 0
 569.667 45 563 48 549 48 c 0
 530.6 48 475.4 44 457 44 c 0
 372.584 44 240 99.0883 240 244 c 0
 240 320.229 263.52 392.02 321 447 c 1
 194 447 l 1
 194 535 l 1
 675 535 l 1
 670 447 l 1
 468 447 l 2
 400.919 447 304 336.714 304 248 c 0
 304 184.4 358.112 142 434 142 c 0
EndSplineSet
EndChar

StartChar: u096F
Encoding: 2415 2415 126
Width: 667
GlyphClass: 2
Flags: HW
LayerCount: 2
Back
Fore
SplineSet
286 184 m 2
 286 151.61 298.067 122 380 122 c 2
 408 122 l 130
 417.333 122 426.667 122.333 436 123 c 0
 506 123 555.667 113.667 585 95 c 128
 614.333 76.3333 629 51 629 19 c 0
 629 -1.2585 621.924 -35.6361 597 -57 c 0
 589 -63 571.667 -73 545 -87 c 1
 512 -45 l 1
 548.372 -32.8759 562.454 -28.865 567 -5 c 1
 568.084 8.00945 518.601 28 433 28 c 0
 371 28 325.333 34.3333 296 47 c 0
 243.333 69.6667 217 113.667 217 179 c 0
 217 245.392 233.853 308.613 283 350 c 1
 176 348 l 1
 174 436 l 1
 314 436 l 1
 310.44 440.577 296 460.8 296 498 c 0
 296 535.174 310.355 611.726 388 643 c 0
 421.333 657 470 664 534 664 c 0
 562.8 664 577.2 663 606 663 c 1
 604 577 l 1
 592 578.333 582.333 579 575 579 c 0
 528.333 583.667 495.333 586 476 586 c 0
 392.748 586 322.005 503.942 369 452 c 0
 372.333 448 379 443 389 437 c 1
 656 437 l 1
 649 351 l 1
 424 351 l 2
 386.177 351 286 258.966 286 196 c 130
 286 184 l 2
EndSplineSet
EndChar

StartChar: colon
Encoding: 58 58 127
Width: 325
VWidth: 1024
GlyphClass: 2
Flags: HW
LayerCount: 2
Back
Fore
SplineSet
195.5 72.5 m 0
 195.5 60.8330078125 193.25 49.8330078125 188.75 39.5 c 128
 184.25 29.1669921875 178.166992188 20.1669921875 170.5 12.5 c 128
 162.833007812 4.8330078125 153.833007812 -1.25 143.5 -5.75 c 128
 133.166992188 -10.25 122.166992188 -12.5 110.5 -12.5 c 256
 98.8330078125 -12.5 87.75 -10.25 77.25 -5.75 c 128
 66.75 -1.25 57.5830078125 4.8330078125 49.75 12.5 c 128
 41.9169921875 20.1669921875 35.75 29.1669921875 31.25 39.5 c 128
 26.75 49.8330078125 24.5 60.8330078125 24.5 72.5 c 0
 24.5 84.5 26.75 95.6669921875 31.25 106 c 128
 35.75 116.333007812 41.9169921875 125.416992188 49.75 133.25 c 128
 57.5830078125 141.083007812 66.75 147.25 77.25 151.75 c 128
 87.75 156.25 98.8330078125 158.5 110.5 158.5 c 256
 122.166992188 158.5 133.166992188 156.25 143.5 151.75 c 128
 153.833007812 147.25 162.833007812 141.083007812 170.5 133.25 c 128
 178.166992188 125.416992188 184.25 116.333007812 188.75 106 c 128
 193.25 95.6669921875 195.5 84.5 195.5 72.5 c 0
265 424 m 256
 265 412.333007812 262.833007812 401.333007812 258.5 391 c 128
 254.166992188 380.666992188 248.166992188 371.666992188 240.5 364 c 128
 232.833007812 356.333007812 223.833007812 350.25 213.5 345.75 c 128
 203.166992188 341.25 192 339 180 339 c 0
 168.333007812 339 157.25 341.25 146.75 345.75 c 128
 136.25 350.25 127.083007812 356.333007812 119.25 364 c 128
 111.416992188 371.666992188 105.25 380.666992188 100.75 391 c 128
 96.25 401.333007812 94 412.333007812 94 424 c 256
 94 435.666992188 96.25 446.75 100.75 457.25 c 128
 105.25 467.75 111.416992188 476.916992188 119.25 484.75 c 128
 127.083007812 492.583007812 136.25 498.75 146.75 503.25 c 128
 157.25 507.75 168.333007812 510 180 510 c 0
 192 510 203.166992188 507.75 213.5 503.25 c 128
 223.833007812 498.75 232.833007812 492.583007812 240.5 484.75 c 128
 248.166992188 476.916992188 254.166992188 467.75 258.5 457.25 c 128
 262.833007812 446.75 265 435.666992188 265 424 c 256
EndSplineSet
EndChar

StartChar: semicolon
Encoding: 59 59 128
Width: 325
VWidth: 1024
GlyphClass: 2
Flags: HW
LayerCount: 2
Back
Fore
SplineSet
205 86 m 0
 205 66 201.25 45.8330078125 193.75 25.5 c 128
 186.25 5.1669921875 176 -14.6669921875 163 -34 c 128
 150 -53.3330078125 134.916992188 -71.5830078125 117.75 -88.75 c 128
 100.583007812 -105.916992188 82.3330078125 -121 63 -134 c 128
 43.6669921875 -147 23.75 -157.583007812 3.25 -165.75 c 128
 -17.25 -173.916992188 -37.1669921875 -178.666992188 -56.5 -180 c 1
 -47 -130 l 1
 -28 -127.333007812 -10.0830078125 -122.333007812 6.75 -115 c 128
 23.5830078125 -107.666992188 38.6669921875 -98.25 52 -86.75 c 128
 65.3330078125 -75.25 76.5 -61.6669921875 85.5 -46 c 128
 94.5 -30.3330078125 100.5 -12.6669921875 103.5 7 c 1
 41 7 l 1
 34.3330078125 13.3330078125 29.25 20.6669921875 25.75 29 c 128
 22.25 37.3330078125 20.5 46.1669921875 20.5 55.5 c 0
 20.5 69.1669921875 23.4169921875 82.25 29.25 94.75 c 128
 35.0830078125 107.25 42.8330078125 118.25 52.5 127.75 c 128
 62.1669921875 137.25 73.3330078125 144.75 86 150.25 c 128
 98.6669921875 155.75 112 158.5 126 158.5 c 0
 149 158.5 167.916992188 152.583007812 182.75 140.75 c 128
 197.583007812 128.916992188 205 110.666992188 205 86 c 0
265 424 m 256
 265 412.333007812 262.833007812 401.333007812 258.5 391 c 128
 254.166992188 380.666992188 248.166992188 371.666992188 240.5 364 c 128
 232.833007812 356.333007812 223.833007812 350.25 213.5 345.75 c 128
 203.166992188 341.25 192 339 180 339 c 0
 168.333007812 339 157.25 341.25 146.75 345.75 c 128
 136.25 350.25 127.083007812 356.333007812 119.25 364 c 128
 111.416992188 371.666992188 105.25 380.666992188 100.75 391 c 128
 96.25 401.333007812 94 412.333007812 94 424 c 256
 94 435.666992188 96.25 446.75 100.75 457.25 c 128
 105.25 467.75 111.416992188 476.916992188 119.25 484.75 c 128
 127.083007812 492.583007812 136.25 498.75 146.75 503.25 c 128
 157.25 507.75 168.333007812 510 180 510 c 0
 192 510 203.166992188 507.75 213.5 503.25 c 128
 223.833007812 498.75 232.833007812 492.583007812 240.5 484.75 c 128
 248.166992188 476.916992188 254.166992188 467.75 258.5 457.25 c 128
 262.833007812 446.75 265 435.666992188 265 424 c 256
EndSplineSet
EndChar

StartChar: u0907
Encoding: 2311 2311 130
Width: 487
GlyphClass: 2
Flags: HW
LayerCount: 2
Back
Fore
SplineSet
410 189 m 0
 410 231.04 370.446 253 325 253 c 0
 285 253 248.333 240 215 214 c 1
 192.116 214 99.674 352.509 107 395 c 1
 119.691 456.146 160.847 516 227 516 c 2
 399 516 l 1
 417 595 l 1
 86 595 l 1
 102 679 l 1
 748 679 l 1
 735 596 l 1
 520 596 l 1
 484 430 l 1
 227 430 l 2
 193.023 430 172 404.286 172 370 c 0
 172 343.333 182.667 326.333 204 319 c 1
 233.333 331 264.667 337 298 337 c 0
 391.831 337 479 290.096 479 198 c 0
 479 114.8 419.362 24.9606 297 -10 c 1
 427 -147 l 1
 360 -198 l 1
 248 -22 l 1
 233.333 -23.3333 219 -24 205 -24 c 0
 134.281 -24 69 -5.85465 69 51 c 0
 69 103.377 111.677 143 163 143 c 256
 208.485 143 242.166 116.439 253 88 c 1
 328.458 99.179 410 116.294 410 189 c 0
EndSplineSet
EndChar

StartChar: u0909
Encoding: 2313 2313 131
Width: 602
GlyphClass: 2
Flags: HW
LayerCount: 2
Back
Fore
SplineSet
528 529 m 0
 528 557.299 512.01 580.705 493 597 c 1
 90 597 l 1
 106 681 l 1
 864 681 l 1
 847 596 l 1
 551 596 l 1
 567.803 568.504 577 540.8 577 504 c 2
 577 482 l 1
 573.542 468.17 571.466 424.857 524 374 c 1
 559.632 333.509 590 276.8 590 212 c 0
 590 139.056 543.4 -12 357 -12 c 0
 162.6 -12 114 247.038 114 396 c 0
 114 418 114.667 429.667 116 431 c 2
 167 450 l 1
 163.119 418.954 157 366.8 157 346 c 0
 157 126.775 269.8 94 345 94 c 0
 410.634 94 533 134.984 533 244 c 0
 533 287.949 512.243 322.477 482 346 c 1
 426 328 l 1
 349 316 l 1
 312 418 l 1
 330 418 l 2
 491.522 418 528 484.6 528 529 c 0
EndSplineSet
EndChar

StartChar: u090A
Encoding: 2314 2314 132
Width: 567
GlyphClass: 2
Flags: HW
LayerCount: 2
Back
Fore
SplineSet
527 536 m 0
 527 564.839 516.655 583.345 500 600 c 1
 93 600 l 1
 109 684 l 1
 1105 684 l 1
 1085 596 l 1
 558 596 l 1
 580.202 570.626 590 545.6 590 512 c 0
 590 462.491 570.602 407.654 529 377 c 1
 541 361 l 1
 628.075 410.475 693.8 435 732 435 c 0
 811.117 435 874 357.625 874 267 c 0
 874 243.218 872.545 184.843 812 107 c 0
 772 54.3333 732 17 692 -5 c 1
 596 79 l 1
 650.487 79 810 178.305 810 304 c 0
 810 336.976 788.538 348 751 348 c 0
 697.703 348 606.546 287.154 578 263 c 1
 580.667 255.667 582 244.667 582 230 c 0
 582 214.667 581.667 203 581 195 c 1
 572.265 156.567 572.217 99.949 500 45.5 c 128
 458 13.8333 409.667 -2 355 -2 c 0
 163 -2 115 271.9 115 402 c 0
 115 417.333 115.667 426.667 117 430 c 1
 164 434 l 1
 162.744 422.695 162 405.513 162 377 c 0
 162 138.25 272.4 103 346 103 c 0
 413.499 103 490.613 144.058 506 214 c 1
 510 245 l 130
 511.333 255.667 512 266 512 276 c 0
 512 307.2 506.905 338.069 485 354 c 1
 424.95 329.273 385.697 314 344 314 c 1
 309 416 l 1
 403.293 416 508.303 440.657 525 512 c 1
 526.333 522.667 527 530.667 527 536 c 0
EndSplineSet
EndChar

StartChar: question
Encoding: 63 63 133
Width: 548
VWidth: 1024
Flags: HW
LayerCount: 2
Back
Fore
SplineSet
266 66.5 m 256
 266 55.1669921875 263.75 44.6669921875 259.25 35 c 128
 254.75 25.3330078125 248.666992188 17 241 10 c 128
 233.333007812 3 224.5 -2.5 214.5 -6.5 c 128
 204.5 -10.5 193.833007812 -12.5 182.5 -12.5 c 256
 171.166992188 -12.5 160.75 -10.25 151.25 -5.75 c 128
 141.75 -1.25 133.5 4.8330078125 126.5 12.5 c 128
 119.5 20.1669921875 114.083007812 29 110.25 39 c 128
 106.416992188 49 104.5 59.5 104.5 70.5 c 0
 104.5 81.8330078125 106.5 92.4169921875 110.5 102.25 c 128
 114.5 112.083007812 120 120.75 127 128.25 c 128
 134 135.75 142.333007812 141.666992188 152 146 c 128
 161.666992188 150.333007812 172.166992188 152.5 183.5 152.5 c 0
 195.5 152.5 206.583007812 150.166992188 216.75 145.5 c 128
 226.916992188 140.833007812 235.583007812 134.583007812 242.75 126.75 c 128
 249.916992188 118.916992188 255.583007812 109.75 259.75 99.25 c 128
 263.916992188 88.75 266 77.8330078125 266 66.5 c 256
525.5 547 m 0
 525.5 523.666992188 521.75 501.75 514.25 481.25 c 128
 506.75 460.75 496.416992188 441.666992188 483.25 424 c 128
 470.083007812 406.333007812 454.75 390.166992188 437.25 375.5 c 128
 419.75 360.833007812 401 347.833007812 381 336.5 c 128
 361 325.166992188 340.333007812 315.583007812 319 307.75 c 128
 297.666992188 299.916992188 276.666992188 294 256 290 c 1
 238.5 203 l 1
 169 203 l 1
 195.5 339 l 1
 219.5 344 242.75 352.666992188 265.25 365 c 128
 287.75 377.333007812 307.666992188 392.5 325 410.5 c 128
 342.333007812 428.5 356.166992188 448.75 366.5 471.25 c 128
 376.833007812 493.75 382 517.833007812 382 543.5 c 0
 382 560.833007812 379.083007812 575.666992188 373.25 588 c 128
 367.416992188 600.333007812 359.5 610.416992188 349.5 618.25 c 128
 339.5 626.083007812 327.75 631.833007812 314.25 635.5 c 128
 300.75 639.166992188 286.166992188 641 270.5 641 c 1
 210 523.5 l 2
 209.333007812 522.833007812 207.833007812 522.083007812 205.5 521.25 c 128
 203.166992188 520.416992188 200.75 519.583007812 198.25 518.75 c 128
 195.75 517.916992188 193.416992188 517.25 191.25 516.75 c 128
 189.083007812 516.25 187.833007812 516 187.5 516 c 0
 178.833007812 516 169.916992188 516.583007812 160.75 517.75 c 128
 151.583007812 518.916992188 143.25 521.333007812 135.75 525 c 128
 128.25 528.666992188 122 533.833007812 117 540.5 c 128
 112 547.166992188 109.5 555.833007812 109.5 566.5 c 0
 109.5 583.166992188 113 598.083007812 120 611.25 c 128
 127 624.416992188 136.333007812 636.083007812 148 646.25 c 128
 159.666992188 656.416992188 173.083007812 665.166992188 188.25 672.5 c 128
 203.416992188 679.833007812 219 685.75 235 690.25 c 128
 251 694.75 266.916992188 698.083007812 282.75 700.25 c 128
 298.583007812 702.416992188 313.166992188 703.5 326.5 703.5 c 0
 351.166992188 703.5 375.416992188 700.583007812 399.25 694.75 c 128
 423.083007812 688.916992188 444.333007812 679.666992188 463 667 c 128
 481.666992188 654.333007812 496.75 638.166992188 508.25 618.5 c 128
 519.75 598.833007812 525.5 575 525.5 547 c 0
EndSplineSet
EndChar

StartChar: u090B
Encoding: 2315 2315 134
Width: 501
GlyphClass: 2
Flags: HW
LayerCount: 2
Back
Fore
SplineSet
327 413 m 0
 287.539 413 150.547 357.273 148 356 c 1
 127 461 l 1
 311 501 l 1
 343.569 506.922 363.151 485.509 379 464 c 0
 394.465 443.615 402.59 433.162 447 355 c 1
 498 598 l 1
 88 598 l 1
 104 682 l 1
 1054 682 l 1
 1038 596 l 1
 599 596 l 1
 543 337 l 1
 638 381 l 1
 634.667 388.333 633 397 633 407 c 0
 633 452.52 673.026 503 730 503 c 0
 766 503 775 477.05 775 456 c 0
 775 417.92 744.472 365.915 709 355 c 1
 774 218 l 1
 753 204 l 1
 739.247 199.063 641.218 170.388 620 84 c 0
 612.667 50 637 33 693 33 c 0
 731 33 765.998 63.1558 788 84 c 1
 818 -21 l 1
 799.63 -35.2875 735.126 -58 690 -58 c 0
 595.6 -58 572 27.6148 572 84 c 256
 572 139.915 595.71 239.855 691 276 c 1
 662 339 l 1
 528 263 l 1
 458 -61 l 1
 374 14 l 1
 414 207 l 1
 150 62 l 1
 114 162 l 1
 433 289 l 1
 347 405 l 2
 343.667 410.333 337 413 327 413 c 0
EndSplineSet
EndChar

StartChar: u0960
Encoding: 2400 2400 135
Width: 501
GlyphClass: 2
Flags: HW
LayerCount: 2
Back
Fore
SplineSet
329 413 m 0
 296.909 413 161.574 361.787 148 355 c 1
 127 461 l 1
 311 501 l 1
 343.569 506.922 363.151 485.509 379 464 c 0
 407.667 423.333 430.333 386.333 447 353 c 1
 500 599 l 1
 104 599 l 1
 120 683 l 1
 1056 683 l 1
 1038 596 l 1
 599 596 l 1
 543 335 l 1
 638 381 l 1
 634.667 388.333 633 397.333 633 408 c 0
 633 452.024 672.839 503 730 503 c 0
 766 503 775 477.05 775 456 c 0
 775 417.593 745.187 366.526 709 354 c 1
 770 222 l 1
 671.99 192.441 649 162.8 649 148 c 0
 649 135.333 659.667 129 681 129 c 256
 702.333 129 722.333 136.667 741 152 c 1
 804 74 l 1
 706.245 36.0951 656.645 2.1529 652 -22 c 0
 647.333 -46.6667 660.333 -59 691 -59 c 0
 711.8 -59 746.533 -51.499 795 -28 c 1
 810.569 -51.3539 826.858 -82.7162 830 -89 c 1
 767.388 -123.437 718 -130 690 -130 c 0
 616.754 -130 572 -86.1891 572 -29 c 0
 572 8.33333 589 40 623 66 c 1
 574.278 84.9475 559 106.8 559 134 c 0
 559 190.8 581.018 219.887 691 276 c 1
 662 340 l 1
 527 263 l 1
 459 -64 l 1
 374 11 l 1
 416 205 l 1
 150 58 l 1
 116 160 l 1
 433 288 l 1
 348 404 l 2
 344.667 410 338.333 413 329 413 c 0
EndSplineSet
EndChar

StartChar: u090F
Encoding: 2319 2319 139
Width: 602
GlyphClass: 2
Flags: HW
LayerCount: 2
Back
Fore
SplineSet
844 596 m 1
 643 596 l 1
 585 321 l 2
 579.667 297 565.333 272.667 542 248 c 0
 515.333 218.667 490 204 466 204 c 1
 377 275 l 1
 442.333 275 478 290.667 484 322 c 2
 542 597 l 1
 300 597 l 1
 221 225 l 1
 551 -4 l 1
 594.538 -27.1585 623.008 -86.7321 536 -172 c 0
 525.333 -182.667 508.333 -196.667 485 -214 c 1
 408 -132 l 1
 429 -116 l 1
 431.253 -120.506 532.002 -89.9881 535 -72 c 0
 535.667 -66 533.333 -59 528 -51 c 1
 111 217 l 1
 192 596 l 1
 90 596 l 1
 106 680 l 1
 862 680 l 1
 844 596 l 1
EndSplineSet
EndChar

StartChar: u0915.half
Encoding: 65551 -1 140
Width: 536
GlyphClass: 3
Flags: HW
AnchorPoint: "N" 185 165 basechar 0
LayerCount: 2
Back
Fore
SplineSet
168 261 m 2
 168 222.6 197.4 213 219 213 c 0
 292.424 213 409.22 317.209 411 327 c 2
 468 597 l 1
 85 597 l 1
 101 681 l 1
 837 680 l 1
 821 596 l 1
 579 596 l 1
 540 416 l 1
 561.861 431.134 583.906 443 683 443 c 2
 705 443 l 1
 684 344 l 1
 665.523 349.279 659.481 350 642 350 c 0
 589.2 350 535.247 317.522 510 275 c 1
 442 -49 l 1
 351 23 l 1
 384 182 l 1
 316.606 129.178 262.097 128 245 128 c 0
 158.028 128 98 211.72 98 290 c 0
 98 370 151.066 490 327 490 c 0
 341.626 490 366.635 489.341 376 487 c 1
 401 401 l 1
 379 389 l 1
 376.333 394.333 359.667 397 329 397 c 0
 173.08 397 168 266.5 168 266.5 c 130
 168 261 l 2
EndSplineSet
Ligature2: "'half' Half Forms in Devanagari lookup 3 subtable" u0915 u094D
LCarets2: 1 2
EndChar

StartChar: u0958.half
Encoding: 65552 -1 141
Width: 536
GlyphClass: 3
Flags: HW
LayerCount: 2
Back
Fore
SplineSet
172 258 m 2
 172 219.6 208.8 210 224 210 c 0
 294.444 210 412.981 311.886 415 324 c 2
 473 595 l 1
 90 595 l 1
 106 679 l 1
 795 680 l 1
 779 596 l 1
 579 596 l 1
 540 414 l 1
 561.861 429.134 583.906 441 683 441 c 2
 705 441 l 1
 684 341 l 1
 673.693 345.581 650.784 347 643 347 c 0
 582.79 347 537.58 312.696 512 272 c 1
 444 -54 l 1
 353 20 l 1
 386 179 l 1
 377.5 170.5 366.12 163.56 333 147 c 1
 31 -50 l 1
 -29 29 l 1
 185 142 l 1
 138.937 168.144 101 222.163 101 288 c 0
 101 327.023 128.299 490 331 490 c 0
 352.096 490 363.514 489.886 381 486 c 1
 406 400 l 1
 384 388 l 1
 381.333 393.333 364.667 396 334 396 c 0
 181.42 396 172 264.624 172 263.5 c 130
 172 258 l 2
EndSplineSet
Ligature2: "'half' Half Forms in Devanagari lookup 3 subtable" u0958 u094D
EndChar

StartChar: u0915
Encoding: 2325 2325 142
Width: 536
GlyphClass: 2
Flags: HW
AnchorPoint: "N" 104 156 basechar 0
LayerCount: 2
Back
Fore
SplineSet
334 417 m 0
 184.151 417 158 322.4 158 274 c 0
 158 233.333 177 213 215 213 c 256
 300.687 213 412.58 326.176 416 339 c 2
 472 599 l 1
 89 599 l 1
 105 683 l 1
 1030 680 l 1
 1014 596 l 1
 579 596 l 1
 540 413 l 1
 564.197 433.326 613.2 466 662 466 c 0
 730.956 466 794 388.983 794 290 c 0
 794 252.943 788.556 190.338 701 88 c 0
 665 44.6667 635 15.6667 611 1 c 1
 525 79 l 1
 581.947 79 722 217.932 722 338 c 0
 722 365.2 706.6 372 675 372 c 0
 644.333 372 608 356.333 566 325 c 0
 530 297 511.333 279 510 271 c 2
 443 -46 l 1
 352 26 l 1
 385 187 l 1
 359.297 164.357 298.734 116 233 116 c 0
 152.41 116 97 206.799 97 299 c 0
 97 362.025 129.14 520 360 520 c 0
 372.667 519.333 379.667 519 381 519 c 1
 417 402 l 1
 400.333 412 372.667 417 334 417 c 0
EndSplineSet
EndChar

